<svg id="Auswärtiges_Amt" data-name="Auswärtiges Amt" xmlns="http://www.w3.org/2000/svg" viewBox="0 0 114.62027 60.93268"><title>logo-auswärtiges-amt</title><path id="path28" d="M39.10258,9.26821h1.03887l.60375-1.922h3.11859l.5808,1.922h1.15164l-2.6266-8.0694h-1.3083ZM43.58336,6.451H41.00167l1.26341-4.30215h.023L43.58336,6.451" transform="translate(0 -0.23379)"/><path id="path32" d="M49.35749,7.36812a1.15848,1.15848,0,0,1-1.10572,1.30731c-.64867,0-.961-.45905-.961-1.13965v-3.913h-.91611V7.927A1.32926,1.32926,0,0,0,47.8945,9.38a1.6237,1.6237,0,0,0,1.43105-.79337h.03193v.6816h.973c-.03393-.39219-.05688-.78339-.05688-1.17359V3.62282h-.91611v3.7453" transform="translate(0 -0.23379)"/><path id="path36" d="M55.45,7.65852c0-1.72046-2.81621-1.6995-2.81621-2.69346a.77155.77155,0,0,1,.87021-.76044.7923.7923,0,0,1,.88318.90514h1.01791c.07784-1.11671-.78239-1.59772-1.78833-1.59772-1.58774,0-1.945.95-1.945,1.54183,0,1.68753,2.81621,1.71048,2.81621,2.71641a.85345.85345,0,0,1-.972.86122c-.92709,0-.93907-.76044-.93907-1.08477H51.538C51.50407,8.84308,52.26351,9.38,53.482,9.38c1.1177,0,1.968-.481,1.968-1.72147" transform="translate(0 -0.23379)"/><path id="path40" d="M57.48178,9.26821h1.22847l1.2634-4.80611h.023l1.20752,4.80611H62.4326l1.50989-5.64539h-.973l-1.1177,4.862h-.023l-1.15063-4.862H59.38187l-1.25242,4.862h-.022l-1.01691-4.862H56.07368l1.4081,5.64539" transform="translate(0 -0.23379)"/><path id="path42" d="M66.26971,1.50917H65.21188v1.1676h1.05783Zm1.966,0H67.18782v1.1676h1.04784ZM67.61694,6.459c.08981,1.82624-.59877,2.17552-1.15762,2.17552-.61873,0-.88818-.499-.88818-1.04784C65.57114,6.39911,66.74872,6.469,67.61694,6.459Zm.02,2.81421h1.00793A8.65972,8.65972,0,0,1,68.535,7.926V5.21155c0-.948-.37922-1.69651-1.83622-1.69651-1.19754,0-1.86616.42912-1.90608,1.69651h.988a.83856.83856,0,0,1,.88817-1.00793c.978,0,.968.81832.94805,1.56678-1.28735-.02994-2.96391.03992-2.96391,1.75639,0,1.07779.34928,1.85619,1.54682,1.85619a1.38333,1.38333,0,0,0,1.41708-.9281h.02V9.2732" transform="translate(0 -0.23379)"/><path id="path46" d="M70.93811,3.62282H70.022V9.26821h.91612V5.93806c0-.76143.25647-1.53285,1.27338-1.53285a3.71815,3.71815,0,0,1,.491.05689v-.95c-.89216,0-1.3622.09979-1.74242.961h-.022V3.62282" transform="translate(0 -0.23379)"/><path id="path50" d="M73.04378,3.62282V4.3164h.92709V8.32914c0,.64867.3922,1.00593,1.2634,1.00593.30138,0,.60376-.06687.90514-.08982V8.5417c-.20059.022-.34629.04491-.41415.04491-.83628,0-.83628-.45906-.83628-.81632V4.3164h1.22747V3.62282H74.889V2.1259l-.91811.41315V3.62282h-.92709" transform="translate(0 -0.23379)"/><path id="path52" d="M78.14528,3.62481h-.90813v5.6384h.90813Zm-.968-1.447h1.02789v-.978H77.17727Z" transform="translate(0 -0.23379)"/><path id="path56" d="M82.62906,6.41807c0,.78239.03493,2.0897-1.0718,2.0897-.6816,0-1.09575-.42313-1.09575-2.2344,0-.74947.03294-2.00089,1.0728-2.00089C82.68594,4.27248,82.62906,5.57979,82.62906,6.41807Zm-.022-2.10168h-.022A1.36,1.36,0,0,0,81.26586,3.512c-.45706,0-1.76537.16666-1.76537,2.76132,0,1.67555.30138,2.99484,1.83223,2.99484a1.41164,1.41164,0,0,0,1.24045-.70455h.03393V9.73725a.9015.9015,0,0,1-.983.973.78632.78632,0,0,1-.86123-.81632H79.736c-.07884,1.03887.77041,1.5089,1.70949,1.5089,1.24045,0,2.07872-.30138,2.07872-1.56478V3.62282H82.6071V4.3164" transform="translate(0 -0.23379)"/><path id="path60" d="M85.88337,6.04883c.01-1.56378.491-1.84421,1.07279-1.84421.66963,0,1.12868.20059,1.12868,1.84421Zm3.17247.69257v-.48c0-1.86617-.40216-2.74935-2.01186-2.74935-1.955,0-2.14458,1.3632-2.14458,3.01679,0,2.49287.949,2.85114,2.14458,2.85114a1.71616,1.71616,0,0,0,1.967-1.82126H88.006a1.014,1.014,0,0,1-.984,1.07279c-.71453,0-1.13866-.31335-1.13866-1.89011h3.17247" transform="translate(0 -0.23379)"/><path id="path64" d="M94.09848,7.65852c0-1.72046-2.81722-1.6995-2.81722-2.69346a.77275.77275,0,0,1,.87221-.76044.795.795,0,0,1,.88418.90514h1.01591c.07684-1.11671-.78239-1.59772-1.78832-1.59772-1.58673,0-1.945.95-1.945,1.54183,0,1.68753,2.81721,1.71048,2.81721,2.71641,0,.5818-.42513.86122-.973.86122-.92809,0-.93907-.76044-.93907-1.08477H90.18651C90.15259,8.84308,90.913,9.38,92.13152,9.38c1.11671,0,1.967-.481,1.967-1.72147" transform="translate(0 -0.23379)"/><path id="path68" d="M96.81988,9.26821h1.04086l.60376-1.922h3.11859l.5818,1.922h1.15063l-2.6266-8.0694H99.3816Zm4.48377-2.8172H98.721l1.26341-4.30215h.02294L101.30365,6.451" transform="translate(0 -0.23379)"/><path id="path72" d="M107.85918,9.26821V5.468a1.4782,1.4782,0,0,1,.31335-.995.83192.83192,0,0,1,.69259-.21256c.73847,0,.89516.52592.89516,1.09574v3.912h.91612V4.976a1.33627,1.33627,0,0,0-1.54283-1.464,1.35252,1.35252,0,0,0-1.34125.7265A1.38061,1.38061,0,0,0,106.474,3.512a1.36246,1.36246,0,0,0-1.40811.81533H105.044V3.62282h-.974c.03393.39219.05689.78239.05689,1.17458V9.26821h.91711V5.468a1.68813,1.68813,0,0,1,.21156-.8283,1.059,1.059,0,0,1,.79338-.37922c.73748,0,.89416.52592.89416,1.09574v3.912h.91612" transform="translate(0 -0.23379)"/><path id="path76" d="M111.52563,3.62282V4.3164h.9261V8.32914c0,.64867.39119,1.00593,1.2634,1.00593.30238,0,.60376-.06687.90514-.08982V8.5417c-.20059.022-.34529.04491-.41315.04491-.83827,0-.83827-.45906-.83827-.81632V4.3164h1.22946V3.62282h-1.22946V2.1259l-.91711.41315V3.62282h-.9261" transform="translate(0 -0.23379)"/><path id="path78" d="M29.33267,61.16647H32.8684V41.20752H29.33267Z" transform="translate(0 -0.23379)" fill="#f7d100"/><path id="path80" d="M29.33267,41.20752H32.8684V21.17871H29.33267Z" transform="translate(0 -0.23379)" fill="#e3001b"/><path id="path82" d="M29.33267,21.24857H32.8684V1.28962H29.33267Z" transform="translate(0 -0.23379)"/><path id="path86" d="M9.1422,21.24757m.001.008-.002.002,0-.014M18.30336,4.65969a3.3417,3.3417,0,0,0-1.1177-2.29029l-.20957.04789a2.97752,2.97752,0,0,1,.85524,1.8482c0,1.6486-1.74341,3.08266-3.73233,3.1096.015.16965.014.31834.014.44708a5.57982,5.57982,0,0,1-.0429.69058A4.248,4.248,0,0,0,18.30336,4.65969Zm-3.1126,13.65492a11.78057,11.78057,0,0,1-1.42707-.1008c-.16266,0-.31734.016-.31734.24649a.84859.84859,0,0,0,.34229.51793,1.36215,1.36215,0,0,1,1.04086-.27443,5.88442,5.88442,0,0,1,.69656.06486,3.631,3.631,0,0,0-.0479.56983c0,.13373.005.28841.005.45207a1.54787,1.54787,0,0,1-.28241,1.09774.58249.58249,0,0,0,.22554.0499c.36924,0,.463-.18861.463-1.14664,0-.2894.024-.55685.024-.62572a2.54324,2.54324,0,0,1,1.04086,1.60271.73619.73619,0,0,0,.36625-.53191c0-.34529-.57781-.86023-1.19055-1.482a2.27319,2.27319,0,0,1,.5-.08582,1.38423,1.38423,0,0,1,1.09775.34728,1.0892,1.0892,0,0,0,.16366-.55586c0-.28941-.16566-.27843-.28642-.27843a10.76476,10.76476,0,0,0-1.5997.15369,13.61178,13.61178,0,0,1-1.48695-2.39807.6744.6744,0,0,0-.26844-.0509c-.25248,0-.31835.17664-.38421.41814A8.04419,8.04419,0,0,1,15.19076,18.31461ZM9.43859,16.30474c-.06586-.24151-.12973-.41814-.38221-.41814a.65064.65064,0,0,0-.26745.0509A13.65411,13.65411,0,0,1,7.299,18.33556a10.72507,10.72507,0,0,0-1.59871-.15369c-.12076,0-.28641-.011-.28641.27843a1.07079,1.07079,0,0,0,.16466.55586,1.38058,1.38058,0,0,1,1.09675-.34728,2.26226,2.26226,0,0,1,.499.08582c-.61274.62172-1.19055,1.13667-1.19055,1.482a.7402.7402,0,0,0,.36725.53191A2.54323,2.54323,0,0,1,7.3918,19.16585c0,.06886.024.33631.024.62572,0,.958.0948,1.14664.463,1.14664a.58676.58676,0,0,0,.22554-.0499,1.54786,1.54786,0,0,1-.28242-1.09774c0-.16366.007-.31834.007-.45207a3.7334,3.7334,0,0,0-.0489-.56983,5.822,5.822,0,0,1,.69657-.06486,1.36358,1.36358,0,0,1,1.03986.27443.85042.85042,0,0,0,.34329-.51793c0-.23053-.15468-.24649-.31934-.24649a11.75333,11.75333,0,0,1-1.42607.1008A8.09294,8.09294,0,0,1,9.43859,16.30474ZM5.47474,4.2655A2.9823,2.9823,0,0,1,6.329,2.4173L6.12141,2.3694a3.32956,3.32956,0,0,0-1.1187,2.29029A4.25081,4.25081,0,0,0,9.2849,8.51376,6.02645,6.02645,0,0,1,9.246,7.82219c0-.15369.006-.30438.02-.44509C7.25209,7.3771,5.47474,5.93007,5.47474,4.2655Zm6.12141-1.53285a2.11237,2.11237,0,0,0,.2435-.83429c0-.86323-.71653-1.27438-1.67455-1.27438-.492,0-.74048.15867-.74048.31834a1.89415,1.89415,0,0,0,.22554.61873,2.11483,2.11483,0,0,1,.6816-.17165C10.99039,1.38942,11.48139,2.1259,11.59615,2.73265Zm.471-1.10373c.55985.10878.94206-.60674.40916-.73449.07384.23652-.28442.40317-.28442.40317s-.13672-.31635.04092-.497c-.32633-.15868-.40816.03492-.41515.23551A1.3571,1.3571,0,0,1,12.06718,1.62892Zm1.81327,4.90292c.08881.006.17464.011.26445.011,1.57576,0,3.14054-1.0199,3.14054-2.32721a2.84032,2.84032,0,0,0-.70056-1.72346,3.81041,3.81041,0,0,1-.59777.05888c-.71354,0-1.10174-.38221-1.12968-.75844A.62558.62558,0,0,1,15.56,1.19781c.66363,0,1.87215.62072,3.09064.62072a2.361,2.361,0,0,1-.55985.27643A4.42063,4.42063,0,0,1,19.464,4.52l1.86716,2.98785a8.62841,8.62841,0,0,0,1.97494,2.24539A2.82111,2.82111,0,0,1,20.2763,8.16648l-.956-1.53085a4.22892,4.22892,0,0,1-.26047.57981l1.90209,3.04673a8.60224,8.60224,0,0,0,1.97594,2.24638,2.81911,2.81911,0,0,1-3.02877-1.58673L18.27042,8.2992c-.12274.12973-.25148.25747-.3882.38022l2.31224,3.69939A8.56947,8.56947,0,0,0,22.1704,14.6242a2.82051,2.82051,0,0,1-3.03076-1.58774L16.88727,9.43087c-.14969.09381-.30138.18362-.45706.27045l2.74935,4.40095a8.54743,8.54743,0,0,0,1.97594,2.24538,2.81688,2.81688,0,0,1-3.02877-1.58773l-2.83218-4.53168c-.16765.06487-.3383.12575-.51095.18063L17.984,15.53233a8.71378,8.71378,0,0,0,1.97394,2.24438A2.81817,2.81817,0,0,1,16.93018,16.189l-3.411-5.45977-.10478.019a2.86289,2.86289,0,0,0-.15668.84625,6.14685,6.14685,0,0,0,2.4769,4.399,1.10028,1.10028,0,0,1-.37622.05189,3.6101,3.6101,0,0,1-.5858-.03792A14.062,14.062,0,0,0,16.09789,18.113a10.01428,10.01428,0,0,1,1.5069-.14171c.44109,0,.49.25847.49.489a1.16769,1.16769,0,0,1-.40417.89815c-.08184-.20657-.24649-.48-1.06082-.48l-.08283.004c.23951.26545.984.86821.984,1.35421a.88969.88969,0,0,1-.81732.80235.94375.94375,0,0,0,.024-.27045,2.08805,2.08805,0,0,0-.64168-1.17359,1.55217,1.55217,0,0,1,.004.1966c0,.92909-.08282,1.35621-.67361,1.35621a.94819.94819,0,0,1-.55786-.20558,1.27006,1.27006,0,0,0,.40417-1.15163l-.004-.45207a2.662,2.662,0,0,1,.019-.3902,2.60827,2.60827,0,0,0-.45805-.02893s-.83928-.06587-1.04086.37024c-.22653-.20757-.55585-.502-.55585-.8293,0-.21456.10079-.45706.53091-.45706.16366,0,.67861.1008,1.10872.1008a10.89412,10.89412,0,0,0-1.07478-1.5568,1.24423,1.24423,0,0,1-.40816.6287,4.40793,4.40793,0,0,0-.78638-2.10966,10.30985,10.30985,0,0,0-.15069,1.83622c0,2.30925.55586,4.01474,1.73443,4.34107a1.00475,1.00475,0,0,1-.81433.507c-.43112,0-.66563-.488-.90514-.94805-.12475.3403-.469,1.17159-.81533,1.17159-.34529,0-.68958-.83129-.81333-1.17159-.24051.46005-.475.94805-.90713.94805a1.00138,1.00138,0,0,1-.81233-.507c1.17758-.32633,1.73343-2.03183,1.73343-4.34107a10.30972,10.30972,0,0,0-.15069-1.83622,4.41139,4.41139,0,0,0-.78738,2.10966,1.24848,1.24848,0,0,1-.40716-.6287A11.00489,11.00489,0,0,0,8.43166,18.104c.4321,0,.94505-.1008,1.10872-.1008.43211,0,.5339.2425.5339.45706,0,.32733-.33132.62172-.55785.8293-.20258-.4361-1.03986-.37024-1.03986-.37024a2.61358,2.61358,0,0,0-.45905.02893,2.41171,2.41171,0,0,1,.019.3902l-.003.45207a1.26945,1.26945,0,0,0,.40317,1.15163.94509.94509,0,0,1-.55786.20558c-.58979,0-.67461-.42712-.67461-1.35621a1.53831,1.53831,0,0,1,.005-.1966,2.088,2.088,0,0,0-.64168,1.17359.97547.97547,0,0,0,.023.27045.89045.89045,0,0,1-.81632-.80235c0-.486.74547-1.08876.983-1.35421l-.08183-.004c-.81433,0-.98.27343-1.06082.48a1.16442,1.16442,0,0,1-.40417-.89815c0-.23053.0489-.489.49-.489a9.9782,9.9782,0,0,1,1.5069.14171,14.14287,14.14287,0,0,0,1.32527-2.10566,3.5955,3.5955,0,0,1-.5848.03792,1.089,1.089,0,0,1-.37623-.05189,6.14773,6.14773,0,0,0,2.47491-4.399,2.80012,2.80012,0,0,0-.15668-.84625l-.10278-.019L6.37588,16.189a2.82,2.82,0,0,1-3.02877,1.58773,8.68614,8.68614,0,0,0,1.97294-2.24438l3.20141-5.12347c-.17264-.05488-.34229-.11576-.51095-.18063L5.17935,14.75992a2.8192,2.8192,0,0,1-3.02877,1.58773,8.55073,8.55073,0,0,0,1.97394-2.24538L6.87586,9.70132c-.15768-.08682-.30937-.17663-.45806-.27045L4.16443,13.03646A2.81805,2.81805,0,0,1,1.13566,14.6242,8.56161,8.56161,0,0,0,3.1106,12.37881L5.42185,8.67942c-.13572-.12274-.26546-.25049-.3872-.38022L3.397,10.92181A2.82034,2.82034,0,0,1,.36724,12.50854a8.62139,8.62139,0,0,0,1.97594-2.24638L4.24527,7.21543a4.34561,4.34561,0,0,1-.25947-.57981l-.957,1.53085A2.82046,2.82046,0,0,1,0,9.75321,8.64773,8.64773,0,0,0,1.97494,7.50783L3.8411,4.52A4.42062,4.42062,0,0,1,5.21428,2.095a2.401,2.401,0,0,1-.55985-.27643,29.79083,29.79083,0,0,0,3.08964-.61972.6238.6238,0,0,1,.70255.59378c-.02694.37623-.41514.75844-1.12968.75844a3.81015,3.81015,0,0,1-.59677-.05888A2.84516,2.84516,0,0,0,6.02062,4.2156c0,1.30731,1.56279,2.32721,3.14154,2.32721.08781,0,.17364-.005.26245-.011a7.13715,7.13715,0,0,1,1.5089-2.433c-.63669-.23153-1.34723-.83628-1.34723-1.11072a10.72945,10.72945,0,0,1,1.42805.37124.1519.1519,0,0,0,.08184,0,.55924.55924,0,0,0,.27244-.28442,8.25384,8.25384,0,0,1-1.42007-.31136c-.39718-.14571-.59877-.40916-.59877-.509a6.67229,6.67229,0,0,0,1.32327.23352,3.46742,3.46742,0,0,0,.57482-.04291c-.18362-.4371-.52791-.80634-.91611-.80634a2.239,2.239,0,0,0-.78239.24051A2.22091,2.22091,0,0,1,9.17613.94233c0-.26147.25846-.56883.989-.56883a3.13637,3.13637,0,0,1,.57282.0509,2.05485,2.05485,0,0,1,.3912.10977.22827.22827,0,0,1-.016-.0928c0-.1008.09181-.20757.43511-.20757.60076,0,1.21749.1976,1.97294.1976A1.14076,1.14076,0,0,0,13.96328.3765a1.82537,1.82537,0,0,1-.45606.55286,1.92074,1.92074,0,0,1,.43311,1.19953c0,1.02889-.6786,1.87714-.6786,2.917a3.54845,3.54845,0,0,0,.61873,1.48594" transform="translate(0 -0.23379)"/></svg>