<?xml version="1.0" encoding="UTF-8"?>
<svg xmlns="http://www.w3.org/2000/svg" xmlns:xlink="http://www.w3.org/1999/xlink" version="1.2" >
<font id="BundesSansCondWeb-Regular">
<font-face  font-family="BundesSans Cond Web" units-per-em="1000" ascent="775" descent="-225" font-style="normal" font-weight="400" font-stretch="condensed" cap-height="690" x-height="480" underline-position="-100" underline-thickness="63" />
<missing-glyph  horiz-adv-x="464" d="M420 700 L420 0 L44 0 L44 700 L420 700 Z M369 650 L95 650 L95 50 L369 50 L369 650 Z " />
<glyph glyph-name=".null" d="" />
<glyph glyph-name="nonmarkingreturn" unicode="&#xd;" horiz-adv-x="212" d="" />
<glyph glyph-name="space" unicode="&#x20;" horiz-adv-x="212" d="" />
<glyph glyph-name="uni200B" unicode="&#x200b;" d="" />
<glyph glyph-name="uni00A0" unicode="&#xa0;" horiz-adv-x="212" d="" />
<glyph glyph-name="A" unicode="A" horiz-adv-x="530" d="M524 0 L428 0 L366 221 L157 221 L94 0 L6 0 L231 690 L299 690 L524 0 Z M347 287 L293 476 Q282 514 274 548.5 Q266 583 265 606 L263 606 Q262 583 253.5 549.5 Q245 516 234 478 L177 287 L347 287 Z " />
<glyph glyph-name="Aacute" unicode="&#xc1;" horiz-adv-x="530" d="M524 0 L428 0 L366 221 L157 221 L94 0 L6 0 L231 690 L299 690 L524 0 Z M347 287 L293 476 Q282 514 274 548.5 Q266 583 265 606 L263 606 Q262 583 253.5 549.5 Q245 516 234 478 L177 287 L347 287 Z M385 859 L282 741 L205 741 L285 861 L385 861 L385 859 Z " />
<glyph glyph-name="Abreve" unicode="&#x102;" horiz-adv-x="530" d="M524 0 L428 0 L366 221 L157 221 L94 0 L6 0 L231 690 L299 690 L524 0 Z M347 287 L293 476 Q282 514 274 548.5 Q266 583 265 606 L263 606 Q262 583 253.5 549.5 Q245 516 234 478 L177 287 L347 287 Z M373 855 Q372 806 346 773.5 Q320 741 264 741 Q208 741 182.5 773.5 Q157 806 155 855 L210 855 Q210 830 224 813.5 Q238 797 264 797 Q291 797 304.5 813.5 Q318 830 318 855 L373 855 L373 855 Z " />
<glyph glyph-name="Acircumflex" unicode="&#xc2;" horiz-adv-x="530" d="M524 0 L428 0 L366 221 L157 221 L94 0 L6 0 L231 690 L299 690 L524 0 Z M347 287 L293 476 Q282 514 274 548.5 Q266 583 265 606 L263 606 Q262 583 253.5 549.5 Q245 516 234 478 L177 287 L347 287 Z M217 862 L311 862 L382 744 L318 744 L265 817 L263 817 L210 744 L147 744 L217 862 Z " />
<glyph glyph-name="Adieresis" unicode="&#xc4;" horiz-adv-x="530" d="M524 0 L428 0 L366 221 L157 221 L94 0 L6 0 L231 690 L299 690 L524 0 Z M347 287 L293 476 Q282 514 274 548.5 Q266 583 265 606 L263 606 Q262 583 253.5 549.5 Q245 516 234 478 L177 287 L347 287 Z M227 792 Q227 769 213 756.5 Q199 744 178 744 Q157 744 143 756.5 Q129 769 129 792 Q129 815 143 827.5 Q157 840 178 840 Q199 840 213 827.5 Q227 815 227 792 Z M399 792 Q399 769 385 756.5 Q371 744 350 744 Q329 744 315 756.5 Q301 769 301 792 Q301 815 315 827.5 Q329 840 350 840 Q371 840 385 827.5 Q399 815 399 792 Z " />
<glyph glyph-name="AE" unicode="&#xc6;" horiz-adv-x="689" d="M628 621 L326 621 L399 383 L608 383 L608 314 L420 314 L494 72 L653 72 L648 0 L428 0 L366 221 L157 221 L94 0 L6 0 L231 690 L634 690 L628 621 Z M347 287 L293 477 Q282 515 273.5 549 Q265 583 265 606 L262 606 Q262 583 253.5 549.5 Q245 516 234 478 L177 287 L347 287 Z " />
<glyph glyph-name="AEacute" unicode="&#x1fc;" horiz-adv-x="689" d="M628 621 L326 621 L399 383 L608 383 L608 314 L420 314 L494 72 L653 72 L648 0 L428 0 L366 221 L157 221 L94 0 L6 0 L231 690 L634 690 L628 621 Z M347 287 L293 477 Q282 515 273.5 549 Q265 583 265 606 L262 606 Q262 583 253.5 549.5 Q245 516 234 478 L177 287 L347 287 Z M529 859 L426 741 L349 741 L429 861 L529 861 L529 859 Z " />
<glyph glyph-name="Agrave" unicode="&#xc0;" horiz-adv-x="530" d="M524 0 L428 0 L366 221 L157 221 L94 0 L6 0 L231 690 L299 690 L524 0 Z M347 287 L293 476 Q282 514 274 548.5 Q266 583 265 606 L263 606 Q262 583 253.5 549.5 Q245 516 234 478 L177 287 L347 287 Z M246 741 L144 859 L144 861 L242 861 L324 741 L246 741 Z " />
<glyph glyph-name="Amacron" unicode="&#x100;" horiz-adv-x="530" d="M524 0 L428 0 L366 221 L157 221 L94 0 L6 0 L231 690 L299 690 L524 0 Z M347 287 L293 476 Q282 514 274 548.5 Q266 583 265 606 L263 606 Q262 583 253.5 549.5 Q245 516 234 478 L177 287 L347 287 Z M363 750 L165 750 L165 814 L363 814 L363 750 Z " />
<glyph glyph-name="Aogonek" unicode="&#x104;" horiz-adv-x="530" d="M513 -193 Q508 -197 491.5 -204.5 Q475 -212 447 -212 Q402 -212 379 -187.5 Q356 -163 356 -119 Q356 -97 362.5 -77.5 Q369 -58 379 -41.5 Q389 -25 401 -11.5 Q413 2 424 12 L366 221 L157 221 L94 0 L6 0 L231 690 L299 690 L524 0 L476 0 Q462 -14 446.5 -38.5 Q431 -63 431 -98 Q431 -122 440.5 -131 Q450 -140 466 -140 Q478 -140 486 -137 Q494 -134 498 -132 L513 -193 Z M347 287 L293 476 Q282 514 274 548.5 Q266 583 265 606 L263 606 Q262 583 253.5 549.5 Q245 516 234 478 L177 287 L347 287 Z " />
<glyph glyph-name="Aring" unicode="&#xc5;" horiz-adv-x="530" d="M524 0 L428 0 L366 221 L157 221 L94 0 L6 0 L231 690 L299 690 L524 0 Z M347 287 L293 476 Q282 514 274 548.5 Q266 583 265 606 L263 606 Q262 583 253.5 549.5 Q245 516 234 478 L177 287 L347 287 Z M347 811 Q347 775 322.5 753.5 Q298 732 264 732 Q230 732 206 753.5 Q182 775 182 811 Q182 847 206 868.5 Q230 890 264 890 Q298 890 322.5 868.5 Q347 847 347 811 Z M301 811 Q301 829 290.5 838 Q280 847 264 847 Q249 847 238.5 838 Q228 829 228 811 Q228 793 238.5 784.5 Q249 776 264 776 Q280 776 290.5 784.5 Q301 793 301 811 Z " />
<glyph glyph-name="Aringacute" unicode="&#x1fa;" horiz-adv-x="530" d="M343 727 Q343 685 306 666 L524 0 L428 0 L366 221 L157 221 L94 0 L6 0 L223 665 Q184 682 184 727 Q184 759 206 778.5 Q228 798 264 798 Q299 798 321 778.5 Q343 759 343 727 Z M347 287 L293 476 Q282 514 274 548.5 Q266 583 265 606 L263 606 Q262 583 253.5 549.5 Q245 516 234 478 L177 287 L347 287 Z M340 855 L187 797 L187 834 L340 908 L340 855 Z M299 727 Q299 745 288.5 753.5 Q278 762 264 762 Q250 762 239 753.5 Q228 745 228 727 Q228 710 239 701.5 Q250 693 264 693 Q278 693 288.5 701.5 Q299 710 299 727 Z " />
<glyph glyph-name="Atilde" unicode="&#xc3;" horiz-adv-x="530" d="M524 0 L428 0 L366 221 L157 221 L94 0 L6 0 L231 690 L299 690 L524 0 Z M347 287 L293 476 Q282 514 274 548.5 Q266 583 265 606 L263 606 Q262 583 253.5 549.5 Q245 516 234 478 L177 287 L347 287 Z M390 837 Q388 787 369 764 Q350 741 316 741 Q298 741 284 747.5 Q270 754 258.5 762.5 Q247 771 235.5 777.5 Q224 784 211 784 Q185 784 183 744 L138 744 Q139 794 158 817.5 Q177 841 211 841 Q229 841 243 834.5 Q257 828 269 819.5 Q281 811 292 804.5 Q303 798 317 798 Q343 798 345 837 L390 837 L390 837 Z " />
<glyph glyph-name="B" unicode="B" horiz-adv-x="504" d="M441 514 Q441 478 432 451 Q423 424 407.5 404.5 Q392 385 371.5 373 Q351 361 329 355 L329 353 Q356 348 379.5 334 Q403 320 420.5 299 Q438 278 448.5 249.5 Q459 221 459 187 Q459 146 445 112 Q431 78 401.5 53 Q372 28 327 14 Q282 0 220 0 L79 0 L79 690 L212 690 Q273 690 316.5 677.5 Q360 665 388 642 Q416 619 428.5 586.5 Q441 554 441 514 Z M353 511 Q353 559 319 590 Q285 621 212 621 L166 621 L166 383 L211 383 Q281 383 317 417 Q353 451 353 511 Z M366 193 Q366 249 329.5 281.5 Q293 314 225 314 L166 314 L166 72 L220 72 Q297 72 331.5 102.5 Q366 133 366 193 Z " />
<glyph glyph-name="C" unicode="C" horiz-adv-x="513" d="M47 345 Q47 442 71 510 Q95 578 134.5 620.5 Q174 663 224.5 682.5 Q275 702 328 702 Q366 702 393.5 694 Q421 686 440.5 675.5 Q460 665 472 653.5 Q484 642 491 635 L444 577 Q439 582 430 591 Q421 600 407.5 608.5 Q394 617 375 623.5 Q356 630 331 630 Q293 630 258 615 Q223 600 197 566.5 Q171 533 155.5 480 Q140 427 140 351 Q140 272 153 217.5 Q166 163 190 128.5 Q214 94 247.5 78.5 Q281 63 322 63 Q351 63 372.5 69 Q394 75 410 83 Q426 91 436 99.5 Q446 108 452 114 L485 55 Q478 48 465.5 36.5 Q453 25 432 14.5 Q411 4 382 -4 Q353 -12 313 -12 Q253 -12 204 7.5 Q155 27 120 69.5 Q85 112 66 180 Q47 248 47 345 Z " />
<glyph glyph-name="Cacute" unicode="&#x106;" horiz-adv-x="513" d="M47 345 Q47 442 71 510 Q95 578 134.5 620.5 Q174 663 224.5 682.5 Q275 702 328 702 Q366 702 393.5 694 Q421 686 440.5 675.5 Q460 665 472 653.5 Q484 642 491 635 L444 577 Q439 582 430 591 Q421 600 407.5 608.5 Q394 617 375 623.5 Q356 630 331 630 Q293 630 258 615 Q223 600 197 566.5 Q171 533 155.5 480 Q140 427 140 351 Q140 272 153 217.5 Q166 163 190 128.5 Q214 94 247.5 78.5 Q281 63 322 63 Q351 63 372.5 69 Q394 75 410 83 Q426 91 436 99.5 Q446 108 452 114 L485 55 Q478 48 465.5 36.5 Q453 25 432 14.5 Q411 4 382 -4 Q353 -12 313 -12 Q253 -12 204 7.5 Q155 27 120 69.5 Q85 112 66 180 Q47 248 47 345 Z M435 859 L332 741 L255 741 L335 861 L435 861 L435 859 Z " />
<glyph glyph-name="Ccaron" unicode="&#x10c;" horiz-adv-x="513" d="M47 345 Q47 442 71 510 Q95 578 134.5 620.5 Q174 663 224.5 682.5 Q275 702 328 702 Q366 702 393.5 694 Q421 686 440.5 675.5 Q460 665 472 653.5 Q484 642 491 635 L444 577 Q439 582 430 591 Q421 600 407.5 608.5 Q394 617 375 623.5 Q356 630 331 630 Q293 630 258 615 Q223 600 197 566.5 Q171 533 155.5 480 Q140 427 140 351 Q140 272 153 217.5 Q166 163 190 128.5 Q214 94 247.5 78.5 Q281 63 322 63 Q351 63 372.5 69 Q394 75 410 83 Q426 91 436 99.5 Q446 108 452 114 L485 55 Q478 48 465.5 36.5 Q453 25 432 14.5 Q411 4 382 -4 Q353 -12 313 -12 Q253 -12 204 7.5 Q155 27 120 69.5 Q85 112 66 180 Q47 248 47 345 Z M361 747 L267 747 L196 865 L260 865 L313 792 L315 792 L368 865 L431 865 L361 747 Z " />
<glyph glyph-name="Ccedilla" unicode="&#xc7;" horiz-adv-x="513" d="M380 -127 Q380 -165 354.5 -186.5 Q329 -208 282 -208 Q259 -208 245 -203.5 Q231 -199 221 -194 L221 -150 Q229 -155 241 -158 Q253 -161 269 -161 Q315 -161 315 -126 Q315 -83 244 -83 L241 -80 L274 -10 Q222 -4 180 18.5 Q138 41 108.5 84 Q79 127 63 191.5 Q47 256 47 345 Q47 442 71 510 Q95 578 134.5 620.5 Q174 663 224.5 682.5 Q275 702 328 702 Q366 702 393.5 694 Q421 686 440.5 675.5 Q460 665 472 653.5 Q484 642 491 635 L444 577 Q439 582 430 591 Q421 600 407.5 608.5 Q394 617 375 623.5 Q356 630 331 630 Q293 630 258 615 Q223 600 197 566.5 Q171 533 155.5 480 Q140 427 140 351 Q140 272 153 217.5 Q166 163 190 128.5 Q214 94 247.5 78.5 Q281 63 322 63 Q351 63 372.5 69 Q394 75 410 83 Q426 91 436 99.5 Q446 108 452 114 L485 55 Q478 48 466 37 Q454 26 434.5 15.5 Q415 5 387.5 -3 Q360 -11 323 -12 L305 -55 Q343 -57 361.5 -77 Q380 -97 380 -127 Z " />
<glyph glyph-name="Ccircumflex" unicode="&#x108;" horiz-adv-x="513" d="M47 345 Q47 442 71 510 Q95 578 134.5 620.5 Q174 663 224.5 682.5 Q275 702 328 702 Q366 702 393.5 694 Q421 686 440.5 675.5 Q460 665 472 653.5 Q484 642 491 635 L444 577 Q439 582 430 591 Q421 600 407.5 608.5 Q394 617 375 623.5 Q356 630 331 630 Q293 630 258 615 Q223 600 197 566.5 Q171 533 155.5 480 Q140 427 140 351 Q140 272 153 217.5 Q166 163 190 128.5 Q214 94 247.5 78.5 Q281 63 322 63 Q351 63 372.5 69 Q394 75 410 83 Q426 91 436 99.5 Q446 108 452 114 L485 55 Q478 48 465.5 36.5 Q453 25 432 14.5 Q411 4 382 -4 Q353 -12 313 -12 Q253 -12 204 7.5 Q155 27 120 69.5 Q85 112 66 180 Q47 248 47 345 Z M267 862 L361 862 L432 744 L368 744 L315 817 L313 817 L260 744 L197 744 L267 862 Z " />
<glyph glyph-name="Cdotaccent" unicode="&#x10a;" horiz-adv-x="513" d="M47 345 Q47 442 71 510 Q95 578 134.5 620.5 Q174 663 224.5 682.5 Q275 702 328 702 Q366 702 393.5 694 Q421 686 440.5 675.5 Q460 665 472 653.5 Q484 642 491 635 L444 577 Q439 582 430 591 Q421 600 407.5 608.5 Q394 617 375 623.5 Q356 630 331 630 Q293 630 258 615 Q223 600 197 566.5 Q171 533 155.5 480 Q140 427 140 351 Q140 272 153 217.5 Q166 163 190 128.5 Q214 94 247.5 78.5 Q281 63 322 63 Q351 63 372.5 69 Q394 75 410 83 Q426 91 436 99.5 Q446 108 452 114 L485 55 Q478 48 465.5 36.5 Q453 25 432 14.5 Q411 4 382 -4 Q353 -12 313 -12 Q253 -12 204 7.5 Q155 27 120 69.5 Q85 112 66 180 Q47 248 47 345 Z M365 789 Q365 765 350 752 Q335 739 313 739 Q291 739 276.5 752 Q262 765 262 789 Q262 814 276.5 827 Q291 840 313 840 Q335 840 350 827 Q365 814 365 789 Z " />
<glyph glyph-name="D" unicode="D" horiz-adv-x="588" d="M79 0 L79 690 L209 690 Q293 690 355.5 672 Q418 654 459.5 615 Q501 576 521 513.5 Q541 451 541 362 Q541 267 517 198.5 Q493 130 449 86 Q405 42 341.5 21 Q278 0 199 0 L79 0 Z M166 621 L166 72 L199 72 Q259 72 305 87.5 Q351 103 383 137.5 Q415 172 431.5 227.5 Q448 283 448 362 Q448 435 432 484.5 Q416 534 385.5 564.5 Q355 595 310.5 608 Q266 621 209 621 L166 621 Z " />
<glyph glyph-name="Dcaron" unicode="&#x10e;" horiz-adv-x="588" d="M79 0 L79 690 L209 690 Q293 690 355.5 672 Q418 654 459.5 615 Q501 576 521 513.5 Q541 451 541 362 Q541 267 517 198.5 Q493 130 449 86 Q405 42 341.5 21 Q278 0 199 0 L79 0 Z M166 621 L166 72 L199 72 Q259 72 305 87.5 Q351 103 383 137.5 Q415 172 431.5 227.5 Q448 283 448 362 Q448 435 432 484.5 Q416 534 385.5 564.5 Q355 595 310.5 608 Q266 621 209 621 L166 621 Z M317 747 L223 747 L152 865 L216 865 L269 792 L271 792 L324 865 L387 865 L317 747 Z " />
<glyph glyph-name="Dcroat" unicode="&#x110;" horiz-adv-x="592" d="M83 0 L83 314 L22 314 L22 383 L83 383 L83 690 L213 690 Q297 690 359.5 672 Q422 654 463.5 615 Q505 576 525 513.5 Q545 451 545 362 Q545 267 521 198.5 Q497 130 453 86 Q409 42 345.5 21 Q282 0 203 0 L83 0 Z M170 621 L170 383 L316 383 L316 314 L170 314 L170 72 L203 72 Q263 72 309 87.5 Q355 103 387 137.5 Q419 172 435.5 227.5 Q452 283 452 362 Q452 435 436 484.5 Q420 534 389.5 564.5 Q359 595 314.5 608 Q270 621 213 621 L170 621 Z " />
<glyph glyph-name="Eth" unicode="&#xd0;" horiz-adv-x="592" d="M83 0 L83 314 L22 314 L22 383 L83 383 L83 690 L213 690 Q297 690 359.5 672 Q422 654 463.5 615 Q505 576 525 513.5 Q545 451 545 362 Q545 267 521 198.5 Q497 130 453 86 Q409 42 345.5 21 Q282 0 203 0 L83 0 Z M170 621 L170 383 L316 383 L316 314 L170 314 L170 72 L203 72 Q263 72 309 87.5 Q355 103 387 137.5 Q419 172 435.5 227.5 Q452 283 452 362 Q452 435 436 484.5 Q420 534 389.5 564.5 Q359 595 314.5 608 Q270 621 213 621 L170 621 Z " />
<glyph glyph-name="E" unicode="E" horiz-adv-x="474" d="M412 621 L166 621 L166 383 L392 383 L392 314 L166 314 L166 72 L437 72 L432 0 L79 0 L79 690 L418 690 L412 621 Z " />
<glyph glyph-name="Eacute" unicode="&#xc9;" horiz-adv-x="474" d="M412 621 L166 621 L166 383 L392 383 L392 314 L166 314 L166 72 L437 72 L432 0 L79 0 L79 690 L418 690 L412 621 Z M370 859 L267 741 L190 741 L270 861 L370 861 L370 859 Z " />
<glyph glyph-name="Ebreve" unicode="&#x114;" horiz-adv-x="474" d="M412 621 L166 621 L166 383 L392 383 L392 314 L166 314 L166 72 L437 72 L432 0 L79 0 L79 690 L418 690 L412 621 Z M358 855 Q357 806 331 773.5 Q305 741 249 741 Q193 741 167.5 773.5 Q142 806 140 855 L195 855 Q195 830 209 813.5 Q223 797 249 797 Q276 797 289.5 813.5 Q303 830 303 855 L358 855 L358 855 Z " />
<glyph glyph-name="Ecaron" unicode="&#x11a;" horiz-adv-x="474" d="M412 621 L166 621 L166 383 L392 383 L392 314 L166 314 L166 72 L437 72 L432 0 L79 0 L79 690 L418 690 L412 621 Z M296 747 L202 747 L131 865 L195 865 L248 792 L250 792 L303 865 L366 865 L296 747 Z " />
<glyph glyph-name="Ecircumflex" unicode="&#xca;" horiz-adv-x="474" d="M412 621 L166 621 L166 383 L392 383 L392 314 L166 314 L166 72 L437 72 L432 0 L79 0 L79 690 L418 690 L412 621 Z M202 862 L296 862 L367 744 L303 744 L250 817 L248 817 L195 744 L132 744 L202 862 Z " />
<glyph glyph-name="Edieresis" unicode="&#xcb;" horiz-adv-x="474" d="M412 621 L166 621 L166 383 L392 383 L392 314 L166 314 L166 72 L437 72 L432 0 L79 0 L79 690 L418 690 L412 621 Z M212 792 Q212 769 198 756.5 Q184 744 163 744 Q142 744 128 756.5 Q114 769 114 792 Q114 815 128 827.5 Q142 840 163 840 Q184 840 198 827.5 Q212 815 212 792 Z M384 792 Q384 769 370 756.5 Q356 744 335 744 Q314 744 300 756.5 Q286 769 286 792 Q286 815 300 827.5 Q314 840 335 840 Q356 840 370 827.5 Q384 815 384 792 Z " />
<glyph glyph-name="Edotaccent" unicode="&#x116;" horiz-adv-x="474" d="M412 621 L166 621 L166 383 L392 383 L392 314 L166 314 L166 72 L437 72 L432 0 L79 0 L79 690 L418 690 L412 621 Z M300 789 Q300 765 285 752 Q270 739 248 739 Q226 739 211.5 752 Q197 765 197 789 Q197 814 211.5 827 Q226 840 248 840 Q270 840 285 827 Q300 814 300 789 Z " />
<glyph glyph-name="Egrave" unicode="&#xc8;" horiz-adv-x="474" d="M412 621 L166 621 L166 383 L392 383 L392 314 L166 314 L166 72 L437 72 L432 0 L79 0 L79 690 L418 690 L412 621 Z M231 741 L129 859 L129 861 L227 861 L309 741 L231 741 Z " />
<glyph glyph-name="Emacron" unicode="&#x112;" horiz-adv-x="474" d="M412 621 L166 621 L166 383 L392 383 L392 314 L166 314 L166 72 L437 72 L432 0 L79 0 L79 690 L418 690 L412 621 Z M348 750 L150 750 L150 814 L348 814 L348 750 Z " />
<glyph glyph-name="Eogonek" unicode="&#x118;" horiz-adv-x="474" d="M410 -193 Q405 -197 388.5 -204.5 Q372 -212 344 -212 Q299 -212 276 -187.5 Q253 -163 253 -119 Q253 -81 271 -50.5 Q289 -20 309 0 L79 0 L79 690 L418 690 L412 621 L166 621 L166 383 L392 383 L392 314 L166 314 L166 72 L437 72 L432 0 L373 0 Q359 -14 343.5 -38.5 Q328 -63 328 -98 Q328 -122 337.5 -131 Q347 -140 363 -140 Q375 -140 383 -137 Q391 -134 395 -132 L410 -193 Z " />
<glyph glyph-name="uni018F" unicode="&#x18f;" horiz-adv-x="556" d="M507 342 Q507 250 490.5 183.5 Q474 117 442.5 73.5 Q411 30 366 9 Q321 -12 264 -12 Q217 -12 178 2 Q139 16 111 47 Q83 78 67 126 Q51 174 51 243 Q51 281 52.5 308 Q54 335 57 357 L414 357 Q412 499 367 564.5 Q322 630 239 630 Q205 630 179.5 622.5 Q154 615 135.5 604.5 Q117 594 104.5 583 Q92 572 85 565 L46 622 Q54 629 70 642.5 Q86 656 110.5 669.5 Q135 683 168.5 692.5 Q202 702 244 702 Q304 702 353 682 Q402 662 436 619 Q470 576 488.5 507.5 Q507 439 507 342 Z M269 63 Q335 63 372 121 Q409 179 413 285 L138 285 Q137 270 137 262 Q137 254 137 243 Q137 153 171 108 Q205 63 269 63 Z " />
<glyph glyph-name="F" unicode="F" horiz-adv-x="446" d="M79 0 L79 690 L418 690 L412 621 L166 621 L166 366 L393 366 L393 297 L166 297 L166 0 L79 0 Z " />
<glyph glyph-name="G" unicode="G" horiz-adv-x="560" d="M503 46 Q496 40 482 30.5 Q468 21 445.5 11.5 Q423 2 392 -5 Q361 -12 321 -12 Q262 -12 211.5 6.5 Q161 25 124.5 67 Q88 109 67.5 178.5 Q47 248 47 350 Q47 447 72.5 514 Q98 581 139.5 623 Q181 665 233.5 683.5 Q286 702 341 702 Q380 702 407.5 695 Q435 688 454.5 678 Q474 668 486 658 Q498 648 506 641 L465 580 Q460 585 450 593.5 Q440 602 424.5 610 Q409 618 387.5 624 Q366 630 337 630 Q298 630 262.5 616 Q227 602 200 569 Q173 536 156.5 482.5 Q140 429 140 350 Q140 272 152 217.5 Q164 163 188 128.5 Q212 94 247 78.5 Q282 63 329 63 Q355 63 378 68 Q401 73 419 80 L419 281 L309 281 L309 350 L503 350 L503 46 Z " />
<glyph glyph-name="Gbreve" unicode="&#x11e;" horiz-adv-x="560" d="M503 46 Q496 40 482 30.5 Q468 21 445.5 11.5 Q423 2 392 -5 Q361 -12 321 -12 Q262 -12 211.5 6.5 Q161 25 124.5 67 Q88 109 67.5 178.5 Q47 248 47 350 Q47 447 72.5 514 Q98 581 139.5 623 Q181 665 233.5 683.5 Q286 702 341 702 Q380 702 407.5 695 Q435 688 454.5 678 Q474 668 486 658 Q498 648 506 641 L465 580 Q460 585 450 593.5 Q440 602 424.5 610 Q409 618 387.5 624 Q366 630 337 630 Q298 630 262.5 616 Q227 602 200 569 Q173 536 156.5 482.5 Q140 429 140 350 Q140 272 152 217.5 Q164 163 188 128.5 Q212 94 247 78.5 Q282 63 329 63 Q355 63 378 68 Q401 73 419 80 L419 281 L309 281 L309 350 L503 350 L503 46 Z M428 855 Q427 806 401 773.5 Q375 741 319 741 Q263 741 237.5 773.5 Q212 806 210 855 L265 855 Q265 830 279 813.5 Q293 797 319 797 Q346 797 359.5 813.5 Q373 830 373 855 L428 855 L428 855 Z " />
<glyph glyph-name="Gcircumflex" unicode="&#x11c;" horiz-adv-x="560" d="M503 46 Q496 40 482 30.5 Q468 21 445.5 11.5 Q423 2 392 -5 Q361 -12 321 -12 Q262 -12 211.5 6.5 Q161 25 124.5 67 Q88 109 67.5 178.5 Q47 248 47 350 Q47 447 72.5 514 Q98 581 139.5 623 Q181 665 233.5 683.5 Q286 702 341 702 Q380 702 407.5 695 Q435 688 454.5 678 Q474 668 486 658 Q498 648 506 641 L465 580 Q460 585 450 593.5 Q440 602 424.5 610 Q409 618 387.5 624 Q366 630 337 630 Q298 630 262.5 616 Q227 602 200 569 Q173 536 156.5 482.5 Q140 429 140 350 Q140 272 152 217.5 Q164 163 188 128.5 Q212 94 247 78.5 Q282 63 329 63 Q355 63 378 68 Q401 73 419 80 L419 281 L309 281 L309 350 L503 350 L503 46 Z M272 862 L366 862 L437 744 L373 744 L320 817 L318 817 L265 744 L202 744 L272 862 Z " />
<glyph glyph-name="Gcommaaccent" unicode="&#x122;" horiz-adv-x="560" d="M503 46 Q496 40 482 30.5 Q468 21 445.5 11.5 Q423 2 392 -5 Q361 -12 321 -12 Q262 -12 211.5 6.5 Q161 25 124.5 67 Q88 109 67.5 178.5 Q47 248 47 350 Q47 447 72.5 514 Q98 581 139.5 623 Q181 665 233.5 683.5 Q286 702 341 702 Q380 702 407.5 695 Q435 688 454.5 678 Q474 668 486 658 Q498 648 506 641 L465 580 Q460 585 450 593.5 Q440 602 424.5 610 Q409 618 387.5 624 Q366 630 337 630 Q298 630 262.5 616 Q227 602 200 569 Q173 536 156.5 482.5 Q140 429 140 350 Q140 272 152 217.5 Q164 163 188 128.5 Q212 94 247 78.5 Q282 63 329 63 Q355 63 378 68 Q401 73 419 80 L419 281 L309 281 L309 350 L503 350 L503 46 Z M360 -115 Q360 -141 352 -159.5 Q344 -178 331 -191 Q318 -204 301.5 -212 Q285 -220 269 -225 L255 -195 Q272 -187 288.5 -173 Q305 -159 309 -131 Q290 -131 277.5 -119.5 Q265 -108 265 -85 Q265 -64 277.5 -53 Q290 -42 307 -42 Q330 -42 345 -59.5 Q360 -77 360 -115 Z " />
<glyph glyph-name="Gdotaccent" unicode="&#x120;" horiz-adv-x="560" d="M503 46 Q496 40 482 30.5 Q468 21 445.5 11.5 Q423 2 392 -5 Q361 -12 321 -12 Q262 -12 211.5 6.5 Q161 25 124.5 67 Q88 109 67.5 178.5 Q47 248 47 350 Q47 447 72.5 514 Q98 581 139.5 623 Q181 665 233.5 683.5 Q286 702 341 702 Q380 702 407.5 695 Q435 688 454.5 678 Q474 668 486 658 Q498 648 506 641 L465 580 Q460 585 450 593.5 Q440 602 424.5 610 Q409 618 387.5 624 Q366 630 337 630 Q298 630 262.5 616 Q227 602 200 569 Q173 536 156.5 482.5 Q140 429 140 350 Q140 272 152 217.5 Q164 163 188 128.5 Q212 94 247 78.5 Q282 63 329 63 Q355 63 378 68 Q401 73 419 80 L419 281 L309 281 L309 350 L503 350 L503 46 Z M370 789 Q370 765 355 752 Q340 739 318 739 Q296 739 281.5 752 Q267 765 267 789 Q267 814 281.5 827 Q296 840 318 840 Q340 840 355 827 Q370 814 370 789 Z " />
<glyph glyph-name="H" unicode="H" horiz-adv-x="617" d="M538 0 L451 0 L451 314 L166 314 L166 0 L79 0 L79 690 L166 690 L166 383 L451 383 L451 690 L538 690 L538 0 Z " />
<glyph glyph-name="Hbar" unicode="&#x126;" horiz-adv-x="625" d="M542 571 L605 571 L605 523 L542 523 L542 0 L455 0 L455 314 L170 314 L170 0 L83 0 L83 523 L20 523 L20 571 L83 571 L83 690 L170 690 L170 571 L455 571 L455 690 L542 690 L542 571 Z M455 383 L455 523 L170 523 L170 383 L455 383 Z " />
<glyph glyph-name="Hcircumflex" unicode="&#x124;" horiz-adv-x="617" d="M538 0 L451 0 L451 314 L166 314 L166 0 L79 0 L79 690 L166 690 L166 383 L451 383 L451 690 L538 690 L538 0 Z M262 862 L356 862 L427 744 L363 744 L310 817 L308 817 L255 744 L192 744 L262 862 Z " />
<glyph glyph-name="I" unicode="I" horiz-adv-x="315" d="M114 630 L41 630 L41 690 L274 690 L274 630 L201 630 L201 63 L276 63 L276 0 L39 0 L39 63 L114 63 L114 630 Z " />
<glyph glyph-name="Iacute" unicode="&#xcd;" horiz-adv-x="315" d="M114 630 L41 630 L41 690 L274 690 L274 630 L201 630 L201 63 L276 63 L276 0 L39 0 L39 63 L114 63 L114 630 Z M279 859 L176 741 L99 741 L179 861 L279 861 L279 859 Z " />
<glyph glyph-name="Ibreve" unicode="&#x12c;" horiz-adv-x="315" d="M114 630 L41 630 L41 690 L274 690 L274 630 L201 630 L201 63 L276 63 L276 0 L39 0 L39 63 L114 63 L114 630 Z M267 855 Q266 806 240 773.5 Q214 741 158 741 Q102 741 76.5 773.5 Q51 806 49 855 L104 855 Q104 830 118 813.5 Q132 797 158 797 Q185 797 198.5 813.5 Q212 830 212 855 L267 855 L267 855 Z " />
<glyph glyph-name="Icircumflex" unicode="&#xce;" horiz-adv-x="315" d="M114 630 L41 630 L41 690 L274 690 L274 630 L201 630 L201 63 L276 63 L276 0 L39 0 L39 63 L114 63 L114 630 Z M111 862 L205 862 L276 744 L212 744 L159 817 L157 817 L104 744 L41 744 L111 862 Z " />
<glyph glyph-name="Idieresis" unicode="&#xcf;" horiz-adv-x="315" d="M114 630 L41 630 L41 690 L274 690 L274 630 L201 630 L201 63 L276 63 L276 0 L39 0 L39 63 L114 63 L114 630 Z M121 792 Q121 769 107 756.5 Q93 744 72 744 Q51 744 37 756.5 Q23 769 23 792 Q23 815 37 827.5 Q51 840 72 840 Q93 840 107 827.5 Q121 815 121 792 Z M293 792 Q293 769 279 756.5 Q265 744 244 744 Q223 744 209 756.5 Q195 769 195 792 Q195 815 209 827.5 Q223 840 244 840 Q265 840 279 827.5 Q293 815 293 792 Z " />
<glyph glyph-name="Idotaccent" unicode="&#x130;" horiz-adv-x="315" d="M114 630 L41 630 L41 690 L274 690 L274 630 L201 630 L201 63 L276 63 L276 0 L39 0 L39 63 L114 63 L114 630 Z M209 789 Q209 765 194 752 Q179 739 157 739 Q135 739 120.5 752 Q106 765 106 789 Q106 814 120.5 827 Q135 840 157 840 Q179 840 194 827 Q209 814 209 789 Z " />
<glyph glyph-name="Igrave" unicode="&#xcc;" horiz-adv-x="315" d="M114 630 L41 630 L41 690 L274 690 L274 630 L201 630 L201 63 L276 63 L276 0 L39 0 L39 63 L114 63 L114 630 Z M140 741 L38 859 L38 861 L136 861 L218 741 L140 741 Z " />
<glyph glyph-name="IJ" unicode="&#x132;" horiz-adv-x="614" d="M114 630 L41 630 L41 690 L274 690 L274 630 L201 630 L201 63 L276 63 L276 0 L39 0 L39 63 L114 63 L114 630 Z M539 155 Q539 110 528 78.5 Q517 47 497.5 27.5 Q478 8 450 -0.5 Q422 -9 388 -9 Q363 -9 348 -3.5 Q333 2 326 6 L340 78 Q346 74 356.5 70 Q367 66 384 66 Q418 66 435 87 Q452 108 452 164 L452 690 L539 690 L539 155 Z " />
<glyph glyph-name="Imacron" unicode="&#x12a;" horiz-adv-x="315" d="M114 630 L41 630 L41 690 L274 690 L274 630 L201 630 L201 63 L276 63 L276 0 L39 0 L39 63 L114 63 L114 630 Z M257 750 L59 750 L59 814 L257 814 L257 750 Z " />
<glyph glyph-name="Iogonek" unicode="&#x12e;" horiz-adv-x="315" d="M266 -193 Q261 -197 244.5 -204.5 Q228 -212 200 -212 Q155 -212 132 -187.5 Q109 -163 109 -119 Q109 -81 127 -50.5 Q145 -20 165 0 L39 0 L39 63 L114 63 L114 630 L41 630 L41 690 L274 690 L274 630 L201 630 L201 63 L276 63 L276 0 L229 0 Q215 -14 199.5 -38.5 Q184 -63 184 -98 Q184 -122 193.5 -131 Q203 -140 219 -140 Q231 -140 239 -137 Q247 -134 251 -132 L266 -193 Z " />
<glyph glyph-name="Itilde" unicode="&#x128;" horiz-adv-x="315" d="M114 630 L41 630 L41 690 L274 690 L274 630 L201 630 L201 63 L276 63 L276 0 L39 0 L39 63 L114 63 L114 630 Z M284 837 Q282 787 263 764 Q244 741 210 741 Q192 741 178 747.5 Q164 754 152.5 762.5 Q141 771 129.5 777.5 Q118 784 105 784 Q79 784 77 744 L32 744 Q33 794 52 817.5 Q71 841 105 841 Q123 841 137 834.5 Q151 828 163 819.5 Q175 811 186 804.5 Q197 798 211 798 Q237 798 239 837 L284 837 L284 837 Z " />
<glyph glyph-name="J" unicode="J" horiz-adv-x="299" d="M224 155 Q224 110 213 78.5 Q202 47 182.5 27.5 Q163 8 135 -0.5 Q107 -9 73 -9 Q48 -9 33 -3.5 Q18 2 11 6 L25 78 Q31 74 41.5 70 Q52 66 69 66 Q103 66 120 87 Q137 108 137 164 L137 690 L224 690 L224 155 Z " />
<glyph glyph-name="Jcircumflex" unicode="&#x134;" horiz-adv-x="299" d="M224 155 Q224 110 213 78.5 Q202 47 182.5 27.5 Q163 8 135 -0.5 Q107 -9 73 -9 Q48 -9 33 -3.5 Q18 2 11 6 L25 78 Q31 74 41.5 70 Q52 66 69 66 Q103 66 120 87 Q137 108 137 164 L137 690 L224 690 L224 155 Z M135 862 L229 862 L300 744 L236 744 L183 817 L181 817 L128 744 L65 744 L135 862 Z " />
<glyph glyph-name="K" unicode="K" horiz-adv-x="526" d="M291 353 L525 0 L418 0 L218 314 L166 314 L166 0 L79 0 L79 690 L166 690 L166 383 L219 383 L412 690 L509 690 L291 353 Z " />
<glyph glyph-name="Kcommaaccent" unicode="&#x136;" horiz-adv-x="526" d="M291 353 L525 0 L418 0 L218 314 L166 314 L166 0 L79 0 L79 690 L166 690 L166 383 L219 383 L412 690 L509 690 L291 353 Z M326 -115 Q326 -141 318 -159.5 Q310 -178 297 -191 Q284 -204 267.5 -212 Q251 -220 235 -225 L221 -195 Q238 -187 254.5 -173 Q271 -159 275 -131 Q256 -131 243.5 -119.5 Q231 -108 231 -85 Q231 -64 243.5 -53 Q256 -42 273 -42 Q296 -42 311 -59.5 Q326 -77 326 -115 Z " />
<glyph glyph-name="L" unicode="L" horiz-adv-x="430" d="M166 690 L166 72 L418 72 L412 0 L79 0 L79 690 L166 690 Z " />
<glyph glyph-name="Lacute" unicode="&#x139;" horiz-adv-x="430" d="M166 690 L166 72 L418 72 L412 0 L79 0 L79 690 L166 690 Z M244 859 L141 741 L64 741 L144 861 L244 861 L244 859 Z " />
<glyph glyph-name="Lcaron" unicode="&#x13d;" horiz-adv-x="436" d="M166 690 L166 72 L418 72 L412 0 L79 0 L79 690 L166 690 Z M390 629 Q390 603 382 584.5 Q374 566 361 553 Q348 540 331.5 532 Q315 524 299 519 L285 549 Q302 557 318.5 571 Q335 585 339 613 Q320 613 307.5 624.5 Q295 636 295 659 Q295 680 307.5 691 Q320 702 337 702 Q360 702 375 684.5 Q390 667 390 629 Z " />
<glyph glyph-name="Lcommaaccent" unicode="&#x13b;" horiz-adv-x="430" d="M166 690 L166 72 L418 72 L412 0 L79 0 L79 690 L166 690 Z M300 -115 Q300 -141 292 -159.5 Q284 -178 271 -191 Q258 -204 241.5 -212 Q225 -220 209 -225 L195 -195 Q212 -187 228.5 -173 Q245 -159 249 -131 Q230 -131 217.5 -119.5 Q205 -108 205 -85 Q205 -64 217.5 -53 Q230 -42 247 -42 Q270 -42 285 -59.5 Q300 -77 300 -115 Z " />
<glyph glyph-name="Ldot" unicode="&#x13f;" horiz-adv-x="432" d="M362 376 Q362 353 348 339 Q334 325 314 325 Q294 325 280 339 Q266 353 266 376 Q266 399 280 413 Q294 427 314 427 Q334 427 348 413 Q362 399 362 376 Z M166 690 L166 72 L418 72 L412 0 L79 0 L79 690 L166 690 Z " />
<glyph glyph-name="Lslash" unicode="&#x141;" horiz-adv-x="437" d="M172 690 L172 370 L322 478 L322 419 L172 311 L172 72 L424 72 L418 0 L85 0 L85 249 L23 205 L23 264 L85 308 L85 690 L172 690 Z " />
<glyph glyph-name="M" unicode="M" horiz-adv-x="733" d="M654 690 L654 0 L570 0 L570 328 Q570 359 570 389 Q570 419 570.5 445 Q571 471 572 491 Q573 511 574 522 L571 522 Q566 499 550.5 447.5 Q535 396 515 337 L401 0 L332 0 L218 337 Q198 396 182.5 447.5 Q167 499 162 522 L159 522 Q160 510 161 490 Q162 470 162.5 444.5 Q163 419 163 389 Q163 359 163 328 L163 0 L79 0 L79 690 L176 690 L339 214 Q350 181 358.5 149.5 Q367 118 369 95 L371 95 Q372 118 380.5 149 Q389 180 400 213 L563 690 L654 690 Z " />
<glyph glyph-name="N" unicode="N" horiz-adv-x="615" d="M536 690 L536 0 L457 0 L225 414 Q204 452 185.5 487 Q167 522 162 544 L160 544 Q165 522 165.5 483 Q166 444 166 401 L166 0 L79 0 L79 690 L158 690 L390 281 Q411 243 429.5 208 Q448 173 453 151 L455 151 Q450 173 449.5 212 Q449 251 449 294 L449 690 L536 690 Z " />
<glyph glyph-name="Nacute" unicode="&#x143;" horiz-adv-x="615" d="M536 690 L536 0 L457 0 L225 414 Q204 452 185.5 487 Q167 522 162 544 L160 544 Q165 522 165.5 483 Q166 444 166 401 L166 0 L79 0 L79 690 L158 690 L390 281 Q411 243 429.5 208 Q448 173 453 151 L455 151 Q450 173 449.5 212 Q449 251 449 294 L449 690 L536 690 Z M422 859 L319 741 L242 741 L322 861 L422 861 L422 859 Z " />
<glyph glyph-name="Ncaron" unicode="&#x147;" horiz-adv-x="615" d="M536 690 L536 0 L457 0 L225 414 Q204 452 185.5 487 Q167 522 162 544 L160 544 Q165 522 165.5 483 Q166 444 166 401 L166 0 L79 0 L79 690 L158 690 L390 281 Q411 243 429.5 208 Q448 173 453 151 L455 151 Q450 173 449.5 212 Q449 251 449 294 L449 690 L536 690 Z M348 747 L254 747 L183 865 L247 865 L300 792 L302 792 L355 865 L418 865 L348 747 Z " />
<glyph glyph-name="Ncommaaccent" unicode="&#x145;" horiz-adv-x="615" d="M536 690 L536 0 L457 0 L225 414 Q204 452 185.5 487 Q167 522 162 544 L160 544 Q165 522 165.5 483 Q166 444 166 401 L166 0 L79 0 L79 690 L158 690 L390 281 Q411 243 429.5 208 Q448 173 453 151 L455 151 Q450 173 449.5 212 Q449 251 449 294 L449 690 L536 690 Z M352 -115 Q352 -141 344 -159.5 Q336 -178 323 -191 Q310 -204 293.5 -212 Q277 -220 261 -225 L247 -195 Q264 -187 280.5 -173 Q297 -159 301 -131 Q282 -131 269.5 -119.5 Q257 -108 257 -85 Q257 -64 269.5 -53 Q282 -42 299 -42 Q322 -42 337 -59.5 Q352 -77 352 -115 Z " />
<glyph glyph-name="Ntilde" unicode="&#xd1;" horiz-adv-x="615" d="M536 690 L536 0 L457 0 L225 414 Q204 452 185.5 487 Q167 522 162 544 L160 544 Q165 522 165.5 483 Q166 444 166 401 L166 0 L79 0 L79 690 L158 690 L390 281 Q411 243 429.5 208 Q448 173 453 151 L455 151 Q450 173 449.5 212 Q449 251 449 294 L449 690 L536 690 Z M427 837 Q425 787 406 764 Q387 741 353 741 Q335 741 321 747.5 Q307 754 295.5 762.5 Q284 771 272.5 777.5 Q261 784 248 784 Q222 784 220 744 L175 744 Q176 794 195 817.5 Q214 841 248 841 Q266 841 280 834.5 Q294 828 306 819.5 Q318 811 329 804.5 Q340 798 354 798 Q380 798 382 837 L427 837 L427 837 Z " />
<glyph glyph-name="Eng" unicode="&#x14a;" horiz-adv-x="615" d="M536 690 L536 53 Q536 -5 523 -45 Q510 -85 486 -110.5 Q462 -136 427.5 -148 Q393 -160 351 -162 L344 -93 Q366 -91 385 -86 Q404 -81 418 -70.5 Q432 -60 441.5 -42.5 Q451 -25 455 3 L225 414 Q204 452 185.5 487 Q167 522 162 544 L160 544 Q165 522 165.5 483 Q166 444 166 401 L166 0 L79 0 L79 690 L158 690 L390 281 Q411 243 429.5 208 Q448 173 453 151 L455 151 Q450 173 449.5 212 Q449 251 449 294 L449 690 L536 690 Z " />
<glyph glyph-name="O" unicode="O" horiz-adv-x="628" d="M581 346 Q581 256 561 189 Q541 122 505.5 77 Q470 32 420.5 10 Q371 -12 312 -12 Q252 -12 203 10 Q154 32 119.5 76 Q85 120 66 187 Q47 254 47 344 Q47 434 67 501 Q87 568 122.5 613 Q158 658 207.5 680 Q257 702 316 702 Q376 702 425 680 Q474 658 508.5 614 Q543 570 562 503 Q581 436 581 346 Z M488 346 Q488 488 441.5 559 Q395 630 314 630 Q233 630 186.5 558.5 Q140 487 140 347 Q140 205 186.5 134 Q233 63 314 63 Q395 63 441.5 134.5 Q488 206 488 346 Z " />
<glyph glyph-name="Ograve" unicode="&#xd2;" horiz-adv-x="628" d="M581 346 Q581 256 561 189 Q541 122 505.5 77 Q470 32 420.5 10 Q371 -12 312 -12 Q252 -12 203 10 Q154 32 119.5 76 Q85 120 66 187 Q47 254 47 344 Q47 434 67 501 Q87 568 122.5 613 Q158 658 207.5 680 Q257 702 316 702 Q376 702 425 680 Q474 658 508.5 614 Q543 570 562 503 Q581 436 581 346 Z M488 346 Q488 488 441.5 559 Q395 630 314 630 Q233 630 186.5 558.5 Q140 487 140 347 Q140 205 186.5 134 Q233 63 314 63 Q395 63 441.5 134.5 Q488 206 488 346 Z M298 741 L196 859 L196 861 L294 861 L376 741 L298 741 Z " />
<glyph glyph-name="Oacute" unicode="&#xd3;" horiz-adv-x="628" d="M581 346 Q581 256 561 189 Q541 122 505.5 77 Q470 32 420.5 10 Q371 -12 312 -12 Q252 -12 203 10 Q154 32 119.5 76 Q85 120 66 187 Q47 254 47 344 Q47 434 67 501 Q87 568 122.5 613 Q158 658 207.5 680 Q257 702 316 702 Q376 702 425 680 Q474 658 508.5 614 Q543 570 562 503 Q581 436 581 346 Z M488 346 Q488 488 441.5 559 Q395 630 314 630 Q233 630 186.5 558.5 Q140 487 140 347 Q140 205 186.5 134 Q233 63 314 63 Q395 63 441.5 134.5 Q488 206 488 346 Z M437 859 L334 741 L257 741 L337 861 L437 861 L437 859 Z " />
<glyph glyph-name="Obreve" unicode="&#x14e;" horiz-adv-x="628" d="M581 346 Q581 256 561 189 Q541 122 505.5 77 Q470 32 420.5 10 Q371 -12 312 -12 Q252 -12 203 10 Q154 32 119.5 76 Q85 120 66 187 Q47 254 47 344 Q47 434 67 501 Q87 568 122.5 613 Q158 658 207.5 680 Q257 702 316 702 Q376 702 425 680 Q474 658 508.5 614 Q543 570 562 503 Q581 436 581 346 Z M488 346 Q488 488 441.5 559 Q395 630 314 630 Q233 630 186.5 558.5 Q140 487 140 347 Q140 205 186.5 134 Q233 63 314 63 Q395 63 441.5 134.5 Q488 206 488 346 Z M425 855 Q424 806 398 773.5 Q372 741 316 741 Q260 741 234.5 773.5 Q209 806 207 855 L262 855 Q262 830 276 813.5 Q290 797 316 797 Q343 797 356.5 813.5 Q370 830 370 855 L425 855 L425 855 Z " />
<glyph glyph-name="Ocircumflex" unicode="&#xd4;" horiz-adv-x="628" d="M581 346 Q581 256 561 189 Q541 122 505.5 77 Q470 32 420.5 10 Q371 -12 312 -12 Q252 -12 203 10 Q154 32 119.5 76 Q85 120 66 187 Q47 254 47 344 Q47 434 67 501 Q87 568 122.5 613 Q158 658 207.5 680 Q257 702 316 702 Q376 702 425 680 Q474 658 508.5 614 Q543 570 562 503 Q581 436 581 346 Z M488 346 Q488 488 441.5 559 Q395 630 314 630 Q233 630 186.5 558.5 Q140 487 140 347 Q140 205 186.5 134 Q233 63 314 63 Q395 63 441.5 134.5 Q488 206 488 346 Z M269 862 L363 862 L434 744 L370 744 L317 817 L315 817 L262 744 L199 744 L269 862 Z " />
<glyph glyph-name="Odieresis" unicode="&#xd6;" horiz-adv-x="628" d="M581 346 Q581 256 561 189 Q541 122 505.5 77 Q470 32 420.5 10 Q371 -12 312 -12 Q252 -12 203 10 Q154 32 119.5 76 Q85 120 66 187 Q47 254 47 344 Q47 434 67 501 Q87 568 122.5 613 Q158 658 207.5 680 Q257 702 316 702 Q376 702 425 680 Q474 658 508.5 614 Q543 570 562 503 Q581 436 581 346 Z M488 346 Q488 488 441.5 559 Q395 630 314 630 Q233 630 186.5 558.5 Q140 487 140 347 Q140 205 186.5 134 Q233 63 314 63 Q395 63 441.5 134.5 Q488 206 488 346 Z M279 792 Q279 769 265 756.5 Q251 744 230 744 Q209 744 195 756.5 Q181 769 181 792 Q181 815 195 827.5 Q209 840 230 840 Q251 840 265 827.5 Q279 815 279 792 Z M451 792 Q451 769 437 756.5 Q423 744 402 744 Q381 744 367 756.5 Q353 769 353 792 Q353 815 367 827.5 Q381 840 402 840 Q423 840 437 827.5 Q451 815 451 792 Z " />
<glyph glyph-name="OE" unicode="&#x152;" horiz-adv-x="795" d="M733 621 L487 621 L487 383 L713 383 L713 314 L487 314 L487 72 L758 72 L753 0 L427 0 Q407 -3 384 -6 Q361 -9 331 -9 Q271 -9 219 11.5 Q167 32 128.5 75 Q90 118 68 185 Q46 252 46 345 Q46 438 69.5 505 Q93 572 132.5 615 Q172 658 225 678.5 Q278 699 338 699 Q370 699 392.5 696 Q415 693 434 690 L739 690 L733 621 Z M339 66 Q358 66 373 67.5 Q388 69 400 71 L400 623 Q389 625 376 626 Q363 627 346 627 Q301 627 263 610 Q225 593 197.5 558 Q170 523 154.5 470 Q139 417 139 345 Q139 273 153.5 220.5 Q168 168 194.5 133.5 Q221 99 257.5 82.5 Q294 66 339 66 Z " />
<glyph glyph-name="Ohungarumlaut" unicode="&#x150;" horiz-adv-x="628" d="M581 346 Q581 256 561 189 Q541 122 505.5 77 Q470 32 420.5 10 Q371 -12 312 -12 Q252 -12 203 10 Q154 32 119.5 76 Q85 120 66 187 Q47 254 47 344 Q47 434 67 501 Q87 568 122.5 613 Q158 658 207.5 680 Q257 702 316 702 Q376 702 425 680 Q474 658 508.5 614 Q543 570 562 503 Q581 436 581 346 Z M488 346 Q488 488 441.5 559 Q395 630 314 630 Q233 630 186.5 558.5 Q140 487 140 347 Q140 205 186.5 134 Q233 63 314 63 Q395 63 441.5 134.5 Q488 206 488 346 Z M362 862 L285 744 L227 744 L289 864 L362 864 L362 862 Z M481 862 L403 744 L346 744 L407 864 L481 864 L481 862 Z " />
<glyph glyph-name="Omacron" unicode="&#x14c;" horiz-adv-x="628" d="M581 346 Q581 256 561 189 Q541 122 505.5 77 Q470 32 420.5 10 Q371 -12 312 -12 Q252 -12 203 10 Q154 32 119.5 76 Q85 120 66 187 Q47 254 47 344 Q47 434 67 501 Q87 568 122.5 613 Q158 658 207.5 680 Q257 702 316 702 Q376 702 425 680 Q474 658 508.5 614 Q543 570 562 503 Q581 436 581 346 Z M488 346 Q488 488 441.5 559 Q395 630 314 630 Q233 630 186.5 558.5 Q140 487 140 347 Q140 205 186.5 134 Q233 63 314 63 Q395 63 441.5 134.5 Q488 206 488 346 Z M415 750 L217 750 L217 814 L415 814 L415 750 Z " />
<glyph glyph-name="Oslash" unicode="&#xd8;" horiz-adv-x="628" d="M581 346 Q581 256 561 189 Q541 122 505.5 77 Q470 32 420.5 10 Q371 -12 312 -12 Q224 -12 163 33 L124 -36 L66 -36 L126 68 Q88 113 67.5 181 Q47 249 47 344 Q47 434 67 501 Q87 568 122.5 613 Q158 658 207.5 680 Q257 702 316 702 Q402 702 464 657 L503 726 L562 726 L502 621 Q540 576 560.5 508 Q581 440 581 346 Z M140 347 Q140 226 175 154 L422 584 Q379 630 314 630 Q233 630 186.5 558.5 Q140 487 140 347 Z M488 346 Q488 465 453 537 L207 108 Q249 63 314 63 Q395 63 441.5 134.5 Q488 206 488 346 Z " />
<glyph glyph-name="Oslashacute" unicode="&#x1fe;" horiz-adv-x="628" d="M581 346 Q581 256 561 189 Q541 122 505.5 77 Q470 32 420.5 10 Q371 -12 312 -12 Q224 -12 163 33 L124 -36 L66 -36 L126 68 Q88 113 67.5 181 Q47 249 47 344 Q47 434 67 501 Q87 568 122.5 613 Q158 658 207.5 680 Q257 702 316 702 Q402 702 464 657 L503 726 L562 726 L502 621 Q540 576 560.5 508 Q581 440 581 346 Z M140 347 Q140 226 175 154 L422 584 Q379 630 314 630 Q233 630 186.5 558.5 Q140 487 140 347 Z M488 346 Q488 465 453 537 L207 108 Q249 63 314 63 Q395 63 441.5 134.5 Q488 206 488 346 Z M437 859 L334 741 L257 741 L337 861 L437 861 L437 859 Z " />
<glyph glyph-name="Otilde" unicode="&#xd5;" horiz-adv-x="628" d="M581 346 Q581 256 561 189 Q541 122 505.5 77 Q470 32 420.5 10 Q371 -12 312 -12 Q252 -12 203 10 Q154 32 119.5 76 Q85 120 66 187 Q47 254 47 344 Q47 434 67 501 Q87 568 122.5 613 Q158 658 207.5 680 Q257 702 316 702 Q376 702 425 680 Q474 658 508.5 614 Q543 570 562 503 Q581 436 581 346 Z M488 346 Q488 488 441.5 559 Q395 630 314 630 Q233 630 186.5 558.5 Q140 487 140 347 Q140 205 186.5 134 Q233 63 314 63 Q395 63 441.5 134.5 Q488 206 488 346 Z M442 837 Q440 787 421 764 Q402 741 368 741 Q350 741 336 747.5 Q322 754 310.5 762.5 Q299 771 287.5 777.5 Q276 784 263 784 Q237 784 235 744 L190 744 Q191 794 210 817.5 Q229 841 263 841 Q281 841 295 834.5 Q309 828 321 819.5 Q333 811 344 804.5 Q355 798 369 798 Q395 798 397 837 L442 837 L442 837 Z " />
<glyph glyph-name="P" unicode="P" horiz-adv-x="495" d="M467 483 Q467 431 451.5 388 Q436 345 405 314.5 Q374 284 326.5 267.5 Q279 251 216 251 L166 251 L166 0 L79 0 L79 690 L220 690 Q348 690 407.5 635 Q467 580 467 483 Z M374 478 Q374 546 338 583.5 Q302 621 220 621 L166 621 L166 320 L216 320 Q300 320 337 363.5 Q374 407 374 478 Z " />
<glyph glyph-name="Thorn" unicode="&#xde;" horiz-adv-x="499" d="M467 378 Q467 326 451.5 283 Q436 240 405 209.5 Q374 179 326.5 162.5 Q279 146 216 146 L166 146 L166 0 L79 0 L79 690 L166 690 L166 585 L220 585 Q348 585 407.5 530 Q467 475 467 378 Z M374 373 Q374 441 338 478.5 Q302 516 220 516 L166 516 L166 215 L216 215 Q300 215 337 258.5 Q374 302 374 373 Z " />
<glyph glyph-name="Q" unicode="Q" horiz-adv-x="628" d="M581 346 Q581 226 547 147 Q513 68 453 28 L583 -127 L513 -179 L375 -5 Q360 -8 344.5 -10 Q329 -12 312 -12 Q252 -12 203 10 Q154 32 119.5 76 Q85 120 66 187 Q47 254 47 344 Q47 434 67 501 Q87 568 122.5 613 Q158 658 207.5 680 Q257 702 316 702 Q376 702 425 680 Q474 658 508.5 614 Q543 570 562 503 Q581 436 581 346 Z M488 346 Q488 488 441.5 559 Q395 630 314 630 Q233 630 186.5 558.5 Q140 487 140 347 Q140 205 186.5 134 Q233 63 314 63 Q395 63 441.5 134.5 Q488 206 488 346 Z " />
<glyph glyph-name="R" unicode="R" horiz-adv-x="515" d="M394 0 L251 283 Q240 282 228 281.5 Q216 281 204 281 L166 281 L166 0 L79 0 L79 690 L208 690 Q333 690 392.5 641.5 Q452 593 452 497 Q452 428 423 379 Q394 330 334 304 L496 0 L394 0 Z M359 492 Q359 558 322.5 589.5 Q286 621 208 621 L166 621 L166 350 L204 350 Q283 350 321 387 Q359 424 359 492 Z " />
<glyph glyph-name="Racute" unicode="&#x154;" horiz-adv-x="515" d="M394 0 L251 283 Q240 282 228 281.5 Q216 281 204 281 L166 281 L166 0 L79 0 L79 690 L208 690 Q333 690 392.5 641.5 Q452 593 452 497 Q452 428 423 379 Q394 330 334 304 L496 0 L394 0 Z M359 492 Q359 558 322.5 589.5 Q286 621 208 621 L166 621 L166 350 L204 350 Q283 350 321 387 Q359 424 359 492 Z M364 859 L261 741 L184 741 L264 861 L364 861 L364 859 Z " />
<glyph glyph-name="Rcaron" unicode="&#x158;" horiz-adv-x="515" d="M394 0 L251 283 Q240 282 228 281.5 Q216 281 204 281 L166 281 L166 0 L79 0 L79 690 L208 690 Q333 690 392.5 641.5 Q452 593 452 497 Q452 428 423 379 Q394 330 334 304 L496 0 L394 0 Z M359 492 Q359 558 322.5 589.5 Q286 621 208 621 L166 621 L166 350 L204 350 Q283 350 321 387 Q359 424 359 492 Z M290 747 L196 747 L125 865 L189 865 L242 792 L244 792 L297 865 L360 865 L290 747 Z " />
<glyph glyph-name="Rcommaaccent" unicode="&#x156;" horiz-adv-x="515" d="M394 0 L251 283 Q240 282 228 281.5 Q216 281 204 281 L166 281 L166 0 L79 0 L79 690 L208 690 Q333 690 392.5 641.5 Q452 593 452 497 Q452 428 423 379 Q394 330 334 304 L496 0 L394 0 Z M359 492 Q359 558 322.5 589.5 Q286 621 208 621 L166 621 L166 350 L204 350 Q283 350 321 387 Q359 424 359 492 Z M322 -115 Q322 -141 314 -159.5 Q306 -178 293 -191 Q280 -204 263.5 -212 Q247 -220 231 -225 L217 -195 Q234 -187 250.5 -173 Q267 -159 271 -131 Q252 -131 239.5 -119.5 Q227 -108 227 -85 Q227 -64 239.5 -53 Q252 -42 269 -42 Q292 -42 307 -59.5 Q322 -77 322 -115 Z " />
<glyph glyph-name="S" unicode="S" horiz-adv-x="433" d="M340 584 Q336 588 326.5 595.5 Q317 603 302.5 610 Q288 617 268.5 622 Q249 627 225 627 Q180 627 157 603 Q134 579 134 547 Q134 527 139.5 510 Q145 493 156.5 476.5 Q168 460 185 443.5 Q202 427 226 408 L282 362 Q306 342 327.5 321 Q349 300 364.5 276.5 Q380 253 389 225.5 Q398 198 398 164 Q398 85 349 36.5 Q300 -12 206 -12 Q169 -12 140.5 -5 Q112 2 91 12 Q70 22 56 32.5 Q42 43 35 50 L70 126 Q76 120 88 110 Q100 100 117 90 Q134 80 155.5 73 Q177 66 204 66 Q255 66 282.5 91.5 Q310 117 310 152 Q310 174 304.5 192 Q299 210 288.5 226.5 Q278 243 262 259 Q246 275 224 293 L168 340 Q139 364 117 385.5 Q95 407 79.5 430.5 Q64 454 56 481.5 Q48 509 48 545 Q48 578 60.5 607 Q73 636 96 657 Q119 678 151.5 690 Q184 702 225 702 Q259 702 285 695.5 Q311 689 329.5 680.5 Q348 672 359 663 Q370 654 376 650 L340 584 Z " />
<glyph glyph-name="Sacute" unicode="&#x15a;" horiz-adv-x="433" d="M340 584 Q336 588 326.5 595.5 Q317 603 302.5 610 Q288 617 268.5 622 Q249 627 225 627 Q180 627 157 603 Q134 579 134 547 Q134 527 139.5 510 Q145 493 156.5 476.5 Q168 460 185 443.5 Q202 427 226 408 L282 362 Q306 342 327.5 321 Q349 300 364.5 276.5 Q380 253 389 225.5 Q398 198 398 164 Q398 85 349 36.5 Q300 -12 206 -12 Q169 -12 140.5 -5 Q112 2 91 12 Q70 22 56 32.5 Q42 43 35 50 L70 126 Q76 120 88 110 Q100 100 117 90 Q134 80 155.5 73 Q177 66 204 66 Q255 66 282.5 91.5 Q310 117 310 152 Q310 174 304.5 192 Q299 210 288.5 226.5 Q278 243 262 259 Q246 275 224 293 L168 340 Q139 364 117 385.5 Q95 407 79.5 430.5 Q64 454 56 481.5 Q48 509 48 545 Q48 578 60.5 607 Q73 636 96 657 Q119 678 151.5 690 Q184 702 225 702 Q259 702 285 695.5 Q311 689 329.5 680.5 Q348 672 359 663 Q370 654 376 650 L340 584 Z M342 859 L239 741 L162 741 L242 861 L342 861 L342 859 Z " />
<glyph glyph-name="Scaron" unicode="&#x160;" horiz-adv-x="433" d="M340 584 Q336 588 326.5 595.5 Q317 603 302.5 610 Q288 617 268.5 622 Q249 627 225 627 Q180 627 157 603 Q134 579 134 547 Q134 527 139.5 510 Q145 493 156.5 476.5 Q168 460 185 443.5 Q202 427 226 408 L282 362 Q306 342 327.5 321 Q349 300 364.5 276.5 Q380 253 389 225.5 Q398 198 398 164 Q398 85 349 36.5 Q300 -12 206 -12 Q169 -12 140.5 -5 Q112 2 91 12 Q70 22 56 32.5 Q42 43 35 50 L70 126 Q76 120 88 110 Q100 100 117 90 Q134 80 155.5 73 Q177 66 204 66 Q255 66 282.5 91.5 Q310 117 310 152 Q310 174 304.5 192 Q299 210 288.5 226.5 Q278 243 262 259 Q246 275 224 293 L168 340 Q139 364 117 385.5 Q95 407 79.5 430.5 Q64 454 56 481.5 Q48 509 48 545 Q48 578 60.5 607 Q73 636 96 657 Q119 678 151.5 690 Q184 702 225 702 Q259 702 285 695.5 Q311 689 329.5 680.5 Q348 672 359 663 Q370 654 376 650 L340 584 Z M268 747 L174 747 L103 865 L167 865 L220 792 L222 792 L275 865 L338 865 L268 747 Z " />
<glyph glyph-name="Scedilla" unicode="&#x15e;" horiz-adv-x="433" d="M293 -127 Q293 -165 267.5 -186.5 Q242 -208 195 -208 Q172 -208 158 -203.5 Q144 -199 134 -194 L134 -150 Q142 -155 154 -158 Q166 -161 182 -161 Q228 -161 228 -126 Q228 -83 157 -83 L154 -80 L186 -11 Q154 -9 129 -1.5 Q104 6 85 15 Q66 24 54 34 Q42 44 35 50 L70 126 Q76 120 88 110 Q100 100 117 90 Q134 80 155.5 73 Q177 66 204 66 Q255 66 282.5 91.5 Q310 117 310 152 Q310 174 304.5 192 Q299 210 288.5 226.5 Q278 243 262 259 Q246 275 224 293 L168 340 Q139 364 117 385.5 Q95 407 79.5 430.5 Q64 454 56 481.5 Q48 509 48 545 Q48 578 60.5 607 Q73 636 96 657 Q119 678 151.5 690 Q184 702 225 702 Q259 702 285 695.5 Q311 689 329.5 680.5 Q348 672 359 663 Q370 654 376 650 L340 584 Q336 588 326.5 595.5 Q317 603 302.5 610 Q288 617 268.5 622 Q249 627 225 627 Q180 627 157 603 Q134 579 134 547 Q134 527 139.5 510 Q145 493 156.5 476.5 Q168 460 185 443.5 Q202 427 226 408 L282 362 Q306 342 327.5 321 Q349 300 364.5 276.5 Q380 253 389 225.5 Q398 198 398 164 Q398 92 356.5 45 Q315 -2 236 -10 L218 -55 Q256 -57 274.5 -77 Q293 -97 293 -127 Z " />
<glyph glyph-name="Scircumflex" unicode="&#x15c;" horiz-adv-x="433" d="M340 584 Q336 588 326.5 595.5 Q317 603 302.5 610 Q288 617 268.5 622 Q249 627 225 627 Q180 627 157 603 Q134 579 134 547 Q134 527 139.5 510 Q145 493 156.5 476.5 Q168 460 185 443.5 Q202 427 226 408 L282 362 Q306 342 327.5 321 Q349 300 364.5 276.5 Q380 253 389 225.5 Q398 198 398 164 Q398 85 349 36.5 Q300 -12 206 -12 Q169 -12 140.5 -5 Q112 2 91 12 Q70 22 56 32.5 Q42 43 35 50 L70 126 Q76 120 88 110 Q100 100 117 90 Q134 80 155.5 73 Q177 66 204 66 Q255 66 282.5 91.5 Q310 117 310 152 Q310 174 304.5 192 Q299 210 288.5 226.5 Q278 243 262 259 Q246 275 224 293 L168 340 Q139 364 117 385.5 Q95 407 79.5 430.5 Q64 454 56 481.5 Q48 509 48 545 Q48 578 60.5 607 Q73 636 96 657 Q119 678 151.5 690 Q184 702 225 702 Q259 702 285 695.5 Q311 689 329.5 680.5 Q348 672 359 663 Q370 654 376 650 L340 584 Z M174 862 L268 862 L339 744 L275 744 L222 817 L220 817 L167 744 L104 744 L174 862 Z " />
<glyph glyph-name="Scommaaccent" unicode="&#x218;" horiz-adv-x="433" d="M340 584 Q336 588 326.5 595.5 Q317 603 302.5 610 Q288 617 268.5 622 Q249 627 225 627 Q180 627 157 603 Q134 579 134 547 Q134 527 139.5 510 Q145 493 156.5 476.5 Q168 460 185 443.5 Q202 427 226 408 L282 362 Q306 342 327.5 321 Q349 300 364.5 276.5 Q380 253 389 225.5 Q398 198 398 164 Q398 85 349 36.5 Q300 -12 206 -12 Q169 -12 140.5 -5 Q112 2 91 12 Q70 22 56 32.5 Q42 43 35 50 L70 126 Q76 120 88 110 Q100 100 117 90 Q134 80 155.5 73 Q177 66 204 66 Q255 66 282.5 91.5 Q310 117 310 152 Q310 174 304.5 192 Q299 210 288.5 226.5 Q278 243 262 259 Q246 275 224 293 L168 340 Q139 364 117 385.5 Q95 407 79.5 430.5 Q64 454 56 481.5 Q48 509 48 545 Q48 578 60.5 607 Q73 636 96 657 Q119 678 151.5 690 Q184 702 225 702 Q259 702 285 695.5 Q311 689 329.5 680.5 Q348 672 359 663 Q370 654 376 650 L340 584 Z M266 -115 Q266 -141 258 -159.5 Q250 -178 237 -191 Q224 -204 207.5 -212 Q191 -220 175 -225 L161 -195 Q178 -187 194.5 -173 Q211 -159 215 -131 Q196 -131 183.5 -119.5 Q171 -108 171 -85 Q171 -64 183.5 -53 Q196 -42 213 -42 Q236 -42 251 -59.5 Q266 -77 266 -115 Z " />
<glyph glyph-name="uni1E9E" unicode="&#x1e9e;" horiz-adv-x="628" d="M542 609 Q533 601 517 587 Q501 573 485.5 552 Q470 531 458.5 503 Q447 475 447 439 Q447 410 458.5 387 Q470 364 487 343.5 Q504 323 523.5 303 Q543 283 560 260.5 Q577 238 588.5 210.5 Q600 183 600 148 Q600 115 589.5 86 Q579 57 557.5 35 Q536 13 504 0.5 Q472 -12 429 -12 Q386 -12 358 -2 Q330 8 316 17 L339 97 Q351 88 372.5 77 Q394 66 429 66 Q471 66 491.5 85 Q512 104 512 136 Q512 164 501 186.5 Q490 209 473 229 Q456 249 437 268.5 Q418 288 401 311 Q384 334 373 361.5 Q362 389 362 426 Q362 463 372 493.5 Q382 524 396 546.5 Q410 569 425 585 Q440 601 449 610 L449 612 Q440 616 417.5 621.5 Q395 627 367 627 Q321 627 282.5 615.5 Q244 604 216.5 575.5 Q189 547 173.5 498 Q158 449 158 375 L158 0 L71 0 L71 375 Q71 472 93.5 535 Q116 598 156 635 Q196 672 250.5 687 Q305 702 368 702 Q431 702 475 686.5 Q519 671 542 658 L542 609 Z " />
<glyph glyph-name="T" unicode="T" horiz-adv-x="483" d="M468 621 L284 621 L284 0 L197 0 L197 621 L13 621 L13 690 L474 690 L468 621 Z " />
<glyph glyph-name="Tbar" unicode="&#x166;" horiz-adv-x="501" d="M477 621 L293 621 L293 367 L414 367 L414 319 L293 319 L293 0 L206 0 L206 319 L85 319 L85 367 L206 367 L206 621 L22 621 L22 690 L483 690 L477 621 Z " />
<glyph glyph-name="Tcaron" unicode="&#x164;" horiz-adv-x="483" d="M468 621 L284 621 L284 0 L197 0 L197 621 L13 621 L13 690 L474 690 L468 621 Z M289 747 L195 747 L124 865 L188 865 L241 792 L243 792 L296 865 L359 865 L289 747 Z " />
<glyph glyph-name="Tcommaaccent" unicode="&#x162;" horiz-adv-x="483" d="M316 -127 Q316 -165 290.5 -186.5 Q265 -208 218 -208 Q195 -208 181 -203.5 Q167 -199 157 -194 L157 -150 Q165 -155 177 -158 Q189 -161 205 -161 Q251 -161 251 -126 Q251 -83 180 -83 L177 -80 L215 0 L197 0 L197 621 L13 621 L13 690 L474 690 L468 621 L284 621 L284 0 L264 0 L241 -55 Q279 -57 297.5 -77 Q316 -97 316 -127 Z " />
<glyph glyph-name="uni021A" unicode="&#x21a;" horiz-adv-x="483" d="M468 621 L284 621 L284 0 L197 0 L197 621 L13 621 L13 690 L474 690 L468 621 Z M294 -115 Q294 -141 286 -159.5 Q278 -178 265 -191 Q252 -204 235.5 -212 Q219 -220 203 -225 L189 -195 Q206 -187 222.5 -173 Q239 -159 243 -131 Q224 -131 211.5 -119.5 Q199 -108 199 -85 Q199 -64 211.5 -53 Q224 -42 241 -42 Q264 -42 279 -59.5 Q294 -77 294 -115 Z " />
<glyph glyph-name="U" unicode="U" horiz-adv-x="599" d="M526 267 Q526 130 469 59 Q412 -12 297 -12 Q184 -12 128.5 54 Q73 120 73 267 L73 690 L160 690 L160 266 Q160 160 195.5 111.5 Q231 63 302 63 Q374 63 408 110.5 Q442 158 442 266 L442 690 L526 690 L526 267 Z " />
<glyph glyph-name="Uacute" unicode="&#xda;" horiz-adv-x="599" d="M526 267 Q526 130 469 59 Q412 -12 297 -12 Q184 -12 128.5 54 Q73 120 73 267 L73 690 L160 690 L160 266 Q160 160 195.5 111.5 Q231 63 302 63 Q374 63 408 110.5 Q442 158 442 266 L442 690 L526 690 L526 267 Z M423 859 L320 741 L243 741 L323 861 L423 861 L423 859 Z " />
<glyph glyph-name="Ubreve" unicode="&#x16c;" horiz-adv-x="599" d="M526 267 Q526 130 469 59 Q412 -12 297 -12 Q184 -12 128.5 54 Q73 120 73 267 L73 690 L160 690 L160 266 Q160 160 195.5 111.5 Q231 63 302 63 Q374 63 408 110.5 Q442 158 442 266 L442 690 L526 690 L526 267 Z M411 855 Q410 806 384 773.5 Q358 741 302 741 Q246 741 220.5 773.5 Q195 806 193 855 L248 855 Q248 830 262 813.5 Q276 797 302 797 Q329 797 342.5 813.5 Q356 830 356 855 L411 855 L411 855 Z " />
<glyph glyph-name="Ucircumflex" unicode="&#xdb;" horiz-adv-x="599" d="M526 267 Q526 130 469 59 Q412 -12 297 -12 Q184 -12 128.5 54 Q73 120 73 267 L73 690 L160 690 L160 266 Q160 160 195.5 111.5 Q231 63 302 63 Q374 63 408 110.5 Q442 158 442 266 L442 690 L526 690 L526 267 Z M255 862 L349 862 L420 744 L356 744 L303 817 L301 817 L248 744 L185 744 L255 862 Z " />
<glyph glyph-name="Udieresis" unicode="&#xdc;" horiz-adv-x="599" d="M526 267 Q526 130 469 59 Q412 -12 297 -12 Q184 -12 128.5 54 Q73 120 73 267 L73 690 L160 690 L160 266 Q160 160 195.5 111.5 Q231 63 302 63 Q374 63 408 110.5 Q442 158 442 266 L442 690 L526 690 L526 267 Z M265 792 Q265 769 251 756.5 Q237 744 216 744 Q195 744 181 756.5 Q167 769 167 792 Q167 815 181 827.5 Q195 840 216 840 Q237 840 251 827.5 Q265 815 265 792 Z M437 792 Q437 769 423 756.5 Q409 744 388 744 Q367 744 353 756.5 Q339 769 339 792 Q339 815 353 827.5 Q367 840 388 840 Q409 840 423 827.5 Q437 815 437 792 Z " />
<glyph glyph-name="Ugrave" unicode="&#xd9;" horiz-adv-x="599" d="M526 267 Q526 130 469 59 Q412 -12 297 -12 Q184 -12 128.5 54 Q73 120 73 267 L73 690 L160 690 L160 266 Q160 160 195.5 111.5 Q231 63 302 63 Q374 63 408 110.5 Q442 158 442 266 L442 690 L526 690 L526 267 Z M284 741 L182 859 L182 861 L280 861 L362 741 L284 741 Z " />
<glyph glyph-name="Uhungarumlaut" unicode="&#x170;" horiz-adv-x="599" d="M526 267 Q526 130 469 59 Q412 -12 297 -12 Q184 -12 128.5 54 Q73 120 73 267 L73 690 L160 690 L160 266 Q160 160 195.5 111.5 Q231 63 302 63 Q374 63 408 110.5 Q442 158 442 266 L442 690 L526 690 L526 267 Z M348 862 L271 744 L213 744 L275 864 L348 864 L348 862 Z M467 862 L389 744 L332 744 L393 864 L467 864 L467 862 Z " />
<glyph glyph-name="Umacron" unicode="&#x16a;" horiz-adv-x="599" d="M526 267 Q526 130 469 59 Q412 -12 297 -12 Q184 -12 128.5 54 Q73 120 73 267 L73 690 L160 690 L160 266 Q160 160 195.5 111.5 Q231 63 302 63 Q374 63 408 110.5 Q442 158 442 266 L442 690 L526 690 L526 267 Z M401 750 L203 750 L203 814 L401 814 L401 750 Z " />
<glyph glyph-name="Uogonek" unicode="&#x172;" horiz-adv-x="599" d="M388 -193 Q383 -197 366.5 -204.5 Q350 -212 322 -212 Q277 -212 254 -187.5 Q231 -163 231 -119 Q231 -85 245 -58 Q259 -31 276 -11 Q173 -6 123 60.5 Q73 127 73 267 L73 690 L160 690 L160 266 Q160 160 195.5 111.5 Q231 63 302 63 Q374 63 408 110.5 Q442 158 442 266 L442 690 L526 690 L526 267 Q526 144 480.5 75 Q435 6 343 -8 Q329 -22 317.5 -45 Q306 -68 306 -98 Q306 -122 315.5 -131 Q325 -140 341 -140 Q353 -140 361 -137 Q369 -134 373 -132 L388 -193 Z " />
<glyph glyph-name="Uring" unicode="&#x16e;" horiz-adv-x="599" d="M526 267 Q526 130 469 59 Q412 -12 297 -12 Q184 -12 128.5 54 Q73 120 73 267 L73 690 L160 690 L160 266 Q160 160 195.5 111.5 Q231 63 302 63 Q374 63 408 110.5 Q442 158 442 266 L442 690 L526 690 L526 267 Z M385 811 Q385 775 360.5 753.5 Q336 732 302 732 Q268 732 244 753.5 Q220 775 220 811 Q220 847 244 868.5 Q268 890 302 890 Q336 890 360.5 868.5 Q385 847 385 811 Z M339 811 Q339 829 328.5 838 Q318 847 302 847 Q287 847 276.5 838 Q266 829 266 811 Q266 793 276.5 784.5 Q287 776 302 776 Q318 776 328.5 784.5 Q339 793 339 811 Z " />
<glyph glyph-name="Utilde" unicode="&#x168;" horiz-adv-x="599" d="M526 267 Q526 130 469 59 Q412 -12 297 -12 Q184 -12 128.5 54 Q73 120 73 267 L73 690 L160 690 L160 266 Q160 160 195.5 111.5 Q231 63 302 63 Q374 63 408 110.5 Q442 158 442 266 L442 690 L526 690 L526 267 Z M428 837 Q426 787 407 764 Q388 741 354 741 Q336 741 322 747.5 Q308 754 296.5 762.5 Q285 771 273.5 777.5 Q262 784 249 784 Q223 784 221 744 L176 744 Q177 794 196 817.5 Q215 841 249 841 Q267 841 281 834.5 Q295 828 307 819.5 Q319 811 330 804.5 Q341 798 355 798 Q381 798 383 837 L428 837 L428 837 Z " />
<glyph glyph-name="V" unicode="V" horiz-adv-x="522" d="M518 690 L294 0 L225 0 L7 690 L101 690 L233 232 Q244 194 252.5 159 Q261 124 262 101 L264 101 Q265 124 274 158.5 Q283 193 294 231 L431 690 L518 690 Z " />
<glyph glyph-name="W" unicode="W" horiz-adv-x="785" d="M772 690 L604 0 L526 0 L421 434 Q410 479 402 518 Q394 557 393 580 L391 580 Q391 557 383 519 Q375 481 364 436 L257 0 L179 0 L15 690 L108 690 L194 270 Q204 222 211.5 179.5 Q219 137 220 114 L222 114 Q223 137 232.5 181 Q242 225 253 272 L355 690 L438 690 L538 270 Q549 222 558 179.5 Q567 137 568 114 L570 114 Q571 137 579 181.5 Q587 226 597 274 L684 690 L772 690 Z " />
<glyph glyph-name="Wacute" unicode="&#x1e82;" horiz-adv-x="785" d="M772 690 L604 0 L526 0 L421 434 Q410 479 402 518 Q394 557 393 580 L391 580 Q391 557 383 519 Q375 481 364 436 L257 0 L179 0 L15 690 L108 690 L194 270 Q204 222 211.5 179.5 Q219 137 220 114 L222 114 Q223 137 232.5 181 Q242 225 253 272 L355 690 L438 690 L538 270 Q549 222 558 179.5 Q567 137 568 114 L570 114 Q571 137 579 181.5 Q587 226 597 274 L684 690 L772 690 Z M518 859 L415 741 L338 741 L418 861 L518 861 L518 859 Z " />
<glyph glyph-name="Wcircumflex" unicode="&#x174;" horiz-adv-x="785" d="M772 690 L604 0 L526 0 L421 434 Q410 479 402 518 Q394 557 393 580 L391 580 Q391 557 383 519 Q375 481 364 436 L257 0 L179 0 L15 690 L108 690 L194 270 Q204 222 211.5 179.5 Q219 137 220 114 L222 114 Q223 137 232.5 181 Q242 225 253 272 L355 690 L438 690 L538 270 Q549 222 558 179.5 Q567 137 568 114 L570 114 Q571 137 579 181.5 Q587 226 597 274 L684 690 L772 690 Z M350 862 L444 862 L515 744 L451 744 L398 817 L396 817 L343 744 L280 744 L350 862 Z " />
<glyph glyph-name="Wdieresis" unicode="&#x1e84;" horiz-adv-x="785" d="M772 690 L604 0 L526 0 L421 434 Q410 479 402 518 Q394 557 393 580 L391 580 Q391 557 383 519 Q375 481 364 436 L257 0 L179 0 L15 690 L108 690 L194 270 Q204 222 211.5 179.5 Q219 137 220 114 L222 114 Q223 137 232.5 181 Q242 225 253 272 L355 690 L438 690 L538 270 Q549 222 558 179.5 Q567 137 568 114 L570 114 Q571 137 579 181.5 Q587 226 597 274 L684 690 L772 690 Z M360 792 Q360 769 346 756.5 Q332 744 311 744 Q290 744 276 756.5 Q262 769 262 792 Q262 815 276 827.5 Q290 840 311 840 Q332 840 346 827.5 Q360 815 360 792 Z M532 792 Q532 769 518 756.5 Q504 744 483 744 Q462 744 448 756.5 Q434 769 434 792 Q434 815 448 827.5 Q462 840 483 840 Q504 840 518 827.5 Q532 815 532 792 Z " />
<glyph glyph-name="Wgrave" unicode="&#x1e80;" horiz-adv-x="785" d="M772 690 L604 0 L526 0 L421 434 Q410 479 402 518 Q394 557 393 580 L391 580 Q391 557 383 519 Q375 481 364 436 L257 0 L179 0 L15 690 L108 690 L194 270 Q204 222 211.5 179.5 Q219 137 220 114 L222 114 Q223 137 232.5 181 Q242 225 253 272 L355 690 L438 690 L538 270 Q549 222 558 179.5 Q567 137 568 114 L570 114 Q571 137 579 181.5 Q587 226 597 274 L684 690 L772 690 Z M379 741 L277 859 L277 861 L375 861 L457 741 L379 741 Z " />
<glyph glyph-name="X" unicode="X" horiz-adv-x="495" d="M109 0 L15 0 L198 349 L22 690 L118 690 L218 488 Q230 463 238 446 Q246 429 251 406 L253 406 Q258 429 266 447 Q274 465 286 490 L383 690 L474 690 L296 348 L479 0 L380 0 L277 208 Q265 233 257 249.5 Q249 266 244 289 L242 289 Q237 266 229 248.5 Q221 231 209 206 L109 0 Z " />
<glyph glyph-name="uni1E8A" unicode="&#x1e8a;" horiz-adv-x="495" d="M109 0 L15 0 L198 349 L22 690 L118 690 L218 488 Q230 463 238 446 Q246 429 251 406 L253 406 Q258 429 266 447 Q274 465 286 490 L383 690 L474 690 L296 348 L479 0 L380 0 L277 208 Q265 233 257 249.5 Q249 266 244 289 L242 289 Q237 266 229 248.5 Q221 231 209 206 L109 0 Z M303 789 Q303 765 288 752 Q273 739 251 739 Q229 739 214.5 752 Q200 765 200 789 Q200 814 214.5 827 Q229 840 251 840 Q273 840 288 827 Q303 814 303 789 Z " />
<glyph glyph-name="Y" unicode="Y" horiz-adv-x="488" d="M480 690 L288 254 L288 0 L201 0 L201 250 L7 690 L105 690 L215 422 Q227 393 235 369 Q243 345 246 322 L248 322 Q251 345 259.5 369.5 Q268 394 279 423 L386 690 L480 690 Z " />
<glyph glyph-name="Yacute" unicode="&#xdd;" horiz-adv-x="488" d="M480 690 L288 254 L288 0 L201 0 L201 250 L7 690 L105 690 L215 422 Q227 393 235 369 Q243 345 246 322 L248 322 Q251 345 259.5 369.5 Q268 394 279 423 L386 690 L480 690 Z M369 859 L266 741 L189 741 L269 861 L369 861 L369 859 Z " />
<glyph glyph-name="Ycircumflex" unicode="&#x176;" horiz-adv-x="488" d="M480 690 L288 254 L288 0 L201 0 L201 250 L7 690 L105 690 L215 422 Q227 393 235 369 Q243 345 246 322 L248 322 Q251 345 259.5 369.5 Q268 394 279 423 L386 690 L480 690 Z M201 862 L295 862 L366 744 L302 744 L249 817 L247 817 L194 744 L131 744 L201 862 Z " />
<glyph glyph-name="Ydieresis" unicode="&#x178;" horiz-adv-x="488" d="M480 690 L288 254 L288 0 L201 0 L201 250 L7 690 L105 690 L215 422 Q227 393 235 369 Q243 345 246 322 L248 322 Q251 345 259.5 369.5 Q268 394 279 423 L386 690 L480 690 Z M211 792 Q211 769 197 756.5 Q183 744 162 744 Q141 744 127 756.5 Q113 769 113 792 Q113 815 127 827.5 Q141 840 162 840 Q183 840 197 827.5 Q211 815 211 792 Z M383 792 Q383 769 369 756.5 Q355 744 334 744 Q313 744 299 756.5 Q285 769 285 792 Q285 815 299 827.5 Q313 840 334 840 Q355 840 369 827.5 Q383 815 383 792 Z " />
<glyph glyph-name="Ygrave" unicode="&#x1ef2;" horiz-adv-x="488" d="M480 690 L288 254 L288 0 L201 0 L201 250 L7 690 L105 690 L215 422 Q227 393 235 369 Q243 345 246 322 L248 322 Q251 345 259.5 369.5 Q268 394 279 423 L386 690 L480 690 Z M230 741 L128 859 L128 861 L226 861 L308 741 L230 741 Z " />
<glyph glyph-name="Z" unicode="Z" horiz-adv-x="480" d="M433 636 L140 74 L140 72 L458 72 L452 0 L28 0 L28 54 L330 619 L330 621 L44 621 L44 690 L433 690 L433 636 Z " />
<glyph glyph-name="Zacute" unicode="&#x179;" horiz-adv-x="480" d="M433 636 L140 74 L140 72 L458 72 L452 0 L28 0 L28 54 L330 619 L330 621 L44 621 L44 690 L433 690 L433 636 Z M358 859 L255 741 L178 741 L258 861 L358 861 L358 859 Z " />
<glyph glyph-name="Zcaron" unicode="&#x17d;" horiz-adv-x="480" d="M433 636 L140 74 L140 72 L458 72 L452 0 L28 0 L28 54 L330 619 L330 621 L44 621 L44 690 L433 690 L433 636 Z M284 747 L190 747 L119 865 L183 865 L236 792 L238 792 L291 865 L354 865 L284 747 Z " />
<glyph glyph-name="Zdotaccent" unicode="&#x17b;" horiz-adv-x="480" d="M433 636 L140 74 L140 72 L458 72 L452 0 L28 0 L28 54 L330 619 L330 621 L44 621 L44 690 L433 690 L433 636 Z M288 789 Q288 765 273 752 Q258 739 236 739 Q214 739 199.5 752 Q185 765 185 789 Q185 814 199.5 827 Q214 840 236 840 Q258 840 273 827 Q288 814 288 789 Z " />
<glyph glyph-name="uni01B5" unicode="&#x1b5;" horiz-adv-x="486" d="M436 636 L299 374 L406 374 L406 326 L274 326 L143 74 L143 72 L461 72 L455 0 L31 0 L31 54 L176 326 L75 326 L75 374 L202 374 L333 619 L333 621 L47 621 L47 690 L436 690 L436 636 Z " />
<glyph glyph-name="a" unicode="a" horiz-adv-x="399" d="M34 122 Q34 164 50 192 Q66 220 93 237.5 Q120 255 156.5 262.5 Q193 270 234 270 L259 270 L259 316 Q259 377 237.5 400 Q216 423 177 423 Q141 423 117 407.5 Q93 392 79 380 L45 434 Q53 442 65.5 452 Q78 462 96 471 Q114 480 137 486 Q160 492 189 492 Q263 492 301 451 Q339 410 339 319 L339 100 Q339 69 341 39.5 Q343 10 345 0 L268 0 L265 53 L263 53 Q259 44 251 32.5 Q243 21 231 11.5 Q219 2 202 -5 Q185 -12 162 -12 Q135 -12 111.5 -2 Q88 8 70.5 26 Q53 44 43.5 68.5 Q34 93 34 122 Z M179 57 Q196 57 209 62 Q222 67 231.5 74 Q241 81 247.5 89.5 Q254 98 259 104 L259 210 L233 209 Q175 207 145 189 Q115 171 115 131 Q115 94 132 75.5 Q149 57 179 57 Z " />
<glyph glyph-name="aacute" unicode="&#xe1;" horiz-adv-x="399" d="M34 122 Q34 164 50 192 Q66 220 93 237.5 Q120 255 156.5 262.5 Q193 270 234 270 L259 270 L259 316 Q259 377 237.5 400 Q216 423 177 423 Q141 423 117 407.5 Q93 392 79 380 L45 434 Q53 442 65.5 452 Q78 462 96 471 Q114 480 137 486 Q160 492 189 492 Q263 492 301 451 Q339 410 339 319 L339 100 Q339 69 341 39.5 Q343 10 345 0 L268 0 L265 53 L263 53 Q259 44 251 32.5 Q243 21 231 11.5 Q219 2 202 -5 Q185 -12 162 -12 Q135 -12 111.5 -2 Q88 8 70.5 26 Q53 44 43.5 68.5 Q34 93 34 122 Z M179 57 Q196 57 209 62 Q222 67 231.5 74 Q241 81 247.5 89.5 Q254 98 259 104 L259 210 L233 209 Q175 207 145 189 Q115 171 115 131 Q115 94 132 75.5 Q149 57 179 57 Z M317 688 L215 558 L140 558 L219 690 L317 690 L317 688 Z " />
<glyph glyph-name="abreve" unicode="&#x103;" horiz-adv-x="399" d="M34 122 Q34 164 50 192 Q66 220 93 237.5 Q120 255 156.5 262.5 Q193 270 234 270 L259 270 L259 316 Q259 377 237.5 400 Q216 423 177 423 Q141 423 117 407.5 Q93 392 79 380 L45 434 Q53 442 65.5 452 Q78 462 96 471 Q114 480 137 486 Q160 492 189 492 Q263 492 301 451 Q339 410 339 319 L339 100 Q339 69 341 39.5 Q343 10 345 0 L268 0 L265 53 L263 53 Q259 44 251 32.5 Q243 21 231 11.5 Q219 2 202 -5 Q185 -12 162 -12 Q135 -12 111.5 -2 Q88 8 70.5 26 Q53 44 43.5 68.5 Q34 93 34 122 Z M179 57 Q196 57 209 62 Q222 67 231.5 74 Q241 81 247.5 89.5 Q254 98 259 104 L259 210 L233 209 Q175 207 145 189 Q115 171 115 131 Q115 94 132 75.5 Q149 57 179 57 Z M299 681 Q297 626 271.5 591.5 Q246 557 189 557 Q133 557 107 591.5 Q81 626 79 681 L134 681 Q135 649 149 633.5 Q163 618 189 618 Q215 618 229 633.5 Q243 649 244 681 L299 681 L299 681 Z " />
<glyph glyph-name="acircumflex" unicode="&#xe2;" horiz-adv-x="399" d="M34 122 Q34 164 50 192 Q66 220 93 237.5 Q120 255 156.5 262.5 Q193 270 234 270 L259 270 L259 316 Q259 377 237.5 400 Q216 423 177 423 Q141 423 117 407.5 Q93 392 79 380 L45 434 Q53 442 65.5 452 Q78 462 96 471 Q114 480 137 486 Q160 492 189 492 Q263 492 301 451 Q339 410 339 319 L339 100 Q339 69 341 39.5 Q343 10 345 0 L268 0 L265 53 L263 53 Q259 44 251 32.5 Q243 21 231 11.5 Q219 2 202 -5 Q185 -12 162 -12 Q135 -12 111.5 -2 Q88 8 70.5 26 Q53 44 43.5 68.5 Q34 93 34 122 Z M179 57 Q196 57 209 62 Q222 67 231.5 74 Q241 81 247.5 89.5 Q254 98 259 104 L259 210 L233 209 Q175 207 145 189 Q115 171 115 131 Q115 94 132 75.5 Q149 57 179 57 Z M248 557 L190 645 L189 645 L131 557 L70 557 L143 699 L235 699 L309 557 L248 557 Z " />
<glyph glyph-name="adieresis" unicode="&#xe4;" horiz-adv-x="399" d="M34 122 Q34 164 50 192 Q66 220 93 237.5 Q120 255 156.5 262.5 Q193 270 234 270 L259 270 L259 316 Q259 377 237.5 400 Q216 423 177 423 Q141 423 117 407.5 Q93 392 79 380 L45 434 Q53 442 65.5 452 Q78 462 96 471 Q114 480 137 486 Q160 492 189 492 Q263 492 301 451 Q339 410 339 319 L339 100 Q339 69 341 39.5 Q343 10 345 0 L268 0 L265 53 L263 53 Q259 44 251 32.5 Q243 21 231 11.5 Q219 2 202 -5 Q185 -12 162 -12 Q135 -12 111.5 -2 Q88 8 70.5 26 Q53 44 43.5 68.5 Q34 93 34 122 Z M179 57 Q196 57 209 62 Q222 67 231.5 74 Q241 81 247.5 89.5 Q254 98 259 104 L259 210 L233 209 Q175 207 145 189 Q115 171 115 131 Q115 94 132 75.5 Q149 57 179 57 Z M160 618 Q160 595 146 581 Q132 567 112 567 Q92 567 78 581 Q64 595 64 618 Q64 641 78 655 Q92 669 112 669 Q132 669 146 655 Q160 641 160 618 Z M314 618 Q314 595 300 581 Q286 567 266 567 Q246 567 232 581 Q218 595 218 618 Q218 641 232 655 Q246 669 266 669 Q286 669 300 655 Q314 641 314 618 Z " />
<glyph glyph-name="ae" unicode="&#xe6;" horiz-adv-x="634" d="M598 45 Q593 40 583 30.5 Q573 21 556 11.5 Q539 2 514 -5 Q489 -12 455 -12 Q404 -12 364.5 6.5 Q325 25 299 66 Q292 53 281 39 Q270 25 254 14 Q238 3 216 -4.5 Q194 -12 165 -12 Q103 -12 68.5 27 Q34 66 34 126 Q34 168 50 197 Q66 226 93 244 Q120 262 156.5 269.5 Q193 277 234 277 L259 277 L259 316 Q259 377 237.5 400 Q216 423 177 423 Q141 423 117 408 Q93 393 80 382 L45 434 Q53 442 65.5 452 Q78 462 96 471 Q114 480 137 486 Q160 492 189 492 Q281 492 309 406 L311 406 Q333 449 367.5 470.5 Q402 492 447 492 Q513 492 550.5 447.5 Q588 403 588 314 Q588 282 586 258 Q584 234 582 216 L338 216 Q343 136 375 98 Q407 60 467 60 Q488 60 505 65 Q522 70 534.5 77 Q547 84 555.5 91 Q564 98 568 102 L598 45 Z M436 426 Q391 426 365 387.5 Q339 349 337 277 L512 277 Q513 283 513.5 293.5 Q514 304 514 317 Q514 369 494 397.5 Q474 426 436 426 Z M182 57 Q202 57 217 63.5 Q232 70 243 79.5 Q254 89 261.5 99.5 Q269 110 274 119 Q261 159 258 217 L233 216 Q175 214 145 195.5 Q115 177 115 135 Q115 96 132.5 76.5 Q150 57 182 57 Z " />
<glyph glyph-name="aeacute" unicode="&#x1fd;" horiz-adv-x="634" d="M598 45 Q593 40 583 30.5 Q573 21 556 11.5 Q539 2 514 -5 Q489 -12 455 -12 Q404 -12 364.5 6.5 Q325 25 299 66 Q292 53 281 39 Q270 25 254 14 Q238 3 216 -4.5 Q194 -12 165 -12 Q103 -12 68.5 27 Q34 66 34 126 Q34 168 50 197 Q66 226 93 244 Q120 262 156.5 269.5 Q193 277 234 277 L259 277 L259 316 Q259 377 237.5 400 Q216 423 177 423 Q141 423 117 408 Q93 393 80 382 L45 434 Q53 442 65.5 452 Q78 462 96 471 Q114 480 137 486 Q160 492 189 492 Q281 492 309 406 L311 406 Q333 449 367.5 470.5 Q402 492 447 492 Q513 492 550.5 447.5 Q588 403 588 314 Q588 282 586 258 Q584 234 582 216 L338 216 Q343 136 375 98 Q407 60 467 60 Q488 60 505 65 Q522 70 534.5 77 Q547 84 555.5 91 Q564 98 568 102 L598 45 Z M436 426 Q391 426 365 387.5 Q339 349 337 277 L512 277 Q513 283 513.5 293.5 Q514 304 514 317 Q514 369 494 397.5 Q474 426 436 426 Z M182 57 Q202 57 217 63.5 Q232 70 243 79.5 Q254 89 261.5 99.5 Q269 110 274 119 Q261 159 258 217 L233 216 Q175 214 145 195.5 Q115 177 115 135 Q115 96 132.5 76.5 Q150 57 182 57 Z M439 688 L337 558 L262 558 L341 690 L439 690 L439 688 Z " />
<glyph glyph-name="agrave" unicode="&#xe0;" horiz-adv-x="399" d="M34 122 Q34 164 50 192 Q66 220 93 237.5 Q120 255 156.5 262.5 Q193 270 234 270 L259 270 L259 316 Q259 377 237.5 400 Q216 423 177 423 Q141 423 117 407.5 Q93 392 79 380 L45 434 Q53 442 65.5 452 Q78 462 96 471 Q114 480 137 486 Q160 492 189 492 Q263 492 301 451 Q339 410 339 319 L339 100 Q339 69 341 39.5 Q343 10 345 0 L268 0 L265 53 L263 53 Q259 44 251 32.5 Q243 21 231 11.5 Q219 2 202 -5 Q185 -12 162 -12 Q135 -12 111.5 -2 Q88 8 70.5 26 Q53 44 43.5 68.5 Q34 93 34 122 Z M179 57 Q196 57 209 62 Q222 67 231.5 74 Q241 81 247.5 89.5 Q254 98 259 104 L259 210 L233 209 Q175 207 145 189 Q115 171 115 131 Q115 94 132 75.5 Q149 57 179 57 Z M163 558 L62 688 L62 690 L160 690 L239 558 L163 558 Z " />
<glyph glyph-name="amacron" unicode="&#x101;" horiz-adv-x="399" d="M34 122 Q34 164 50 192 Q66 220 93 237.5 Q120 255 156.5 262.5 Q193 270 234 270 L259 270 L259 316 Q259 377 237.5 400 Q216 423 177 423 Q141 423 117 407.5 Q93 392 79 380 L45 434 Q53 442 65.5 452 Q78 462 96 471 Q114 480 137 486 Q160 492 189 492 Q263 492 301 451 Q339 410 339 319 L339 100 Q339 69 341 39.5 Q343 10 345 0 L268 0 L265 53 L263 53 Q259 44 251 32.5 Q243 21 231 11.5 Q219 2 202 -5 Q185 -12 162 -12 Q135 -12 111.5 -2 Q88 8 70.5 26 Q53 44 43.5 68.5 Q34 93 34 122 Z M179 57 Q196 57 209 62 Q222 67 231.5 74 Q241 81 247.5 89.5 Q254 98 259 104 L259 210 L233 209 Q175 207 145 189 Q115 171 115 131 Q115 94 132 75.5 Q149 57 179 57 Z M289 582 L89 582 L89 646 L289 646 L289 582 Z " />
<glyph glyph-name="aogonek" unicode="&#x105;" horiz-adv-x="399" d="M364 -193 Q359 -197 342.5 -204.5 Q326 -212 298 -212 Q253 -212 230 -187.5 Q207 -163 207 -119 Q207 -78 227 -47 Q247 -16 267 4 L265 53 L263 53 Q259 44 251 32.5 Q243 21 231 11.5 Q219 2 202 -5 Q185 -12 162 -12 Q135 -12 111.5 -2 Q88 8 70.5 26 Q53 44 43.5 68.5 Q34 93 34 122 Q34 164 50 192 Q66 220 93 237.5 Q120 255 156.5 262.5 Q193 270 234 270 L259 270 L259 316 Q259 377 237.5 400 Q216 423 177 423 Q141 423 117 407.5 Q93 392 79 380 L45 434 Q53 442 65.5 452 Q78 462 96 471 Q114 480 137 486 Q160 492 189 492 Q263 492 301 451 Q339 410 339 319 L339 100 Q339 69 341 39.5 Q343 10 345 0 L327 0 Q313 -14 297.5 -38.5 Q282 -63 282 -98 Q282 -122 291.5 -131 Q301 -140 317 -140 Q329 -140 337 -137 Q345 -134 349 -132 L364 -193 Z M179 57 Q196 57 209 62 Q222 67 231.5 74 Q241 81 247.5 89.5 Q254 98 259 104 L259 210 L233 209 Q175 207 145 189 Q115 171 115 131 Q115 94 132 75.5 Q149 57 179 57 Z " />
<glyph glyph-name="aring" unicode="&#xe5;" horiz-adv-x="399" d="M34 122 Q34 164 50 192 Q66 220 93 237.5 Q120 255 156.5 262.5 Q193 270 234 270 L259 270 L259 316 Q259 377 237.5 400 Q216 423 177 423 Q141 423 117 407.5 Q93 392 79 380 L45 434 Q53 442 65.5 452 Q78 462 96 471 Q114 480 137 486 Q160 492 189 492 Q263 492 301 451 Q339 410 339 319 L339 100 Q339 69 341 39.5 Q343 10 345 0 L268 0 L265 53 L263 53 Q259 44 251 32.5 Q243 21 231 11.5 Q219 2 202 -5 Q185 -12 162 -12 Q135 -12 111.5 -2 Q88 8 70.5 26 Q53 44 43.5 68.5 Q34 93 34 122 Z M179 57 Q196 57 209 62 Q222 67 231.5 74 Q241 81 247.5 89.5 Q254 98 259 104 L259 210 L233 209 Q175 207 145 189 Q115 171 115 131 Q115 94 132 75.5 Q149 57 179 57 Z M269 637 Q269 599 246.5 576.5 Q224 554 189 554 Q154 554 131.5 576.5 Q109 599 109 637 Q109 675 131.5 698 Q154 721 189 721 Q224 721 246.5 698 Q269 675 269 637 Z M223 637 Q223 678 189 678 Q155 678 155 637 Q155 597 189 597 Q223 597 223 637 Z " />
<glyph glyph-name="aringacute" unicode="&#x1fb;" horiz-adv-x="399" d="M34 122 Q34 164 50 192 Q66 220 93 237.5 Q120 255 156.5 262.5 Q193 270 234 270 L259 270 L259 316 Q259 377 237.5 400 Q216 423 177 423 Q141 423 117 407.5 Q93 392 79 380 L45 434 Q53 442 65.5 452 Q78 462 96 471 Q114 480 137 486 Q160 492 189 492 Q263 492 301 451 Q339 410 339 319 L339 100 Q339 69 341 39.5 Q343 10 345 0 L268 0 L265 53 L263 53 Q259 44 251 32.5 Q243 21 231 11.5 Q219 2 202 -5 Q185 -12 162 -12 Q135 -12 111.5 -2 Q88 8 70.5 26 Q53 44 43.5 68.5 Q34 93 34 122 Z M179 57 Q196 57 209 62 Q222 67 231.5 74 Q241 81 247.5 89.5 Q254 98 259 104 L259 210 L233 209 Q175 207 145 189 Q115 171 115 131 Q115 94 132 75.5 Q149 57 179 57 Z M223 619 Q223 636 213 644.5 Q203 653 189 653 Q175 653 164.5 644.5 Q154 636 154 619 Q154 601 164.5 592.5 Q175 584 189 584 Q203 584 213 592.5 Q223 601 223 619 Z M264 619 Q264 587 243 567.5 Q222 548 189 548 Q156 548 134.5 567.5 Q113 587 113 619 Q113 651 134.5 670 Q156 689 189 689 Q222 689 243 670 Q264 651 264 619 Z M259 748 L118 691 L118 727 L259 802 L259 748 Z " />
<glyph glyph-name="atilde" unicode="&#xe3;" horiz-adv-x="399" d="M34 122 Q34 164 50 192 Q66 220 93 237.5 Q120 255 156.5 262.5 Q193 270 234 270 L259 270 L259 316 Q259 377 237.5 400 Q216 423 177 423 Q141 423 117 407.5 Q93 392 79 380 L45 434 Q53 442 65.5 452 Q78 462 96 471 Q114 480 137 486 Q160 492 189 492 Q263 492 301 451 Q339 410 339 319 L339 100 Q339 69 341 39.5 Q343 10 345 0 L268 0 L265 53 L263 53 Q259 44 251 32.5 Q243 21 231 11.5 Q219 2 202 -5 Q185 -12 162 -12 Q135 -12 111.5 -2 Q88 8 70.5 26 Q53 44 43.5 68.5 Q34 93 34 122 Z M179 57 Q196 57 209 62 Q222 67 231.5 74 Q241 81 247.5 89.5 Q254 98 259 104 L259 210 L233 209 Q175 207 145 189 Q115 171 115 131 Q115 94 132 75.5 Q149 57 179 57 Z M317 667 Q316 618 298.5 589.5 Q281 561 245 561 Q225 561 210 569 Q195 577 182.5 587 Q170 597 158 605 Q146 613 134 613 Q120 613 114 600 Q108 587 107 568 L61 568 Q61 617 78 645.5 Q95 674 132 674 Q151 674 166 666 Q181 658 194 648.5 Q207 639 219 631 Q231 623 244 623 Q258 623 264 635 Q270 647 271 667 L317 667 L317 667 Z " />
<glyph glyph-name="b" unicode="b" horiz-adv-x="461" d="M420 262 Q420 185 402 133 Q384 81 354 49.5 Q324 18 284 4.5 Q244 -9 199 -9 Q170 -9 147 -3.5 Q124 2 107 9.5 Q90 17 78.5 25 Q67 33 61 38 L61 707 L142 714 L142 434 L144 434 Q149 442 158.5 452 Q168 462 182 471 Q196 480 215.5 486 Q235 492 259 492 Q333 492 376.5 436.5 Q420 381 420 262 Z M336 252 Q336 342 309 382.5 Q282 423 235 423 Q197 423 176.5 407 Q156 391 142 374 L142 79 Q151 73 166 66.5 Q181 60 202 60 Q231 60 255.5 69.5 Q280 79 298 101.5 Q316 124 326 161 Q336 198 336 252 Z " />
<glyph glyph-name="c" unicode="c" horiz-adv-x="386" d="M329 387 Q326 390 319.5 396 Q313 402 303 408 Q293 414 279 418.5 Q265 423 247 423 Q221 423 198.5 413.5 Q176 404 159.5 383 Q143 362 133.5 328.5 Q124 295 124 247 Q124 194 132.5 158 Q141 122 156 100.5 Q171 79 192.5 69.5 Q214 60 240 60 Q277 60 296.5 73 Q316 86 324 94 L357 38 Q352 32 342.5 23.5 Q333 15 318 7 Q303 -1 281.5 -6.5 Q260 -12 232 -12 Q192 -12 157 1 Q122 14 96 44 Q70 74 55 122 Q40 170 40 241 Q40 310 58 358 Q76 406 105 435.5 Q134 465 169.5 478.5 Q205 492 241 492 Q268 492 288.5 487 Q309 482 323.5 474.5 Q338 467 347.5 458.5 Q357 450 363 444 L329 387 Z " />
<glyph glyph-name="cacute" unicode="&#x107;" horiz-adv-x="386" d="M329 387 Q326 390 319.5 396 Q313 402 303 408 Q293 414 279 418.5 Q265 423 247 423 Q221 423 198.5 413.5 Q176 404 159.5 383 Q143 362 133.5 328.5 Q124 295 124 247 Q124 194 132.5 158 Q141 122 156 100.5 Q171 79 192.5 69.5 Q214 60 240 60 Q277 60 296.5 73 Q316 86 324 94 L357 38 Q352 32 342.5 23.5 Q333 15 318 7 Q303 -1 281.5 -6.5 Q260 -12 232 -12 Q192 -12 157 1 Q122 14 96 44 Q70 74 55 122 Q40 170 40 241 Q40 310 58 358 Q76 406 105 435.5 Q134 465 169.5 478.5 Q205 492 241 492 Q268 492 288.5 487 Q309 482 323.5 474.5 Q338 467 347.5 458.5 Q357 450 363 444 L329 387 Z M358 688 L256 558 L181 558 L260 690 L358 690 L358 688 Z " />
<glyph glyph-name="ccaron" unicode="&#x10d;" horiz-adv-x="386" d="M329 387 Q326 390 319.5 396 Q313 402 303 408 Q293 414 279 418.5 Q265 423 247 423 Q221 423 198.5 413.5 Q176 404 159.5 383 Q143 362 133.5 328.5 Q124 295 124 247 Q124 194 132.5 158 Q141 122 156 100.5 Q171 79 192.5 69.5 Q214 60 240 60 Q277 60 296.5 73 Q316 86 324 94 L357 38 Q352 32 342.5 23.5 Q333 15 318 7 Q303 -1 281.5 -6.5 Q260 -12 232 -12 Q192 -12 157 1 Q122 14 96 44 Q70 74 55 122 Q40 170 40 241 Q40 310 58 358 Q76 406 105 435.5 Q134 465 169.5 478.5 Q205 492 241 492 Q268 492 288.5 487 Q309 482 323.5 474.5 Q338 467 347.5 458.5 Q357 450 363 444 L329 387 Z M276 560 L184 560 L111 700 L172 700 L230 613 L231 613 L289 700 L350 700 L276 560 Z " />
<glyph glyph-name="ccedilla" unicode="&#xe7;" horiz-adv-x="386" d="M303 -127 Q303 -165 277.5 -186.5 Q252 -208 205 -208 Q182 -208 168 -203.5 Q154 -199 144 -194 L144 -150 Q152 -155 164 -158 Q176 -161 192 -161 Q238 -161 238 -126 Q238 -83 167 -83 L164 -80 L197 -9 Q163 -4 134.5 12 Q106 28 85 58 Q64 88 52 133 Q40 178 40 241 Q40 310 58 358 Q76 406 105 435.5 Q134 465 169.5 478.5 Q205 492 241 492 Q268 492 288.5 487 Q309 482 323.5 474.5 Q338 467 347.5 458.5 Q357 450 363 444 L329 387 Q326 390 319.5 396 Q313 402 303 408 Q293 414 279 418.5 Q265 423 247 423 Q221 423 198.5 413.5 Q176 404 159.5 383 Q143 362 133.5 328.5 Q124 295 124 247 Q124 194 132.5 158 Q141 122 156 100.5 Q171 79 192.5 69.5 Q214 60 240 60 Q277 60 296.5 73 Q316 86 324 94 L357 38 Q352 33 343.5 25 Q335 17 321.5 9.5 Q308 2 289 -4 Q270 -10 246 -11 L228 -55 Q266 -57 284.5 -77 Q303 -97 303 -127 Z " />
<glyph glyph-name="ccircumflex" unicode="&#x109;" horiz-adv-x="386" d="M329 387 Q326 390 319.5 396 Q313 402 303 408 Q293 414 279 418.5 Q265 423 247 423 Q221 423 198.5 413.5 Q176 404 159.5 383 Q143 362 133.5 328.5 Q124 295 124 247 Q124 194 132.5 158 Q141 122 156 100.5 Q171 79 192.5 69.5 Q214 60 240 60 Q277 60 296.5 73 Q316 86 324 94 L357 38 Q352 32 342.5 23.5 Q333 15 318 7 Q303 -1 281.5 -6.5 Q260 -12 232 -12 Q192 -12 157 1 Q122 14 96 44 Q70 74 55 122 Q40 170 40 241 Q40 310 58 358 Q76 406 105 435.5 Q134 465 169.5 478.5 Q205 492 241 492 Q268 492 288.5 487 Q309 482 323.5 474.5 Q338 467 347.5 458.5 Q357 450 363 444 L329 387 Z M289 557 L231 645 L230 645 L172 557 L111 557 L184 699 L276 699 L350 557 L289 557 Z " />
<glyph glyph-name="cdotaccent" unicode="&#x10b;" horiz-adv-x="386" d="M329 387 Q326 390 319.5 396 Q313 402 303 408 Q293 414 279 418.5 Q265 423 247 423 Q221 423 198.5 413.5 Q176 404 159.5 383 Q143 362 133.5 328.5 Q124 295 124 247 Q124 194 132.5 158 Q141 122 156 100.5 Q171 79 192.5 69.5 Q214 60 240 60 Q277 60 296.5 73 Q316 86 324 94 L357 38 Q352 32 342.5 23.5 Q333 15 318 7 Q303 -1 281.5 -6.5 Q260 -12 232 -12 Q192 -12 157 1 Q122 14 96 44 Q70 74 55 122 Q40 170 40 241 Q40 310 58 358 Q76 406 105 435.5 Q134 465 169.5 478.5 Q205 492 241 492 Q268 492 288.5 487 Q309 482 323.5 474.5 Q338 467 347.5 458.5 Q357 450 363 444 L329 387 Z M282 619 Q282 594 267 580 Q252 566 231 566 Q210 566 195.5 580 Q181 594 181 619 Q181 645 195.5 659 Q210 673 231 673 Q252 673 267 659 Q282 645 282 619 Z " />
<glyph glyph-name="d" unicode="d" horiz-adv-x="463" d="M40 233 Q40 306 59 355 Q78 404 108 434 Q138 464 176 476.5 Q214 489 252 489 Q275 489 292 485.5 Q309 482 320 477 L320 707 L401 716 L401 0 L327 0 L327 51 L325 51 Q322 45 314 34.5 Q306 24 292 13.5 Q278 3 257 -4.5 Q236 -12 208 -12 Q174 -12 143.5 1.5 Q113 15 90 44.5 Q67 74 53.5 120.5 Q40 167 40 233 Z M230 60 Q249 60 264 65 Q279 70 290 77.5 Q301 85 308.5 93 Q316 101 320 107 L320 403 Q309 410 294.5 415 Q280 420 258 420 Q230 420 205.5 410.5 Q181 401 163 379 Q145 357 134.5 322 Q124 287 124 236 Q124 186 132.5 152.5 Q141 119 156 98.5 Q171 78 190 69 Q209 60 230 60 Z " />
<glyph glyph-name="dcaron" unicode="&#x10f;" horiz-adv-x="483" d="M40 233 Q40 306 59 355 Q78 404 108 434 Q138 464 176 476.5 Q214 489 252 489 Q275 489 292 485.5 Q309 482 320 477 L320 707 L401 716 L401 0 L327 0 L327 51 L325 51 Q322 45 314 34.5 Q306 24 292 13.5 Q278 3 257 -4.5 Q236 -12 208 -12 Q174 -12 143.5 1.5 Q113 15 90 44.5 Q67 74 53.5 120.5 Q40 167 40 233 Z M230 60 Q249 60 264 65 Q279 70 290 77.5 Q301 85 308.5 93 Q316 101 320 107 L320 403 Q309 410 294.5 415 Q280 420 258 420 Q230 420 205.5 410.5 Q181 401 163 379 Q145 357 134.5 322 Q124 287 124 236 Q124 186 132.5 152.5 Q141 119 156 98.5 Q171 78 190 69 Q209 60 230 60 Z M569 649 Q569 623 561 604.5 Q553 586 540 573 Q527 560 510.5 552 Q494 544 478 539 L464 569 Q481 577 497.5 591 Q514 605 518 633 Q499 633 486.5 644.5 Q474 656 474 679 Q474 700 486.5 711 Q499 722 516 722 Q539 722 554 704.5 Q569 687 569 649 Z " />
<glyph glyph-name="dcroat" unicode="&#x111;" horiz-adv-x="463" d="M401 631 L468 631 L468 583 L401 583 L401 0 L327 0 L327 51 L325 51 Q322 45 314 34.5 Q306 24 292 13.5 Q278 3 257 -4.5 Q236 -12 208 -12 Q174 -12 143.5 1.5 Q113 15 90 44.5 Q67 74 53.5 120.5 Q40 167 40 233 Q40 306 59 355 Q78 404 108 434 Q138 464 176 476.5 Q214 489 252 489 Q275 489 292 485.5 Q309 482 320 477 L320 583 L180 583 L180 631 L320 631 L320 707 L401 716 L401 631 Z M230 60 Q249 60 264 65 Q279 70 290 77.5 Q301 85 308.5 93 Q316 101 320 107 L320 403 Q309 410 294.5 415 Q280 420 258 420 Q230 420 205.5 410.5 Q181 401 163 379 Q145 357 134.5 322 Q124 287 124 236 Q124 186 132.5 152.5 Q141 119 156 98.5 Q171 78 190 69 Q209 60 230 60 Z " />
<glyph glyph-name="eth" unicode="&#xf0;" horiz-adv-x="454" d="M369 682 L287 629 Q313 602 335 566.5 Q357 531 373 485.5 Q389 440 398 384 Q407 328 407 261 Q407 125 356.5 56.5 Q306 -12 223 -12 Q183 -12 149.5 3.5 Q116 19 91.5 49.5 Q67 80 53.5 126.5 Q40 173 40 236 Q40 303 55.5 350.5 Q71 398 97 428 Q123 458 156.5 472 Q190 486 226 486 Q255 486 271 478 Q287 470 293 465 L295 465 Q281 505 261 534.5 Q241 564 218 586 L121 524 L97 564 L180 616 Q158 630 136.5 639 Q115 648 93 654 L120 722 Q154 714 187 699 Q220 684 250 661 L346 722 L369 682 Z M326 261 Q326 299 323 331 Q320 363 315 392 Q303 401 283.5 409 Q264 417 237 417 Q184 417 154 378 Q124 339 124 245 Q124 149 152.5 104.5 Q181 60 227 60 Q277 60 301.5 109 Q326 158 326 261 Z " />
<glyph glyph-name="e" unicode="e" horiz-adv-x="416" d="M370 318 Q370 287 368 264.5 Q366 242 364 225 L119 225 Q123 140 155.5 100 Q188 60 249 60 Q270 60 287 65 Q304 70 316.5 77 Q329 84 337.5 91 Q346 98 350 102 L380 45 Q375 40 365 30.5 Q355 21 338 11.5 Q321 2 296 -5 Q271 -12 237 -12 Q192 -12 155.5 3 Q119 18 93.5 49.5 Q68 81 54 129.5 Q40 178 40 246 Q40 310 54.5 356.5 Q69 403 94 433 Q119 463 152 477.5 Q185 492 223 492 Q292 492 331 448.5 Q370 405 370 318 Z M218 426 Q175 426 149 390 Q123 354 119 286 L294 286 Q295 291 295.5 300.5 Q296 310 296 321 Q296 371 276 398.5 Q256 426 218 426 Z " />
<glyph glyph-name="eacute" unicode="&#xe9;" horiz-adv-x="416" d="M370 318 Q370 287 368 264.5 Q366 242 364 225 L119 225 Q123 140 155.5 100 Q188 60 249 60 Q270 60 287 65 Q304 70 316.5 77 Q329 84 337.5 91 Q346 98 350 102 L380 45 Q375 40 365 30.5 Q355 21 338 11.5 Q321 2 296 -5 Q271 -12 237 -12 Q192 -12 155.5 3 Q119 18 93.5 49.5 Q68 81 54 129.5 Q40 178 40 246 Q40 310 54.5 356.5 Q69 403 94 433 Q119 463 152 477.5 Q185 492 223 492 Q292 492 331 448.5 Q370 405 370 318 Z M218 426 Q175 426 149 390 Q123 354 119 286 L294 286 Q295 291 295.5 300.5 Q296 310 296 321 Q296 371 276 398.5 Q256 426 218 426 Z M341 687 L239 557 L164 557 L243 689 L341 689 L341 687 Z " />
<glyph glyph-name="ebreve" unicode="&#x115;" horiz-adv-x="416" d="M370 318 Q370 287 368 264.5 Q366 242 364 225 L119 225 Q123 140 155.5 100 Q188 60 249 60 Q270 60 287 65 Q304 70 316.5 77 Q329 84 337.5 91 Q346 98 350 102 L380 45 Q375 40 365 30.5 Q355 21 338 11.5 Q321 2 296 -5 Q271 -12 237 -12 Q192 -12 155.5 3 Q119 18 93.5 49.5 Q68 81 54 129.5 Q40 178 40 246 Q40 310 54.5 356.5 Q69 403 94 433 Q119 463 152 477.5 Q185 492 223 492 Q292 492 331 448.5 Q370 405 370 318 Z M218 426 Q175 426 149 390 Q123 354 119 286 L294 286 Q295 291 295.5 300.5 Q296 310 296 321 Q296 371 276 398.5 Q256 426 218 426 Z M323 680 Q321 625 295.5 590.5 Q270 556 213 556 Q157 556 131 590.5 Q105 625 103 680 L158 680 Q159 648 173 632.5 Q187 617 213 617 Q239 617 253 632.5 Q267 648 268 680 L323 680 L323 680 Z " />
<glyph glyph-name="ecaron" unicode="&#x11b;" horiz-adv-x="416" d="M370 318 Q370 287 368 264.5 Q366 242 364 225 L119 225 Q123 140 155.5 100 Q188 60 249 60 Q270 60 287 65 Q304 70 316.5 77 Q329 84 337.5 91 Q346 98 350 102 L380 45 Q375 40 365 30.5 Q355 21 338 11.5 Q321 2 296 -5 Q271 -12 237 -12 Q192 -12 155.5 3 Q119 18 93.5 49.5 Q68 81 54 129.5 Q40 178 40 246 Q40 310 54.5 356.5 Q69 403 94 433 Q119 463 152 477.5 Q185 492 223 492 Q292 492 331 448.5 Q370 405 370 318 Z M218 426 Q175 426 149 390 Q123 354 119 286 L294 286 Q295 291 295.5 300.5 Q296 310 296 321 Q296 371 276 398.5 Q256 426 218 426 Z M259 559 L167 559 L94 699 L155 699 L213 612 L214 612 L272 699 L333 699 L259 559 Z " />
<glyph glyph-name="ecircumflex" unicode="&#xea;" horiz-adv-x="416" d="M370 318 Q370 287 368 264.5 Q366 242 364 225 L119 225 Q123 140 155.5 100 Q188 60 249 60 Q270 60 287 65 Q304 70 316.5 77 Q329 84 337.5 91 Q346 98 350 102 L380 45 Q375 40 365 30.5 Q355 21 338 11.5 Q321 2 296 -5 Q271 -12 237 -12 Q192 -12 155.5 3 Q119 18 93.5 49.5 Q68 81 54 129.5 Q40 178 40 246 Q40 310 54.5 356.5 Q69 403 94 433 Q119 463 152 477.5 Q185 492 223 492 Q292 492 331 448.5 Q370 405 370 318 Z M218 426 Q175 426 149 390 Q123 354 119 286 L294 286 Q295 291 295.5 300.5 Q296 310 296 321 Q296 371 276 398.5 Q256 426 218 426 Z M272 556 L214 644 L213 644 L155 556 L94 556 L167 698 L259 698 L333 556 L272 556 Z " />
<glyph glyph-name="edieresis" unicode="&#xeb;" horiz-adv-x="416" d="M370 318 Q370 287 368 264.5 Q366 242 364 225 L119 225 Q123 140 155.5 100 Q188 60 249 60 Q270 60 287 65 Q304 70 316.5 77 Q329 84 337.5 91 Q346 98 350 102 L380 45 Q375 40 365 30.5 Q355 21 338 11.5 Q321 2 296 -5 Q271 -12 237 -12 Q192 -12 155.5 3 Q119 18 93.5 49.5 Q68 81 54 129.5 Q40 178 40 246 Q40 310 54.5 356.5 Q69 403 94 433 Q119 463 152 477.5 Q185 492 223 492 Q292 492 331 448.5 Q370 405 370 318 Z M218 426 Q175 426 149 390 Q123 354 119 286 L294 286 Q295 291 295.5 300.5 Q296 310 296 321 Q296 371 276 398.5 Q256 426 218 426 Z M184 617 Q184 594 170 580 Q156 566 136 566 Q116 566 102 580 Q88 594 88 617 Q88 640 102 654 Q116 668 136 668 Q156 668 170 654 Q184 640 184 617 Z M338 617 Q338 594 324 580 Q310 566 290 566 Q270 566 256 580 Q242 594 242 617 Q242 640 256 654 Q270 668 290 668 Q310 668 324 654 Q338 640 338 617 Z " />
<glyph glyph-name="edotaccent" unicode="&#x117;" horiz-adv-x="416" d="M370 318 Q370 287 368 264.5 Q366 242 364 225 L119 225 Q123 140 155.5 100 Q188 60 249 60 Q270 60 287 65 Q304 70 316.5 77 Q329 84 337.5 91 Q346 98 350 102 L380 45 Q375 40 365 30.5 Q355 21 338 11.5 Q321 2 296 -5 Q271 -12 237 -12 Q192 -12 155.5 3 Q119 18 93.5 49.5 Q68 81 54 129.5 Q40 178 40 246 Q40 310 54.5 356.5 Q69 403 94 433 Q119 463 152 477.5 Q185 492 223 492 Q292 492 331 448.5 Q370 405 370 318 Z M218 426 Q175 426 149 390 Q123 354 119 286 L294 286 Q295 291 295.5 300.5 Q296 310 296 321 Q296 371 276 398.5 Q256 426 218 426 Z M265 618 Q265 593 250 579 Q235 565 214 565 Q193 565 178.5 579 Q164 593 164 618 Q164 644 178.5 658 Q193 672 214 672 Q235 672 250 658 Q265 644 265 618 Z " />
<glyph glyph-name="egrave" unicode="&#xe8;" horiz-adv-x="416" d="M370 318 Q370 287 368 264.5 Q366 242 364 225 L119 225 Q123 140 155.5 100 Q188 60 249 60 Q270 60 287 65 Q304 70 316.5 77 Q329 84 337.5 91 Q346 98 350 102 L380 45 Q375 40 365 30.5 Q355 21 338 11.5 Q321 2 296 -5 Q271 -12 237 -12 Q192 -12 155.5 3 Q119 18 93.5 49.5 Q68 81 54 129.5 Q40 178 40 246 Q40 310 54.5 356.5 Q69 403 94 433 Q119 463 152 477.5 Q185 492 223 492 Q292 492 331 448.5 Q370 405 370 318 Z M218 426 Q175 426 149 390 Q123 354 119 286 L294 286 Q295 291 295.5 300.5 Q296 310 296 321 Q296 371 276 398.5 Q256 426 218 426 Z M187 557 L86 687 L86 689 L184 689 L263 557 L187 557 Z " />
<glyph glyph-name="emacron" unicode="&#x113;" horiz-adv-x="416" d="M370 318 Q370 287 368 264.5 Q366 242 364 225 L119 225 Q123 140 155.5 100 Q188 60 249 60 Q270 60 287 65 Q304 70 316.5 77 Q329 84 337.5 91 Q346 98 350 102 L380 45 Q375 40 365 30.5 Q355 21 338 11.5 Q321 2 296 -5 Q271 -12 237 -12 Q192 -12 155.5 3 Q119 18 93.5 49.5 Q68 81 54 129.5 Q40 178 40 246 Q40 310 54.5 356.5 Q69 403 94 433 Q119 463 152 477.5 Q185 492 223 492 Q292 492 331 448.5 Q370 405 370 318 Z M218 426 Q175 426 149 390 Q123 354 119 286 L294 286 Q295 291 295.5 300.5 Q296 310 296 321 Q296 371 276 398.5 Q256 426 218 426 Z M313 581 L113 581 L113 645 L313 645 L313 581 Z " />
<glyph glyph-name="eogonek" unicode="&#x119;" horiz-adv-x="416" d="M349 -193 Q344 -197 327.5 -204.5 Q311 -212 283 -212 Q238 -212 215 -187.5 Q192 -163 192 -119 Q192 -86 206 -59 Q220 -32 237 -12 Q192 -12 155.5 3 Q119 18 93.5 49.5 Q68 81 54 129.5 Q40 178 40 246 Q40 310 54.5 356.5 Q69 403 94 433 Q119 463 152 477.5 Q185 492 223 492 Q292 492 331 448.5 Q370 405 370 318 Q370 287 368 264.5 Q366 242 364 225 L119 225 Q123 140 155.5 100 Q188 60 249 60 Q270 60 287 65 Q304 70 316.5 77 Q329 84 337.5 91 Q346 98 350 102 L380 45 Q373 37 357 23.5 Q341 10 312 0 Q298 -14 282.5 -38.5 Q267 -63 267 -98 Q267 -122 276.5 -131 Q286 -140 302 -140 Q314 -140 322 -137 Q330 -134 334 -132 L349 -193 Z M218 426 Q175 426 149 390 Q123 354 119 286 L294 286 Q295 291 295.5 300.5 Q296 310 296 321 Q296 371 276 398.5 Q256 426 218 426 Z " />
<glyph glyph-name="uni0259" unicode="&#x259;" horiz-adv-x="415" d="M374 234 Q374 170 360.5 123.5 Q347 77 323 47 Q299 17 266 2.5 Q233 -12 194 -12 Q125 -12 84.5 33 Q44 78 44 165 Q44 196 46 218.5 Q48 241 50 258 L294 258 Q290 343 259 383 Q228 423 169 423 Q148 423 131 418 Q114 413 101.5 406 Q89 399 80.5 391.5 Q72 384 68 380 L38 434 Q43 439 54 449 Q65 459 82.5 468.5 Q100 478 124.5 485 Q149 492 181 492 Q270 492 322 431 Q374 370 374 234 Z M199 57 Q242 57 266.5 92.5 Q291 128 294 197 L120 197 Q119 192 118.5 182.5 Q118 173 118 162 Q118 112 139.5 84.5 Q161 57 199 57 Z " />
<glyph glyph-name="f" unicode="f" horiz-adv-x="282" d="M264 414 L166 414 L166 0 L85 0 L85 414 L27 414 L27 468 L85 479 L85 575 Q85 614 96 642 Q107 670 125 688 Q143 706 167 714 Q191 722 218 722 Q244 722 262 715 Q280 708 286 704 L269 637 Q263 641 252 645.5 Q241 650 225 650 Q196 650 181 632 Q166 614 166 566 L166 480 L274 480 L264 414 Z " />
<glyph glyph-name="fi" unicode="&#xfb01;" horiz-adv-x="487" d="M264 414 L166 414 L166 0 L85 0 L85 414 L27 414 L27 468 L85 479 L85 575 Q85 614 96 642 Q107 670 125 688 Q143 706 167 714 Q191 722 218 722 Q244 722 262 715 Q280 708 286 704 L269 637 Q263 641 252 645.5 Q241 650 225 650 Q196 650 181 632 Q166 614 166 566 L166 480 L274 480 L264 414 Z M425 0 L344 0 L344 480 L425 480 L425 0 Z M385 596 Q360 596 345 612 Q330 628 330 654 Q330 679 345 695 Q360 711 385 711 Q409 711 424 695 Q439 679 439 654 Q439 628 424 612 Q409 596 385 596 Z " />
<glyph glyph-name="fl" unicode="&#xfb02;" horiz-adv-x="510" d="M264 414 L166 414 L166 0 L85 0 L85 414 L27 414 L27 468 L85 479 L85 575 Q85 614 96 642 Q107 670 125 688 Q143 706 167 714 Q191 722 218 722 Q244 722 262 715 Q280 708 286 704 L269 637 Q263 641 252 645.5 Q241 650 225 650 Q196 650 181 632 Q166 614 166 566 L166 480 L274 480 L264 414 Z M424 112 Q424 82 432.5 70 Q441 58 462 58 Q473 58 480.5 60 Q488 62 492 64 L499 4 Q493 1 477 -4 Q461 -9 434 -9 Q393 -9 368 16 Q343 41 343 105 L343 707 L424 716 L424 112 Z " />
<glyph glyph-name="g" unicode="g" horiz-adv-x="436" d="M406 417 L346 417 Q369 379 369 331 Q369 293 356.5 262.5 Q344 232 321.5 211 Q299 190 268.5 179 Q238 168 203 168 Q196 168 190 168 Q184 168 177 169 Q165 164 152 153 Q139 142 139 124 Q139 109 150.5 99.5 Q162 90 188 90 L249 90 Q283 90 312 83 Q341 76 362.5 60.5 Q384 45 396 21 Q408 -3 408 -37 Q408 -76 391.5 -108 Q375 -140 345 -163 Q315 -186 272 -199 Q229 -212 176 -212 Q99 -212 59 -178.5 Q19 -145 19 -82 Q19 -55 28.5 -35.5 Q38 -16 51 -1.5 Q64 13 77.5 21.5 Q91 30 99 35 L99 37 Q68 60 68 104 Q68 123 75.5 137 Q83 151 92.5 160 Q102 169 111.5 174.5 Q121 180 126 182 L126 184 Q89 201 66.5 237.5 Q44 274 44 331 Q44 371 57 401.5 Q70 432 92 452 Q114 472 143.5 482 Q173 492 207 492 Q241 492 271 480 L417 480 L406 417 Z M183 15 Q162 15 146 18 Q137 13 128.5 6 Q120 -1 113 -11 Q106 -21 101.5 -34.5 Q97 -48 97 -66 Q97 -143 182 -143 Q255 -143 290 -114.5 Q325 -86 325 -49 Q325 -14 303 0.5 Q281 15 244 15 L183 15 Z M290 331 Q290 383 265.5 405 Q241 427 208 427 Q173 427 148 405 Q123 383 123 331 Q123 279 148 257 Q173 235 206 235 Q241 235 265.5 257 Q290 279 290 331 Z " />
<glyph glyph-name="gbreve" unicode="&#x11f;" horiz-adv-x="436" d="M406 417 L346 417 Q369 379 369 331 Q369 293 356.5 262.5 Q344 232 321.5 211 Q299 190 268.5 179 Q238 168 203 168 Q196 168 190 168 Q184 168 177 169 Q165 164 152 153 Q139 142 139 124 Q139 109 150.5 99.5 Q162 90 188 90 L249 90 Q283 90 312 83 Q341 76 362.5 60.5 Q384 45 396 21 Q408 -3 408 -37 Q408 -76 391.5 -108 Q375 -140 345 -163 Q315 -186 272 -199 Q229 -212 176 -212 Q99 -212 59 -178.5 Q19 -145 19 -82 Q19 -55 28.5 -35.5 Q38 -16 51 -1.5 Q64 13 77.5 21.5 Q91 30 99 35 L99 37 Q68 60 68 104 Q68 123 75.5 137 Q83 151 92.5 160 Q102 169 111.5 174.5 Q121 180 126 182 L126 184 Q89 201 66.5 237.5 Q44 274 44 331 Q44 371 57 401.5 Q70 432 92 452 Q114 472 143.5 482 Q173 492 207 492 Q241 492 271 480 L417 480 L406 417 Z M183 15 Q162 15 146 18 Q137 13 128.5 6 Q120 -1 113 -11 Q106 -21 101.5 -34.5 Q97 -48 97 -66 Q97 -143 182 -143 Q255 -143 290 -114.5 Q325 -86 325 -49 Q325 -14 303 0.5 Q281 15 244 15 L183 15 Z M290 331 Q290 383 265.5 405 Q241 427 208 427 Q173 427 148 405 Q123 383 123 331 Q123 279 148 257 Q173 235 206 235 Q241 235 265.5 257 Q290 279 290 331 Z M323 681 Q321 626 295.5 591.5 Q270 557 213 557 Q157 557 131 591.5 Q105 626 103 681 L158 681 Q159 649 173 633.5 Q187 618 213 618 Q239 618 253 633.5 Q267 649 268 681 L323 681 L323 681 Z " />
<glyph glyph-name="gcircumflex" unicode="&#x11d;" horiz-adv-x="436" d="M406 417 L346 417 Q369 379 369 331 Q369 293 356.5 262.5 Q344 232 321.5 211 Q299 190 268.5 179 Q238 168 203 168 Q196 168 190 168 Q184 168 177 169 Q165 164 152 153 Q139 142 139 124 Q139 109 150.5 99.5 Q162 90 188 90 L249 90 Q283 90 312 83 Q341 76 362.5 60.5 Q384 45 396 21 Q408 -3 408 -37 Q408 -76 391.5 -108 Q375 -140 345 -163 Q315 -186 272 -199 Q229 -212 176 -212 Q99 -212 59 -178.5 Q19 -145 19 -82 Q19 -55 28.5 -35.5 Q38 -16 51 -1.5 Q64 13 77.5 21.5 Q91 30 99 35 L99 37 Q68 60 68 104 Q68 123 75.5 137 Q83 151 92.5 160 Q102 169 111.5 174.5 Q121 180 126 182 L126 184 Q89 201 66.5 237.5 Q44 274 44 331 Q44 371 57 401.5 Q70 432 92 452 Q114 472 143.5 482 Q173 492 207 492 Q241 492 271 480 L417 480 L406 417 Z M183 15 Q162 15 146 18 Q137 13 128.5 6 Q120 -1 113 -11 Q106 -21 101.5 -34.5 Q97 -48 97 -66 Q97 -143 182 -143 Q255 -143 290 -114.5 Q325 -86 325 -49 Q325 -14 303 0.5 Q281 15 244 15 L183 15 Z M290 331 Q290 383 265.5 405 Q241 427 208 427 Q173 427 148 405 Q123 383 123 331 Q123 279 148 257 Q173 235 206 235 Q241 235 265.5 257 Q290 279 290 331 Z M272 557 L214 645 L213 645 L155 557 L94 557 L167 699 L259 699 L333 557 L272 557 Z " />
<glyph glyph-name="gcommaaccent" unicode="&#x123;" horiz-adv-x="436" d="M406 417 L346 417 Q369 379 369 331 Q369 293 356.5 262.5 Q344 232 321.5 211 Q299 190 268.5 179 Q238 168 203 168 Q196 168 190 168 Q184 168 177 169 Q165 164 152 153 Q139 142 139 124 Q139 109 150.5 99.5 Q162 90 188 90 L249 90 Q283 90 312 83 Q341 76 362.5 60.5 Q384 45 396 21 Q408 -3 408 -37 Q408 -76 391.5 -108 Q375 -140 345 -163 Q315 -186 272 -199 Q229 -212 176 -212 Q99 -212 59 -178.5 Q19 -145 19 -82 Q19 -55 28.5 -35.5 Q38 -16 51 -1.5 Q64 13 77.5 21.5 Q91 30 99 35 L99 37 Q68 60 68 104 Q68 123 75.5 137 Q83 151 92.5 160 Q102 169 111.5 174.5 Q121 180 126 182 L126 184 Q89 201 66.5 237.5 Q44 274 44 331 Q44 371 57 401.5 Q70 432 92 452 Q114 472 143.5 482 Q173 492 207 492 Q241 492 271 480 L417 480 L406 417 Z M183 15 Q162 15 146 18 Q137 13 128.5 6 Q120 -1 113 -11 Q106 -21 101.5 -34.5 Q97 -48 97 -66 Q97 -143 182 -143 Q255 -143 290 -114.5 Q325 -86 325 -49 Q325 -14 303 0.5 Q281 15 244 15 L183 15 Z M290 331 Q290 383 265.5 405 Q241 427 208 427 Q173 427 148 405 Q123 383 123 331 Q123 279 148 257 Q173 235 206 235 Q241 235 265.5 257 Q290 279 290 331 Z M257 607 Q257 586 244 575 Q231 564 214 564 Q189 564 175.5 582 Q162 600 162 631 Q162 656 170.5 674 Q179 692 192 704 Q205 716 220 723.5 Q235 731 248 735 L263 705 Q247 700 231 688 Q215 676 212 653 L213 653 Q231 653 244 641.5 Q257 630 257 607 Z " />
<glyph glyph-name="gdotaccent" unicode="&#x121;" horiz-adv-x="436" d="M406 417 L346 417 Q369 379 369 331 Q369 293 356.5 262.5 Q344 232 321.5 211 Q299 190 268.5 179 Q238 168 203 168 Q196 168 190 168 Q184 168 177 169 Q165 164 152 153 Q139 142 139 124 Q139 109 150.5 99.5 Q162 90 188 90 L249 90 Q283 90 312 83 Q341 76 362.5 60.5 Q384 45 396 21 Q408 -3 408 -37 Q408 -76 391.5 -108 Q375 -140 345 -163 Q315 -186 272 -199 Q229 -212 176 -212 Q99 -212 59 -178.5 Q19 -145 19 -82 Q19 -55 28.5 -35.5 Q38 -16 51 -1.5 Q64 13 77.5 21.5 Q91 30 99 35 L99 37 Q68 60 68 104 Q68 123 75.5 137 Q83 151 92.5 160 Q102 169 111.5 174.5 Q121 180 126 182 L126 184 Q89 201 66.5 237.5 Q44 274 44 331 Q44 371 57 401.5 Q70 432 92 452 Q114 472 143.5 482 Q173 492 207 492 Q241 492 271 480 L417 480 L406 417 Z M183 15 Q162 15 146 18 Q137 13 128.5 6 Q120 -1 113 -11 Q106 -21 101.5 -34.5 Q97 -48 97 -66 Q97 -143 182 -143 Q255 -143 290 -114.5 Q325 -86 325 -49 Q325 -14 303 0.5 Q281 15 244 15 L183 15 Z M290 331 Q290 383 265.5 405 Q241 427 208 427 Q173 427 148 405 Q123 383 123 331 Q123 279 148 257 Q173 235 206 235 Q241 235 265.5 257 Q290 279 290 331 Z M265 619 Q265 594 250 580 Q235 566 214 566 Q193 566 178.5 580 Q164 594 164 619 Q164 645 178.5 659 Q193 673 214 673 Q235 673 250 659 Q265 645 265 619 Z " />
<glyph glyph-name="h" unicode="h" horiz-adv-x="464" d="M324 0 L324 309 Q324 370 303.5 396.5 Q283 423 241 423 Q205 423 181 405 Q157 387 143 370 L143 0 L62 0 L62 707 L143 716 L143 431 L145 431 Q149 437 157.5 447 Q166 457 181 467 Q196 477 217.5 484.5 Q239 492 268 492 Q331 492 368 451 Q405 410 405 315 L405 0 L324 0 Z " />
<glyph glyph-name="hbar" unicode="&#x127;" horiz-adv-x="464" d="M143 631 L283 631 L283 583 L143 583 L143 431 L145 431 Q149 437 157.5 447 Q166 457 181 467 Q196 477 217.5 484.5 Q239 492 268 492 Q331 492 368 451 Q405 410 405 315 L405 0 L324 0 L324 309 Q324 370 303.5 396.5 Q283 423 241 423 Q205 423 181 405 Q157 387 143 370 L143 0 L62 0 L62 583 L-5 583 L-5 631 L62 631 L62 707 L143 716 L143 631 Z " />
<glyph glyph-name="hcircumflex" unicode="&#x125;" horiz-adv-x="464" d="M324 0 L324 309 Q324 370 303.5 396.5 Q283 423 241 423 Q205 423 181 405 Q157 387 143 370 L143 0 L62 0 L62 707 L143 716 L143 431 L145 431 Q149 437 157.5 447 Q166 457 181 467 Q196 477 217.5 484.5 Q239 492 268 492 Q331 492 368 451 Q405 410 405 315 L405 0 L324 0 Z M56 868 L150 868 L221 750 L157 750 L104 823 L102 823 L49 750 L-14 750 L56 868 Z " />
<glyph glyph-name="i" unicode="i" horiz-adv-x="205" d="M143 0 L62 0 L62 480 L143 480 L143 0 Z M103 596 Q78 596 63 612 Q48 628 48 654 Q48 679 63 695 Q78 711 103 711 Q127 711 142 695 Q157 679 157 654 Q157 628 142 612 Q127 596 103 596 Z " />
<glyph glyph-name="iacute" unicode="&#xed;" horiz-adv-x="205" d="M143 0 L62 0 L62 480 L143 480 L143 0 Z M231 688 L129 558 L54 558 L133 690 L231 690 L231 688 Z " />
<glyph glyph-name="ibreve" unicode="&#x12d;" horiz-adv-x="205" d="M143 0 L62 0 L62 480 L143 480 L143 0 Z M213 681 Q211 626 185.5 591.5 Q160 557 103 557 Q47 557 21 591.5 Q-5 626 -7 681 L48 681 Q49 649 63 633.5 Q77 618 103 618 Q129 618 143 633.5 Q157 649 158 681 L213 681 L213 681 Z " />
<glyph glyph-name="icircumflex" unicode="&#xee;" horiz-adv-x="205" d="M143 0 L62 0 L62 480 L143 480 L143 0 Z M162 557 L104 645 L103 645 L45 557 L-16 557 L57 699 L149 699 L223 557 L162 557 Z " />
<glyph glyph-name="idieresis" unicode="&#xef;" horiz-adv-x="205" d="M143 0 L62 0 L62 480 L143 480 L143 0 Z M74 618 Q74 595 60 581 Q46 567 26 567 Q6 567 -8 581 Q-22 595 -22 618 Q-22 641 -8 655 Q6 669 26 669 Q46 669 60 655 Q74 641 74 618 Z M228 618 Q228 595 214 581 Q200 567 180 567 Q160 567 146 581 Q132 595 132 618 Q132 641 146 655 Q160 669 180 669 Q200 669 214 655 Q228 641 228 618 Z " />
<glyph glyph-name="igrave" unicode="&#xec;" horiz-adv-x="205" d="M143 0 L62 0 L62 480 L143 480 L143 0 Z M77 558 L-24 688 L-24 690 L74 690 L153 558 L77 558 Z " />
<glyph glyph-name="ij" unicode="&#x133;" horiz-adv-x="410" d="M143 0 L62 0 L62 480 L143 480 L143 0 Z M103 596 Q78 596 63 612 Q48 628 48 654 Q48 679 63 695 Q78 711 103 711 Q127 711 142 695 Q157 679 157 654 Q157 628 142 612 Q127 596 103 596 Z M348 3 Q348 -53 336.5 -92.5 Q325 -132 302.5 -157.5 Q280 -183 246 -196 Q212 -209 168 -212 L159 -143 Q187 -139 207.5 -130 Q228 -121 241 -103 Q254 -85 260.5 -56.5 Q267 -28 267 15 L267 480 L348 480 L348 3 Z M308 596 Q283 596 268 612 Q253 628 253 654 Q253 679 268 695 Q283 711 308 711 Q332 711 347 695 Q362 679 362 654 Q362 628 347 612 Q332 596 308 596 Z " />
<glyph glyph-name="imacron" unicode="&#x12b;" horiz-adv-x="205" d="M143 0 L62 0 L62 480 L143 480 L143 0 Z M203 582 L3 582 L3 646 L203 646 L203 582 Z " />
<glyph glyph-name="iogonek" unicode="&#x12f;" horiz-adv-x="205" d="M158 -193 Q153 -197 136.5 -204.5 Q120 -212 92 -212 Q47 -212 24 -187.5 Q1 -163 1 -119 Q1 -77 21 -46 Q41 -15 62 5 L62 480 L143 480 L143 0 L121 0 Q107 -14 91.5 -38.5 Q76 -63 76 -98 Q76 -122 85.5 -131 Q95 -140 111 -140 Q123 -140 131 -137 Q139 -134 143 -132 L158 -193 Z M103 596 Q78 596 63 612 Q48 628 48 654 Q48 679 63 695 Q78 711 103 711 Q127 711 142 695 Q157 679 157 654 Q157 628 142 612 Q127 596 103 596 Z " />
<glyph glyph-name="itilde" unicode="&#x129;" horiz-adv-x="205" d="M143 0 L62 0 L62 480 L143 480 L143 0 Z M231 667 Q230 618 212.5 589.5 Q195 561 159 561 Q139 561 124 569 Q109 577 96.5 587 Q84 597 72 605 Q60 613 48 613 Q34 613 28 600 Q22 587 21 568 L-25 568 Q-25 617 -8 645.5 Q9 674 46 674 Q65 674 80 666 Q95 658 108 648.5 Q121 639 133 631 Q145 623 158 623 Q172 623 178 635 Q184 647 185 667 L231 667 L231 667 Z " />
<glyph glyph-name="dotlessi" unicode="&#x131;" horiz-adv-x="205" d="M143 0 L62 0 L62 480 L143 480 L143 0 Z " />
<glyph glyph-name="j" unicode="j" horiz-adv-x="205" d="M143 3 Q143 -53 131.5 -92.5 Q120 -132 97.5 -157.5 Q75 -183 41 -196 Q7 -209 -37 -212 L-46 -143 Q-18 -139 2.5 -130 Q23 -121 36 -103 Q49 -85 55.5 -56.5 Q62 -28 62 15 L62 480 L143 480 L143 3 Z M103 596 Q78 596 63 612 Q48 628 48 654 Q48 679 63 695 Q78 711 103 711 Q127 711 142 695 Q157 679 157 654 Q157 628 142 612 Q127 596 103 596 Z " />
<glyph glyph-name="jcircumflex" unicode="&#x135;" horiz-adv-x="205" d="M143 3 Q143 -53 131.5 -92.5 Q120 -132 97.5 -157.5 Q75 -183 41 -196 Q7 -209 -37 -212 L-46 -143 Q-18 -139 2.5 -130 Q23 -121 36 -103 Q49 -85 55.5 -56.5 Q62 -28 62 15 L62 480 L143 480 L143 3 Z M162 557 L104 645 L103 645 L45 557 L-16 557 L57 699 L149 699 L223 557 L162 557 Z " />
<glyph glyph-name="dotlessj" unicode="&#x237;" horiz-adv-x="205" d="M143 3 Q143 -53 131.5 -92.5 Q120 -132 97.5 -157.5 Q75 -183 41 -196 Q7 -209 -37 -212 L-46 -143 Q-18 -139 2.5 -130 Q23 -121 36 -103 Q49 -85 55.5 -56.5 Q62 -28 62 15 L62 480 L143 480 L143 3 Z " />
<glyph glyph-name="k" unicode="k" horiz-adv-x="418" d="M243 260 L408 0 L311 0 L176 224 L143 224 L143 0 L62 0 L62 707 L143 716 L143 293 L177 293 L306 480 L402 480 L243 260 Z " />
<glyph glyph-name="kcommaaccent" unicode="&#x137;" horiz-adv-x="418" d="M243 260 L408 0 L311 0 L176 224 L143 224 L143 0 L62 0 L62 707 L143 716 L143 293 L177 293 L306 480 L402 480 L243 260 Z M269 -115 Q269 -141 261 -159.5 Q253 -178 240 -191 Q227 -204 210.5 -212 Q194 -220 178 -225 L164 -195 Q181 -187 197.5 -173 Q214 -159 218 -131 Q199 -131 186.5 -119.5 Q174 -108 174 -85 Q174 -64 186.5 -53 Q199 -42 216 -42 Q239 -42 254 -59.5 Q269 -77 269 -115 Z " />
<glyph glyph-name="kgreenlandic" unicode="&#x138;" horiz-adv-x="418" d="M243 251 L408 0 L311 0 L176 215 L143 215 L143 0 L62 0 L62 480 L143 480 L143 284 L177 284 L306 480 L402 480 L243 251 Z " />
<glyph glyph-name="l" unicode="l" horiz-adv-x="228" d="M142 112 Q142 82 150.5 70 Q159 58 180 58 Q191 58 198.5 60 Q206 62 210 64 L217 4 Q211 1 195 -4 Q179 -9 152 -9 Q111 -9 86 16 Q61 41 61 105 L61 707 L142 716 L142 112 Z " />
<glyph glyph-name="lacute" unicode="&#x13a;" horiz-adv-x="228" d="M142 112 Q142 82 150.5 70 Q159 58 180 58 Q191 58 198.5 60 Q206 62 210 64 L217 4 Q211 1 195 -4 Q179 -9 152 -9 Q111 -9 86 16 Q61 41 61 105 L61 707 L142 716 L142 112 Z M223 865 L120 747 L43 747 L123 867 L223 867 L223 865 Z " />
<glyph glyph-name="lcaron" unicode="&#x13e;" horiz-adv-x="248" d="M142 112 Q142 82 150.5 70 Q159 58 180 58 Q191 58 198.5 60 Q206 62 210 64 L217 4 Q211 1 195 -4 Q179 -9 152 -9 Q111 -9 86 16 Q61 41 61 105 L61 707 L142 716 L142 112 Z M310 649 Q310 623 302 604.5 Q294 586 281 573 Q268 560 251.5 552 Q235 544 219 539 L205 569 Q222 577 238.5 591 Q255 605 259 633 Q240 633 227.5 644.5 Q215 656 215 679 Q215 700 227.5 711 Q240 722 257 722 Q280 722 295 704.5 Q310 687 310 649 Z " />
<glyph glyph-name="lcommaaccent" unicode="&#x13c;" horiz-adv-x="228" d="M142 112 Q142 82 150.5 70 Q159 58 180 58 Q191 58 198.5 60 Q206 62 210 64 L217 4 Q211 1 195 -4 Q179 -9 152 -9 Q111 -9 86 16 Q61 41 61 105 L61 707 L142 716 L142 112 Z M185 -115 Q185 -141 177 -159.5 Q169 -178 156 -191 Q143 -204 126.5 -212 Q110 -220 94 -225 L80 -195 Q97 -187 113.5 -173 Q130 -159 134 -131 Q115 -131 102.5 -119.5 Q90 -108 90 -85 Q90 -64 102.5 -53 Q115 -42 132 -42 Q155 -42 170 -59.5 Q185 -77 185 -115 Z " />
<glyph glyph-name="ldot" unicode="&#x140;" horiz-adv-x="304" d="M300 364 Q300 339 287 325 Q274 311 253 311 Q233 311 220 325 Q207 339 207 364 Q207 390 220 404 Q233 418 253 418 Q274 418 287 404 Q300 390 300 364 Z M142 112 Q142 82 150.5 70 Q159 58 180 58 Q191 58 198.5 60 Q206 62 210 64 L217 4 Q211 1 195 -4 Q179 -9 152 -9 Q111 -9 86 16 Q61 41 61 105 L61 707 L142 716 L142 112 Z " />
<glyph glyph-name="lslash" unicode="&#x142;" horiz-adv-x="267" d="M176 420 L247 475 L247 413 L176 358 L176 112 Q176 82 184.5 70 Q193 58 214 58 Q225 58 232.5 60 Q240 62 244 64 L251 4 Q245 1 229 -4 Q213 -9 186 -9 Q145 -9 120 16 Q95 41 95 105 L95 296 L21 239 L21 300 L95 357 L95 707 L176 716 L176 420 Z " />
<glyph glyph-name="m" unicode="m" horiz-adv-x="706" d="M314 0 L314 309 Q314 368 297 394 Q280 420 242 420 Q222 420 206.5 415 Q191 410 179 402.5 Q167 395 158 386 Q149 377 143 370 L143 0 L62 0 L62 480 L136 480 L136 426 L138 426 Q143 434 153 445.5 Q163 457 178 467.5 Q193 478 213 485 Q233 492 258 492 Q340 492 374 428 Q381 438 393 449.5 Q405 461 421 470.5 Q437 480 457 486 Q477 492 501 492 Q647 492 647 322 L647 0 L566 0 L566 309 Q566 368 545 394 Q524 420 483 420 Q449 420 426.5 403.5 Q404 387 391 372 Q393 361 394 348.5 Q395 336 395 322 L395 0 L314 0 Z " />
<glyph glyph-name="n" unicode="n" horiz-adv-x="464" d="M324 0 L324 309 Q324 370 303.5 396.5 Q283 423 241 423 Q205 423 181 405 Q157 387 143 370 L143 0 L62 0 L62 480 L136 480 L136 426 L138 426 Q141 432 151 443.5 Q161 455 177 465.5 Q193 476 215 484 Q237 492 265 492 Q297 492 323 482.5 Q349 473 367 452 Q385 431 395 397.5 Q405 364 405 315 L405 0 L324 0 Z " />
<glyph glyph-name="nacute" unicode="&#x144;" horiz-adv-x="464" d="M324 0 L324 309 Q324 370 303.5 396.5 Q283 423 241 423 Q205 423 181 405 Q157 387 143 370 L143 0 L62 0 L62 480 L136 480 L136 426 L138 426 Q141 432 151 443.5 Q161 455 177 465.5 Q193 476 215 484 Q237 492 265 492 Q297 492 323 482.5 Q349 473 367 452 Q385 431 395 397.5 Q405 364 405 315 L405 0 L324 0 Z M370 688 L268 558 L193 558 L272 690 L370 690 L370 688 Z " />
<glyph glyph-name="napostrophe" unicode="&#x149;" horiz-adv-x="532" d="M392 0 L392 309 Q392 370 371.5 396.5 Q351 423 309 423 Q273 423 249 405 Q225 387 211 370 L211 0 L130 0 L130 480 L204 480 L204 426 L206 426 Q209 432 219 443.5 Q229 455 245 465.5 Q261 476 283 484 Q305 492 333 492 Q365 492 391 482.5 Q417 473 435 452 Q453 431 463 397.5 Q473 364 473 315 L473 0 L392 0 Z M123 629 Q123 603 115 584.5 Q107 566 94 553 Q81 540 64.5 532 Q48 524 32 519 L18 549 Q35 557 51.5 571 Q68 585 72 613 Q53 613 40.5 624.5 Q28 636 28 659 Q28 680 40.5 691 Q53 702 70 702 Q93 702 108 684.5 Q123 667 123 629 Z " />
<glyph glyph-name="ncaron" unicode="&#x148;" horiz-adv-x="464" d="M324 0 L324 309 Q324 370 303.5 396.5 Q283 423 241 423 Q205 423 181 405 Q157 387 143 370 L143 0 L62 0 L62 480 L136 480 L136 426 L138 426 Q141 432 151 443.5 Q161 455 177 465.5 Q193 476 215 484 Q237 492 265 492 Q297 492 323 482.5 Q349 473 367 452 Q385 431 395 397.5 Q405 364 405 315 L405 0 L324 0 Z M288 560 L196 560 L123 700 L184 700 L242 613 L243 613 L301 700 L362 700 L288 560 Z " />
<glyph glyph-name="ncommaaccent" unicode="&#x146;" horiz-adv-x="464" d="M324 0 L324 309 Q324 370 303.5 396.5 Q283 423 241 423 Q205 423 181 405 Q157 387 143 370 L143 0 L62 0 L62 480 L136 480 L136 426 L138 426 Q141 432 151 443.5 Q161 455 177 465.5 Q193 476 215 484 Q237 492 265 492 Q297 492 323 482.5 Q349 473 367 452 Q385 431 395 397.5 Q405 364 405 315 L405 0 L324 0 Z M286 -115 Q286 -141 278 -159.5 Q270 -178 257 -191 Q244 -204 227.5 -212 Q211 -220 195 -225 L181 -195 Q198 -187 214.5 -173 Q231 -159 235 -131 Q216 -131 203.5 -119.5 Q191 -108 191 -85 Q191 -64 203.5 -53 Q216 -42 233 -42 Q256 -42 271 -59.5 Q286 -77 286 -115 Z " />
<glyph glyph-name="ntilde" unicode="&#xf1;" horiz-adv-x="464" d="M324 0 L324 309 Q324 370 303.5 396.5 Q283 423 241 423 Q205 423 181 405 Q157 387 143 370 L143 0 L62 0 L62 480 L136 480 L136 426 L138 426 Q141 432 151 443.5 Q161 455 177 465.5 Q193 476 215 484 Q237 492 265 492 Q297 492 323 482.5 Q349 473 367 452 Q385 431 395 397.5 Q405 364 405 315 L405 0 L324 0 Z M370 667 Q369 618 351.5 589.5 Q334 561 298 561 Q278 561 263 569 Q248 577 235.5 587 Q223 597 211 605 Q199 613 187 613 Q173 613 167 600 Q161 587 160 568 L114 568 Q114 617 131 645.5 Q148 674 185 674 Q204 674 219 666 Q234 658 247 648.5 Q260 639 272 631 Q284 623 297 623 Q311 623 317 635 Q323 647 324 667 L370 667 L370 667 Z " />
<glyph glyph-name="eng" unicode="&#x14b;" horiz-adv-x="464" d="M265 492 Q297 492 323 482.5 Q349 473 367 452 Q385 431 395 397.5 Q405 364 405 315 L405 3 Q405 -53 393.5 -92.5 Q382 -132 359.5 -157.5 Q337 -183 303 -196 Q269 -209 225 -212 L216 -143 Q244 -139 264.5 -130 Q285 -121 298 -103 Q311 -85 317.5 -56.5 Q324 -28 324 15 L324 309 Q324 370 303.5 396.5 Q283 423 241 423 Q205 423 181 405 Q157 387 143 370 L143 0 L62 0 L62 480 L136 480 L136 426 L138 426 Q141 432 151 443.5 Q161 455 177 465.5 Q193 476 215 484 Q237 492 265 492 Z " />
<glyph glyph-name="o" unicode="o" horiz-adv-x="459" d="M40 240 Q40 306 55.5 354 Q71 402 97.5 432.5 Q124 463 158.5 477.5 Q193 492 232 492 Q272 492 306 477.5 Q340 463 365 432.5 Q390 402 404.5 354 Q419 306 419 240 Q419 173 404 125 Q389 77 362.5 46.5 Q336 16 301 2 Q266 -12 227 -12 Q187 -12 153 2 Q119 16 94 46.5 Q69 77 54.5 124.5 Q40 172 40 240 Z M335 240 Q335 336 307 379.5 Q279 423 229 423 Q179 423 151.5 379.5 Q124 336 124 240 Q124 144 152 102 Q180 60 230 60 Q280 60 307.5 102 Q335 144 335 240 Z " />
<glyph glyph-name="oacute" unicode="&#xf3;" horiz-adv-x="459" d="M40 240 Q40 306 55.5 354 Q71 402 97.5 432.5 Q124 463 158.5 477.5 Q193 492 232 492 Q272 492 306 477.5 Q340 463 365 432.5 Q390 402 404.5 354 Q419 306 419 240 Q419 173 404 125 Q389 77 362.5 46.5 Q336 16 301 2 Q266 -12 227 -12 Q187 -12 153 2 Q119 16 94 46.5 Q69 77 54.5 124.5 Q40 172 40 240 Z M335 240 Q335 336 307 379.5 Q279 423 229 423 Q179 423 151.5 379.5 Q124 336 124 240 Q124 144 152 102 Q180 60 230 60 Q280 60 307.5 102 Q335 144 335 240 Z M359 688 L257 558 L182 558 L261 690 L359 690 L359 688 Z " />
<glyph glyph-name="obreve" unicode="&#x14f;" horiz-adv-x="459" d="M40 240 Q40 306 55.5 354 Q71 402 97.5 432.5 Q124 463 158.5 477.5 Q193 492 232 492 Q272 492 306 477.5 Q340 463 365 432.5 Q390 402 404.5 354 Q419 306 419 240 Q419 173 404 125 Q389 77 362.5 46.5 Q336 16 301 2 Q266 -12 227 -12 Q187 -12 153 2 Q119 16 94 46.5 Q69 77 54.5 124.5 Q40 172 40 240 Z M335 240 Q335 336 307 379.5 Q279 423 229 423 Q179 423 151.5 379.5 Q124 336 124 240 Q124 144 152 102 Q180 60 230 60 Q280 60 307.5 102 Q335 144 335 240 Z M341 681 Q339 626 313.5 591.5 Q288 557 231 557 Q175 557 149 591.5 Q123 626 121 681 L176 681 Q177 649 191 633.5 Q205 618 231 618 Q257 618 271 633.5 Q285 649 286 681 L341 681 L341 681 Z " />
<glyph glyph-name="ocircumflex" unicode="&#xf4;" horiz-adv-x="459" d="M40 240 Q40 306 55.5 354 Q71 402 97.5 432.5 Q124 463 158.5 477.5 Q193 492 232 492 Q272 492 306 477.5 Q340 463 365 432.5 Q390 402 404.5 354 Q419 306 419 240 Q419 173 404 125 Q389 77 362.5 46.5 Q336 16 301 2 Q266 -12 227 -12 Q187 -12 153 2 Q119 16 94 46.5 Q69 77 54.5 124.5 Q40 172 40 240 Z M335 240 Q335 336 307 379.5 Q279 423 229 423 Q179 423 151.5 379.5 Q124 336 124 240 Q124 144 152 102 Q180 60 230 60 Q280 60 307.5 102 Q335 144 335 240 Z M290 557 L232 645 L231 645 L173 557 L112 557 L185 699 L277 699 L351 557 L290 557 Z " />
<glyph glyph-name="odieresis" unicode="&#xf6;" horiz-adv-x="459" d="M40 240 Q40 306 55.5 354 Q71 402 97.5 432.5 Q124 463 158.5 477.5 Q193 492 232 492 Q272 492 306 477.5 Q340 463 365 432.5 Q390 402 404.5 354 Q419 306 419 240 Q419 173 404 125 Q389 77 362.5 46.5 Q336 16 301 2 Q266 -12 227 -12 Q187 -12 153 2 Q119 16 94 46.5 Q69 77 54.5 124.5 Q40 172 40 240 Z M335 240 Q335 336 307 379.5 Q279 423 229 423 Q179 423 151.5 379.5 Q124 336 124 240 Q124 144 152 102 Q180 60 230 60 Q280 60 307.5 102 Q335 144 335 240 Z M202 618 Q202 595 188 581 Q174 567 154 567 Q134 567 120 581 Q106 595 106 618 Q106 641 120 655 Q134 669 154 669 Q174 669 188 655 Q202 641 202 618 Z M356 618 Q356 595 342 581 Q328 567 308 567 Q288 567 274 581 Q260 595 260 618 Q260 641 274 655 Q288 669 308 669 Q328 669 342 655 Q356 641 356 618 Z " />
<glyph glyph-name="oe" unicode="&#x153;" horiz-adv-x="711" d="M675 45 Q670 40 660 30.5 Q650 21 633 11.5 Q616 2 591 -5 Q566 -12 532 -12 Q478 -12 437.5 13.5 Q397 39 375 95 L373 95 Q349 38 311 13 Q273 -12 224 -12 Q185 -12 151.5 2 Q118 16 93 46.5 Q68 77 54 124.5 Q40 172 40 240 Q40 306 55.5 354 Q71 402 97 432.5 Q123 463 157 477.5 Q191 492 229 492 Q278 492 315 467 Q352 442 375 387 L377 387 Q400 441 437.5 466.5 Q475 492 524 492 Q588 492 626.5 448.5 Q665 405 665 318 Q665 287 663 264.5 Q661 242 659 225 L414 225 Q418 140 450.5 100 Q483 60 544 60 Q565 60 582 65 Q599 70 611.5 77 Q624 84 632.5 91 Q641 98 645 102 L675 45 Z M335 240 Q335 336 307 379.5 Q279 423 229 423 Q179 423 151.5 379.5 Q124 336 124 240 Q124 144 152 102 Q180 60 230 60 Q280 60 307.5 102 Q335 144 335 240 Z M513 426 Q470 426 444 390 Q418 354 414 286 L589 286 Q590 291 590.5 300.5 Q591 310 591 321 Q591 371 571 398.5 Q551 426 513 426 Z " />
<glyph glyph-name="ograve" unicode="&#xf2;" horiz-adv-x="459" d="M40 240 Q40 306 55.5 354 Q71 402 97.5 432.5 Q124 463 158.5 477.5 Q193 492 232 492 Q272 492 306 477.5 Q340 463 365 432.5 Q390 402 404.5 354 Q419 306 419 240 Q419 173 404 125 Q389 77 362.5 46.5 Q336 16 301 2 Q266 -12 227 -12 Q187 -12 153 2 Q119 16 94 46.5 Q69 77 54.5 124.5 Q40 172 40 240 Z M335 240 Q335 336 307 379.5 Q279 423 229 423 Q179 423 151.5 379.5 Q124 336 124 240 Q124 144 152 102 Q180 60 230 60 Q280 60 307.5 102 Q335 144 335 240 Z M205 558 L104 688 L104 690 L202 690 L281 558 L205 558 Z " />
<glyph glyph-name="ohungarumlaut" unicode="&#x151;" horiz-adv-x="459" d="M40 240 Q40 306 55.5 354 Q71 402 97.5 432.5 Q124 463 158.5 477.5 Q193 492 232 492 Q272 492 306 477.5 Q340 463 365 432.5 Q390 402 404.5 354 Q419 306 419 240 Q419 173 404 125 Q389 77 362.5 46.5 Q336 16 301 2 Q266 -12 227 -12 Q187 -12 153 2 Q119 16 94 46.5 Q69 77 54.5 124.5 Q40 172 40 240 Z M335 240 Q335 336 307 379.5 Q279 423 229 423 Q179 423 151.5 379.5 Q124 336 124 240 Q124 144 152 102 Q180 60 230 60 Q280 60 307.5 102 Q335 144 335 240 Z M282 688 L202 558 L144 558 L210 690 L282 690 L282 688 Z M402 688 L322 558 L263 558 L329 690 L402 690 L402 688 Z " />
<glyph glyph-name="omacron" unicode="&#x14d;" horiz-adv-x="459" d="M40 240 Q40 306 55.5 354 Q71 402 97.5 432.5 Q124 463 158.5 477.5 Q193 492 232 492 Q272 492 306 477.5 Q340 463 365 432.5 Q390 402 404.5 354 Q419 306 419 240 Q419 173 404 125 Q389 77 362.5 46.5 Q336 16 301 2 Q266 -12 227 -12 Q187 -12 153 2 Q119 16 94 46.5 Q69 77 54.5 124.5 Q40 172 40 240 Z M335 240 Q335 336 307 379.5 Q279 423 229 423 Q179 423 151.5 379.5 Q124 336 124 240 Q124 144 152 102 Q180 60 230 60 Q280 60 307.5 102 Q335 144 335 240 Z M331 582 L131 582 L131 646 L331 646 L331 582 Z " />
<glyph glyph-name="oslash" unicode="&#xf8;" horiz-adv-x="459" d="M40 240 Q40 306 55.5 354 Q71 402 97.5 432.5 Q124 463 158.5 477.5 Q193 492 232 492 Q290 492 332 463 L363 516 L418 516 L368 429 Q392 398 405.5 351.5 Q419 305 419 240 Q419 173 404 125 Q389 77 362.5 46.5 Q336 16 301 2 Q266 -12 227 -12 Q170 -12 127 16 L97 -36 L42 -36 L91 49 Q67 80 53.5 127 Q40 174 40 240 Z M124 240 Q124 172 139 130 L293 396 Q267 423 229 423 Q179 423 151.5 379.5 Q124 336 124 240 Z M335 240 Q335 304 321 348 L167 84 Q191 60 230 60 Q280 60 307.5 102 Q335 144 335 240 Z " />
<glyph glyph-name="oslashacute" unicode="&#x1ff;" horiz-adv-x="459" d="M40 240 Q40 306 55.5 354 Q71 402 97.5 432.5 Q124 463 158.5 477.5 Q193 492 232 492 Q290 492 332 463 L363 516 L418 516 L368 429 Q392 398 405.5 351.5 Q419 305 419 240 Q419 173 404 125 Q389 77 362.5 46.5 Q336 16 301 2 Q266 -12 227 -12 Q170 -12 127 16 L97 -36 L42 -36 L91 49 Q67 80 53.5 127 Q40 174 40 240 Z M124 240 Q124 172 139 130 L293 396 Q267 423 229 423 Q179 423 151.5 379.5 Q124 336 124 240 Z M335 240 Q335 304 321 348 L167 84 Q191 60 230 60 Q280 60 307.5 102 Q335 144 335 240 Z M359 688 L257 558 L182 558 L261 690 L359 690 L359 688 Z " />
<glyph glyph-name="otilde" unicode="&#xf5;" horiz-adv-x="459" d="M40 240 Q40 306 55.5 354 Q71 402 97.5 432.5 Q124 463 158.5 477.5 Q193 492 232 492 Q272 492 306 477.5 Q340 463 365 432.5 Q390 402 404.5 354 Q419 306 419 240 Q419 173 404 125 Q389 77 362.5 46.5 Q336 16 301 2 Q266 -12 227 -12 Q187 -12 153 2 Q119 16 94 46.5 Q69 77 54.5 124.5 Q40 172 40 240 Z M335 240 Q335 336 307 379.5 Q279 423 229 423 Q179 423 151.5 379.5 Q124 336 124 240 Q124 144 152 102 Q180 60 230 60 Q280 60 307.5 102 Q335 144 335 240 Z M359 667 Q358 618 340.5 589.5 Q323 561 287 561 Q267 561 252 569 Q237 577 224.5 587 Q212 597 200 605 Q188 613 176 613 Q162 613 156 600 Q150 587 149 568 L103 568 Q103 617 120 645.5 Q137 674 174 674 Q193 674 208 666 Q223 658 236 648.5 Q249 639 261 631 Q273 623 286 623 Q300 623 306 635 Q312 647 313 667 L359 667 L359 667 Z " />
<glyph glyph-name="p" unicode="p" horiz-adv-x="463" d="M423 253 Q423 180 406 130 Q389 80 360 49 Q331 18 293.5 4.5 Q256 -9 215 -9 Q189 -9 171.5 -5.5 Q154 -2 143 3 L143 -200 L62 -200 L62 480 L136 480 L136 429 L138 429 Q142 437 151.5 448 Q161 459 175.5 468.5 Q190 478 210.5 485 Q231 492 259 492 Q296 492 326.5 478.5 Q357 465 378.5 436 Q400 407 411.5 361.5 Q423 316 423 253 Z M237 423 Q199 423 176.5 407.5 Q154 392 143 379 L143 84 Q154 76 171.5 69.5 Q189 63 215 63 Q243 63 265.5 72 Q288 81 304.5 102.5 Q321 124 330 159.5 Q339 195 339 247 Q339 295 331.5 328.5 Q324 362 310.5 383 Q297 404 278 413.5 Q259 423 237 423 Z " />
<glyph glyph-name="thorn" unicode="&#xfe;" horiz-adv-x="463" d="M423 253 Q423 180 406 130 Q389 80 360 49 Q331 18 293.5 4.5 Q256 -9 215 -9 Q189 -9 171.5 -5.5 Q154 -2 143 3 L143 -200 L62 -200 L62 707 L143 714 L143 431 L145 431 Q149 438 158 448.5 Q167 459 181 469 Q195 479 215 485.5 Q235 492 262 492 Q335 492 379 434.5 Q423 377 423 253 Z M237 423 Q199 423 176.5 407.5 Q154 392 143 379 L143 84 Q154 76 171.5 69.5 Q189 63 215 63 Q243 63 265.5 72 Q288 81 304.5 102.5 Q321 124 330 159.5 Q339 195 339 247 Q339 295 331.5 328.5 Q324 362 310.5 383 Q297 404 278 413.5 Q259 423 237 423 Z " />
<glyph glyph-name="q" unicode="q" horiz-adv-x="461" d="M40 239 Q40 310 59 358.5 Q78 407 107.5 436.5 Q137 466 173.5 479 Q210 492 245 492 Q266 492 281.5 487.5 Q297 483 308.5 477 Q320 471 326.5 465 Q333 459 336 456 L358 480 L399 480 L399 -200 L318 -200 L318 34 L316 34 Q311 28 303 20 Q295 12 282 5 Q269 -2 252 -7 Q235 -12 212 -12 Q176 -12 144.5 1.5 Q113 15 89.5 45 Q66 75 53 122.5 Q40 170 40 239 Z M124 242 Q124 146 153 103 Q182 60 227 60 Q246 60 260.5 65 Q275 70 286.5 77 Q298 84 305.5 92 Q313 100 318 106 L318 398 Q314 402 297.5 412.5 Q281 423 249 423 Q223 423 200 413 Q177 403 160 381 Q143 359 133.5 324.5 Q124 290 124 242 Z " />
<glyph glyph-name="r" unicode="r" horiz-adv-x="291" d="M273 409 Q270 411 260 414 Q250 417 233 417 Q195 417 173.5 396.5 Q152 376 143 352 L143 0 L62 0 L62 480 L136 480 L136 415 L138 415 Q143 429 151 442.5 Q159 456 171 466.5 Q183 477 199.5 483 Q216 489 239 489 Q256 489 266.5 486 Q277 483 283 481 L273 409 Z " />
<glyph glyph-name="racute" unicode="&#x155;" horiz-adv-x="291" d="M273 409 Q270 411 260 414 Q250 417 233 417 Q195 417 173.5 396.5 Q152 376 143 352 L143 0 L62 0 L62 480 L136 480 L136 415 L138 415 Q143 429 151 442.5 Q159 456 171 466.5 Q183 477 199.5 483 Q216 489 239 489 Q256 489 266.5 486 Q277 483 283 481 L273 409 Z M294 688 L192 558 L117 558 L196 690 L294 690 L294 688 Z " />
<glyph glyph-name="rcaron" unicode="&#x159;" horiz-adv-x="291" d="M273 409 Q270 411 260 414 Q250 417 233 417 Q195 417 173.5 396.5 Q152 376 143 352 L143 0 L62 0 L62 480 L136 480 L136 415 L138 415 Q143 429 151 442.5 Q159 456 171 466.5 Q183 477 199.5 483 Q216 489 239 489 Q256 489 266.5 486 Q277 483 283 481 L273 409 Z M212 560 L120 560 L47 700 L108 700 L166 613 L167 613 L225 700 L286 700 L212 560 Z " />
<glyph glyph-name="rcommaaccent" unicode="&#x157;" horiz-adv-x="291" d="M273 409 Q270 411 260 414 Q250 417 233 417 Q195 417 173.5 396.5 Q152 376 143 352 L143 0 L62 0 L62 480 L136 480 L136 415 L138 415 Q143 429 151 442.5 Q159 456 171 466.5 Q183 477 199.5 483 Q216 489 239 489 Q256 489 266.5 486 Q277 483 283 481 L273 409 Z M155 -115 Q155 -141 147 -159.5 Q139 -178 126 -191 Q113 -204 96.5 -212 Q80 -220 64 -225 L50 -195 Q67 -187 83.5 -173 Q100 -159 104 -131 Q85 -131 72.5 -119.5 Q60 -108 60 -85 Q60 -64 72.5 -53 Q85 -42 102 -42 Q125 -42 140 -59.5 Q155 -77 155 -115 Z " />
<glyph glyph-name="s" unicode="s" horiz-adv-x="350" d="M269 383 Q261 392 240 407.5 Q219 423 185 423 Q153 423 136 408 Q119 393 119 372 Q119 345 134.5 327.5 Q150 310 182 290 L212 272 Q261 243 289 209.5 Q317 176 317 123 Q317 66 277.5 27 Q238 -12 164 -12 Q135 -12 113 -6 Q91 0 74.5 8 Q58 16 47 25.5 Q36 35 29 43 L68 107 Q74 101 82.5 93 Q91 85 103 77.5 Q115 70 130 65 Q145 60 165 60 Q201 60 220 76 Q239 92 239 115 Q239 132 234.5 144.5 Q230 157 221 167 Q212 177 199 186 Q186 195 169 206 L139 225 Q94 254 68.5 286 Q43 318 43 368 Q43 395 53.5 417.5 Q64 440 83 456.5 Q102 473 127.5 482.5 Q153 492 182 492 Q210 492 230 486.5 Q250 481 264.5 472.5 Q279 464 288.5 455.5 Q298 447 304 441 L269 383 Z " />
<glyph glyph-name="sacute" unicode="&#x15b;" horiz-adv-x="350" d="M269 383 Q261 392 240 407.5 Q219 423 185 423 Q153 423 136 408 Q119 393 119 372 Q119 345 134.5 327.5 Q150 310 182 290 L212 272 Q261 243 289 209.5 Q317 176 317 123 Q317 66 277.5 27 Q238 -12 164 -12 Q135 -12 113 -6 Q91 0 74.5 8 Q58 16 47 25.5 Q36 35 29 43 L68 107 Q74 101 82.5 93 Q91 85 103 77.5 Q115 70 130 65 Q145 60 165 60 Q201 60 220 76 Q239 92 239 115 Q239 132 234.5 144.5 Q230 157 221 167 Q212 177 199 186 Q186 195 169 206 L139 225 Q94 254 68.5 286 Q43 318 43 368 Q43 395 53.5 417.5 Q64 440 83 456.5 Q102 473 127.5 482.5 Q153 492 182 492 Q210 492 230 486.5 Q250 481 264.5 472.5 Q279 464 288.5 455.5 Q298 447 304 441 L269 383 Z M302 688 L200 558 L125 558 L204 690 L302 690 L302 688 Z " />
<glyph glyph-name="scaron" unicode="&#x161;" horiz-adv-x="350" d="M269 383 Q261 392 240 407.5 Q219 423 185 423 Q153 423 136 408 Q119 393 119 372 Q119 345 134.5 327.5 Q150 310 182 290 L212 272 Q261 243 289 209.5 Q317 176 317 123 Q317 66 277.5 27 Q238 -12 164 -12 Q135 -12 113 -6 Q91 0 74.5 8 Q58 16 47 25.5 Q36 35 29 43 L68 107 Q74 101 82.5 93 Q91 85 103 77.5 Q115 70 130 65 Q145 60 165 60 Q201 60 220 76 Q239 92 239 115 Q239 132 234.5 144.5 Q230 157 221 167 Q212 177 199 186 Q186 195 169 206 L139 225 Q94 254 68.5 286 Q43 318 43 368 Q43 395 53.5 417.5 Q64 440 83 456.5 Q102 473 127.5 482.5 Q153 492 182 492 Q210 492 230 486.5 Q250 481 264.5 472.5 Q279 464 288.5 455.5 Q298 447 304 441 L269 383 Z M220 560 L128 560 L55 700 L116 700 L174 613 L175 613 L233 700 L294 700 L220 560 Z " />
<glyph glyph-name="scedilla" unicode="&#x15f;" horiz-adv-x="350" d="M260 -127 Q260 -165 234.5 -186.5 Q209 -208 162 -208 Q139 -208 125 -203.5 Q111 -199 101 -194 L101 -150 Q109 -155 121 -158 Q133 -161 149 -161 Q195 -161 195 -126 Q195 -83 124 -83 L121 -80 L153 -12 Q127 -11 106.5 -5 Q86 1 71 9.5 Q56 18 46 27 Q36 36 29 43 L68 107 Q74 101 82.5 93 Q91 85 103 77.5 Q115 70 130 65 Q145 60 165 60 Q201 60 220 76 Q239 92 239 115 Q239 132 234.5 144.5 Q230 157 221 167 Q212 177 199 186 Q186 195 169 206 L139 225 Q94 254 68.5 286 Q43 318 43 368 Q43 395 53.5 417.5 Q64 440 83 456.5 Q102 473 127.5 482.5 Q153 492 182 492 Q210 492 230 486.5 Q250 481 264.5 472.5 Q279 464 288.5 455.5 Q298 447 304 441 L269 383 Q261 392 240 407.5 Q219 423 185 423 Q153 423 136 408 Q119 393 119 372 Q119 345 134.5 327.5 Q150 310 182 290 L212 272 Q261 243 289 209.5 Q317 176 317 123 Q317 74 288 38 Q259 2 204 -8 L185 -55 Q223 -57 241.5 -77 Q260 -97 260 -127 Z " />
<glyph glyph-name="scircumflex" unicode="&#x15d;" horiz-adv-x="350" d="M269 383 Q261 392 240 407.5 Q219 423 185 423 Q153 423 136 408 Q119 393 119 372 Q119 345 134.5 327.5 Q150 310 182 290 L212 272 Q261 243 289 209.5 Q317 176 317 123 Q317 66 277.5 27 Q238 -12 164 -12 Q135 -12 113 -6 Q91 0 74.5 8 Q58 16 47 25.5 Q36 35 29 43 L68 107 Q74 101 82.5 93 Q91 85 103 77.5 Q115 70 130 65 Q145 60 165 60 Q201 60 220 76 Q239 92 239 115 Q239 132 234.5 144.5 Q230 157 221 167 Q212 177 199 186 Q186 195 169 206 L139 225 Q94 254 68.5 286 Q43 318 43 368 Q43 395 53.5 417.5 Q64 440 83 456.5 Q102 473 127.5 482.5 Q153 492 182 492 Q210 492 230 486.5 Q250 481 264.5 472.5 Q279 464 288.5 455.5 Q298 447 304 441 L269 383 Z M233 557 L175 645 L174 645 L116 557 L55 557 L128 699 L220 699 L294 557 L233 557 Z " />
<glyph glyph-name="scommaaccent" unicode="&#x219;" horiz-adv-x="350" d="M269 383 Q261 392 240 407.5 Q219 423 185 423 Q153 423 136 408 Q119 393 119 372 Q119 345 134.5 327.5 Q150 310 182 290 L212 272 Q261 243 289 209.5 Q317 176 317 123 Q317 66 277.5 27 Q238 -12 164 -12 Q135 -12 113 -6 Q91 0 74.5 8 Q58 16 47 25.5 Q36 35 29 43 L68 107 Q74 101 82.5 93 Q91 85 103 77.5 Q115 70 130 65 Q145 60 165 60 Q201 60 220 76 Q239 92 239 115 Q239 132 234.5 144.5 Q230 157 221 167 Q212 177 199 186 Q186 195 169 206 L139 225 Q94 254 68.5 286 Q43 318 43 368 Q43 395 53.5 417.5 Q64 440 83 456.5 Q102 473 127.5 482.5 Q153 492 182 492 Q210 492 230 486.5 Q250 481 264.5 472.5 Q279 464 288.5 455.5 Q298 447 304 441 L269 383 Z M223 -115 Q223 -141 215 -159.5 Q207 -178 194 -191 Q181 -204 164.5 -212 Q148 -220 132 -225 L118 -195 Q135 -187 151.5 -173 Q168 -159 172 -131 Q153 -131 140.5 -119.5 Q128 -108 128 -85 Q128 -64 140.5 -53 Q153 -42 170 -42 Q193 -42 208 -59.5 Q223 -77 223 -115 Z " />
<glyph glyph-name="germandbls" unicode="&#xdf;" horiz-adv-x="479" d="M455 123 Q455 97 445.5 72.5 Q436 48 418 29 Q400 10 373.5 -1 Q347 -12 312 -12 Q289 -12 271 -7.5 Q253 -3 239.5 3.5 Q226 10 217 17 Q208 24 202 29 L230 100 Q241 89 261 74.5 Q281 60 312 60 Q345 60 361 75 Q377 90 377 117 Q377 132 374.5 143.5 Q372 155 364 165.5 Q356 176 342 188 Q328 200 306 216 Q288 229 272.5 241.5 Q257 254 245 269 Q233 284 226.5 303 Q220 322 220 349 Q220 383 235.5 409 Q251 435 269 458.5 Q287 482 302.5 506.5 Q318 531 318 563 Q318 604 295.5 628.5 Q273 653 233 653 Q194 653 168.5 623.5 Q143 594 143 528 L143 0 L62 0 L62 525 Q62 577 77.5 614 Q93 651 118 675 Q143 699 175 710.5 Q207 722 241 722 Q312 722 352.5 679.5 Q393 637 393 565 Q393 524 378.5 495 Q364 466 347 442.5 Q330 419 315.5 398.5 Q301 378 301 354 Q301 328 314 311.5 Q327 295 355 277 Q410 242 432.5 207.5 Q455 173 455 123 Z " />
<glyph glyph-name="t" unicode="t" horiz-adv-x="297" d="M267 414 L162 414 L162 148 Q162 97 175 78.5 Q188 60 219 60 Q237 60 250 65 Q263 70 269 74 L280 9 Q275 5 256 -3.5 Q237 -12 205 -12 Q143 -12 112 22.5 Q81 57 81 137 L81 414 L23 414 L23 468 L81 480 L90 614 L162 614 L162 480 L277 480 L267 414 Z " />
<glyph glyph-name="tbar" unicode="&#x167;" horiz-adv-x="298" d="M268 414 L163 414 L163 301 L246 301 L246 253 L163 253 L163 148 Q163 97 176 78.5 Q189 60 220 60 Q238 60 251 65 Q264 70 270 74 L281 9 Q276 5 257 -3.5 Q238 -12 206 -12 Q144 -12 113 22.5 Q82 57 82 137 L82 253 L36 253 L36 301 L82 301 L82 414 L24 414 L24 468 L82 480 L91 614 L163 614 L163 480 L278 480 L268 414 Z " />
<glyph glyph-name="tcaron" unicode="&#x165;" horiz-adv-x="297" d="M267 414 L162 414 L162 148 Q162 97 175 78.5 Q188 60 219 60 Q237 60 250 65 Q263 70 269 74 L280 9 Q275 5 256 -3.5 Q237 -12 205 -12 Q143 -12 112 22.5 Q81 57 81 137 L81 414 L23 414 L23 468 L81 480 L90 614 L162 614 L162 480 L277 480 L267 414 Z M354 649 Q354 623 346 604.5 Q338 586 325 573 Q312 560 295.5 552 Q279 544 263 539 L249 569 Q266 577 282.5 591 Q299 605 303 633 Q284 633 271.5 644.5 Q259 656 259 679 Q259 700 271.5 711 Q284 722 301 722 Q324 722 339 704.5 Q354 687 354 649 Z " />
<glyph glyph-name="tcommaaccent" unicode="&#x163;" horiz-adv-x="297" d="M261 -127 Q261 -165 235.5 -186.5 Q210 -208 163 -208 Q140 -208 126 -203.5 Q112 -199 102 -194 L102 -150 Q110 -155 122 -158 Q134 -161 150 -161 Q196 -161 196 -126 Q196 -83 125 -83 L122 -80 L157 -5 Q119 6 100 40 Q81 74 81 137 L81 414 L23 414 L23 468 L81 480 L90 614 L162 614 L162 480 L277 480 L267 414 L162 414 L162 148 Q162 97 175 78.5 Q188 60 219 60 Q237 60 250 65 Q263 70 269 74 L280 9 Q275 5 256 -3.5 Q237 -12 205 -12 L204 -12 L186 -55 Q224 -57 242.5 -77 Q261 -97 261 -127 Z " />
<glyph glyph-name="uni021B" unicode="&#x21b;" horiz-adv-x="297" d="M267 414 L162 414 L162 148 Q162 97 175 78.5 Q188 60 219 60 Q237 60 250 65 Q263 70 269 74 L280 9 Q275 5 256 -3.5 Q237 -12 205 -12 Q143 -12 112 22.5 Q81 57 81 137 L81 414 L23 414 L23 468 L81 480 L90 614 L162 614 L162 480 L277 480 L267 414 Z M229 -115 Q229 -141 221 -159.5 Q213 -178 200 -191 Q187 -204 170.5 -212 Q154 -220 138 -225 L124 -195 Q141 -187 157.5 -173 Q174 -159 178 -131 Q159 -131 146.5 -119.5 Q134 -108 134 -85 Q134 -64 146.5 -53 Q159 -42 176 -42 Q199 -42 214 -59.5 Q229 -77 229 -115 Z " />
<glyph glyph-name="u" unicode="u" horiz-adv-x="460" d="M398 0 L324 0 L324 54 L322 54 Q319 48 309 36.5 Q299 25 283.5 14.5 Q268 4 246 -4 Q224 -12 197 -12 Q165 -12 139.5 -2.5 Q114 7 96 28 Q78 49 68.5 82.5 Q59 116 59 165 L59 480 L140 480 L140 171 Q140 111 159.5 85.5 Q179 60 220 60 Q255 60 279 77.5 Q303 95 317 112 L317 480 L398 480 L398 0 Z " />
<glyph glyph-name="uacute" unicode="&#xfa;" horiz-adv-x="460" d="M398 0 L324 0 L324 54 L322 54 Q319 48 309 36.5 Q299 25 283.5 14.5 Q268 4 246 -4 Q224 -12 197 -12 Q165 -12 139.5 -2.5 Q114 7 96 28 Q78 49 68.5 82.5 Q59 116 59 165 L59 480 L140 480 L140 171 Q140 111 159.5 85.5 Q179 60 220 60 Q255 60 279 77.5 Q303 95 317 112 L317 480 L398 480 L398 0 Z M356 688 L254 558 L179 558 L258 690 L356 690 L356 688 Z " />
<glyph glyph-name="ubreve" unicode="&#x16d;" horiz-adv-x="460" d="M398 0 L324 0 L324 54 L322 54 Q319 48 309 36.5 Q299 25 283.5 14.5 Q268 4 246 -4 Q224 -12 197 -12 Q165 -12 139.5 -2.5 Q114 7 96 28 Q78 49 68.5 82.5 Q59 116 59 165 L59 480 L140 480 L140 171 Q140 111 159.5 85.5 Q179 60 220 60 Q255 60 279 77.5 Q303 95 317 112 L317 480 L398 480 L398 0 Z M338 681 Q336 626 310.5 591.5 Q285 557 228 557 Q172 557 146 591.5 Q120 626 118 681 L173 681 Q174 649 188 633.5 Q202 618 228 618 Q254 618 268 633.5 Q282 649 283 681 L338 681 L338 681 Z " />
<glyph glyph-name="ucircumflex" unicode="&#xfb;" horiz-adv-x="460" d="M398 0 L324 0 L324 54 L322 54 Q319 48 309 36.5 Q299 25 283.5 14.5 Q268 4 246 -4 Q224 -12 197 -12 Q165 -12 139.5 -2.5 Q114 7 96 28 Q78 49 68.5 82.5 Q59 116 59 165 L59 480 L140 480 L140 171 Q140 111 159.5 85.5 Q179 60 220 60 Q255 60 279 77.5 Q303 95 317 112 L317 480 L398 480 L398 0 Z M287 557 L229 645 L228 645 L170 557 L109 557 L182 699 L274 699 L348 557 L287 557 Z " />
<glyph glyph-name="udieresis" unicode="&#xfc;" horiz-adv-x="460" d="M398 0 L324 0 L324 54 L322 54 Q319 48 309 36.5 Q299 25 283.5 14.5 Q268 4 246 -4 Q224 -12 197 -12 Q165 -12 139.5 -2.5 Q114 7 96 28 Q78 49 68.5 82.5 Q59 116 59 165 L59 480 L140 480 L140 171 Q140 111 159.5 85.5 Q179 60 220 60 Q255 60 279 77.5 Q303 95 317 112 L317 480 L398 480 L398 0 Z M199 618 Q199 595 185 581 Q171 567 151 567 Q131 567 117 581 Q103 595 103 618 Q103 641 117 655 Q131 669 151 669 Q171 669 185 655 Q199 641 199 618 Z M353 618 Q353 595 339 581 Q325 567 305 567 Q285 567 271 581 Q257 595 257 618 Q257 641 271 655 Q285 669 305 669 Q325 669 339 655 Q353 641 353 618 Z " />
<glyph glyph-name="ugrave" unicode="&#xf9;" horiz-adv-x="460" d="M398 0 L324 0 L324 54 L322 54 Q319 48 309 36.5 Q299 25 283.5 14.5 Q268 4 246 -4 Q224 -12 197 -12 Q165 -12 139.5 -2.5 Q114 7 96 28 Q78 49 68.5 82.5 Q59 116 59 165 L59 480 L140 480 L140 171 Q140 111 159.5 85.5 Q179 60 220 60 Q255 60 279 77.5 Q303 95 317 112 L317 480 L398 480 L398 0 Z M202 558 L101 688 L101 690 L199 690 L278 558 L202 558 Z " />
<glyph glyph-name="uhungarumlaut" unicode="&#x171;" horiz-adv-x="460" d="M398 0 L324 0 L324 54 L322 54 Q319 48 309 36.5 Q299 25 283.5 14.5 Q268 4 246 -4 Q224 -12 197 -12 Q165 -12 139.5 -2.5 Q114 7 96 28 Q78 49 68.5 82.5 Q59 116 59 165 L59 480 L140 480 L140 171 Q140 111 159.5 85.5 Q179 60 220 60 Q255 60 279 77.5 Q303 95 317 112 L317 480 L398 480 L398 0 Z M279 688 L199 558 L141 558 L207 690 L279 690 L279 688 Z M399 688 L319 558 L260 558 L326 690 L399 690 L399 688 Z " />
<glyph glyph-name="umacron" unicode="&#x16b;" horiz-adv-x="460" d="M398 0 L324 0 L324 54 L322 54 Q319 48 309 36.5 Q299 25 283.5 14.5 Q268 4 246 -4 Q224 -12 197 -12 Q165 -12 139.5 -2.5 Q114 7 96 28 Q78 49 68.5 82.5 Q59 116 59 165 L59 480 L140 480 L140 171 Q140 111 159.5 85.5 Q179 60 220 60 Q255 60 279 77.5 Q303 95 317 112 L317 480 L398 480 L398 0 Z M328 582 L128 582 L128 646 L328 646 L328 582 Z " />
<glyph glyph-name="uogonek" unicode="&#x173;" horiz-adv-x="460" d="M423 -193 Q418 -197 401.5 -204.5 Q385 -212 357 -212 Q312 -212 289 -187.5 Q266 -163 266 -119 Q266 -79 285 -48.5 Q304 -18 324 2 L324 54 L322 54 Q319 48 309 36.5 Q299 25 283.5 14.5 Q268 4 246 -4 Q224 -12 197 -12 Q165 -12 139.5 -2.5 Q114 7 96 28 Q78 49 68.5 82.5 Q59 116 59 165 L59 480 L140 480 L140 171 Q140 111 159.5 85.5 Q179 60 220 60 Q255 60 279 77.5 Q303 95 317 112 L317 480 L398 480 L398 0 L386 0 Q372 -14 356.5 -38.5 Q341 -63 341 -98 Q341 -122 350.5 -131 Q360 -140 376 -140 Q388 -140 396 -137 Q404 -134 408 -132 L423 -193 Z " />
<glyph glyph-name="uring" unicode="&#x16f;" horiz-adv-x="460" d="M398 0 L324 0 L324 54 L322 54 Q319 48 309 36.5 Q299 25 283.5 14.5 Q268 4 246 -4 Q224 -12 197 -12 Q165 -12 139.5 -2.5 Q114 7 96 28 Q78 49 68.5 82.5 Q59 116 59 165 L59 480 L140 480 L140 171 Q140 111 159.5 85.5 Q179 60 220 60 Q255 60 279 77.5 Q303 95 317 112 L317 480 L398 480 L398 0 Z M308 637 Q308 599 285.5 576.5 Q263 554 228 554 Q193 554 170.5 576.5 Q148 599 148 637 Q148 675 170.5 698 Q193 721 228 721 Q263 721 285.5 698 Q308 675 308 637 Z M262 637 Q262 678 228 678 Q194 678 194 637 Q194 597 228 597 Q262 597 262 637 Z " />
<glyph glyph-name="utilde" unicode="&#x169;" horiz-adv-x="460" d="M398 0 L324 0 L324 54 L322 54 Q319 48 309 36.5 Q299 25 283.5 14.5 Q268 4 246 -4 Q224 -12 197 -12 Q165 -12 139.5 -2.5 Q114 7 96 28 Q78 49 68.5 82.5 Q59 116 59 165 L59 480 L140 480 L140 171 Q140 111 159.5 85.5 Q179 60 220 60 Q255 60 279 77.5 Q303 95 317 112 L317 480 L398 480 L398 0 Z M356 667 Q355 618 337.5 589.5 Q320 561 284 561 Q264 561 249 569 Q234 577 221.5 587 Q209 597 197 605 Q185 613 173 613 Q159 613 153 600 Q147 587 146 568 L100 568 Q100 617 117 645.5 Q134 674 171 674 Q190 674 205 666 Q220 658 233 648.5 Q246 639 258 631 Q270 623 283 623 Q297 623 303 635 Q309 647 310 667 L356 667 L356 667 Z " />
<glyph glyph-name="v" unicode="v" horiz-adv-x="394" d="M382 480 L234 0 L161 0 L12 480 L99 480 L169 215 Q180 175 188 141 Q196 107 198 76 L200 76 Q202 107 210.5 140 Q219 173 230 214 L304 480 L382 480 Z " />
<glyph glyph-name="w" unicode="w" horiz-adv-x="628" d="M615 480 L469 0 L397 0 L348 168 Q337 204 329.5 235 Q322 266 320 294 L318 294 Q316 266 307 234 Q298 202 286 167 L231 0 L162 0 L11 480 L98 480 L170 208 Q180 170 187.5 137.5 Q195 105 196 76 L198 76 Q201 105 210.5 136.5 Q220 168 232 205 L284 362 L248 480 L332 480 L405 215 Q416 174 425 138 Q434 102 435 76 L437 76 Q439 102 447 138.5 Q455 175 466 215 L537 480 L615 480 Z " />
<glyph glyph-name="wacute" unicode="&#x1e83;" horiz-adv-x="628" d="M615 480 L469 0 L397 0 L348 168 Q337 204 329.5 235 Q322 266 320 294 L318 294 Q316 266 307 234 Q298 202 286 167 L231 0 L162 0 L11 480 L98 480 L170 208 Q180 170 187.5 137.5 Q195 105 196 76 L198 76 Q201 105 210.5 136.5 Q220 168 232 205 L284 362 L248 480 L332 480 L405 215 Q416 174 425 138 Q434 102 435 76 L437 76 Q439 102 447 138.5 Q455 175 466 215 L537 480 L615 480 Z M432 688 L330 558 L255 558 L334 690 L432 690 L432 688 Z " />
<glyph glyph-name="wcircumflex" unicode="&#x175;" horiz-adv-x="628" d="M615 480 L469 0 L397 0 L348 168 Q337 204 329.5 235 Q322 266 320 294 L318 294 Q316 266 307 234 Q298 202 286 167 L231 0 L162 0 L11 480 L98 480 L170 208 Q180 170 187.5 137.5 Q195 105 196 76 L198 76 Q201 105 210.5 136.5 Q220 168 232 205 L284 362 L248 480 L332 480 L405 215 Q416 174 425 138 Q434 102 435 76 L437 76 Q439 102 447 138.5 Q455 175 466 215 L537 480 L615 480 Z M363 557 L305 645 L304 645 L246 557 L185 557 L258 699 L350 699 L424 557 L363 557 Z " />
<glyph glyph-name="wdieresis" unicode="&#x1e85;" horiz-adv-x="628" d="M615 480 L469 0 L397 0 L348 168 Q337 204 329.5 235 Q322 266 320 294 L318 294 Q316 266 307 234 Q298 202 286 167 L231 0 L162 0 L11 480 L98 480 L170 208 Q180 170 187.5 137.5 Q195 105 196 76 L198 76 Q201 105 210.5 136.5 Q220 168 232 205 L284 362 L248 480 L332 480 L405 215 Q416 174 425 138 Q434 102 435 76 L437 76 Q439 102 447 138.5 Q455 175 466 215 L537 480 L615 480 Z M275 618 Q275 595 261 581 Q247 567 227 567 Q207 567 193 581 Q179 595 179 618 Q179 641 193 655 Q207 669 227 669 Q247 669 261 655 Q275 641 275 618 Z M429 618 Q429 595 415 581 Q401 567 381 567 Q361 567 347 581 Q333 595 333 618 Q333 641 347 655 Q361 669 381 669 Q401 669 415 655 Q429 641 429 618 Z " />
<glyph glyph-name="wgrave" unicode="&#x1e81;" horiz-adv-x="628" d="M615 480 L469 0 L397 0 L348 168 Q337 204 329.5 235 Q322 266 320 294 L318 294 Q316 266 307 234 Q298 202 286 167 L231 0 L162 0 L11 480 L98 480 L170 208 Q180 170 187.5 137.5 Q195 105 196 76 L198 76 Q201 105 210.5 136.5 Q220 168 232 205 L284 362 L248 480 L332 480 L405 215 Q416 174 425 138 Q434 102 435 76 L437 76 Q439 102 447 138.5 Q455 175 466 215 L537 480 L615 480 Z M278 558 L177 688 L177 690 L275 690 L354 558 L278 558 Z " />
<glyph glyph-name="x" unicode="x" horiz-adv-x="387" d="M105 0 L17 0 L151 242 L25 480 L116 480 L163 379 Q169 366 173.5 356.5 Q178 347 181.5 337.5 Q185 328 188.5 318 Q192 308 195 295 L197 295 Q200 308 203.5 318 Q207 328 211 337.5 Q215 347 219.5 357 Q224 367 230 380 L277 480 L362 480 L236 249 L370 0 L276 0 L223 113 Q211 138 204 154 Q197 170 191 196 L189 196 Q183 170 175.5 152.5 Q168 135 156 110 L105 0 Z " />
<glyph glyph-name="uni1E8B" unicode="&#x1e8b;" horiz-adv-x="387" d="M105 0 L17 0 L151 242 L25 480 L116 480 L163 379 Q169 366 173.5 356.5 Q178 347 181.5 337.5 Q185 328 188.5 318 Q192 308 195 295 L197 295 Q200 308 203.5 318 Q207 328 211 337.5 Q215 347 219.5 357 Q224 367 230 380 L277 480 L362 480 L236 249 L370 0 L276 0 L223 113 Q211 138 204 154 Q197 170 191 196 L189 196 Q183 170 175.5 152.5 Q168 135 156 110 L105 0 Z M249 619 Q249 594 234 580 Q219 566 198 566 Q177 566 162.5 580 Q148 594 148 619 Q148 645 162.5 659 Q177 673 198 673 Q219 673 234 659 Q249 645 249 619 Z " />
<glyph glyph-name="y" unicode="y" horiz-adv-x="395" d="M382 480 L232 -28 Q206 -116 168.5 -161 Q131 -206 60 -206 Q45 -206 35 -202.5 Q25 -199 21 -197 L21 -127 Q26 -129 34 -131.5 Q42 -134 55 -134 Q98 -134 120.5 -107 Q143 -80 159 -24 L166 1 L11 480 L98 480 L173 214 Q184 173 193 137.5 Q202 102 204 74 L206 74 Q208 102 215.5 137 Q223 172 234 213 L302 480 L382 480 Z " />
<glyph glyph-name="yacute" unicode="&#xfd;" horiz-adv-x="395" d="M382 480 L232 -28 Q206 -116 168.5 -161 Q131 -206 60 -206 Q45 -206 35 -202.5 Q25 -199 21 -197 L21 -127 Q26 -129 34 -131.5 Q42 -134 55 -134 Q98 -134 120.5 -107 Q143 -80 159 -24 L166 1 L11 480 L98 480 L173 214 Q184 173 193 137.5 Q202 102 204 74 L206 74 Q208 102 215.5 137 Q223 172 234 213 L302 480 L382 480 Z M334 688 L232 558 L157 558 L236 690 L334 690 L334 688 Z " />
<glyph glyph-name="ycircumflex" unicode="&#x177;" horiz-adv-x="395" d="M382 480 L232 -28 Q206 -116 168.5 -161 Q131 -206 60 -206 Q45 -206 35 -202.5 Q25 -199 21 -197 L21 -127 Q26 -129 34 -131.5 Q42 -134 55 -134 Q98 -134 120.5 -107 Q143 -80 159 -24 L166 1 L11 480 L98 480 L173 214 Q184 173 193 137.5 Q202 102 204 74 L206 74 Q208 102 215.5 137 Q223 172 234 213 L302 480 L382 480 Z M265 557 L207 645 L206 645 L148 557 L87 557 L160 699 L252 699 L326 557 L265 557 Z " />
<glyph glyph-name="ydieresis" unicode="&#xff;" horiz-adv-x="395" d="M382 480 L232 -28 Q206 -116 168.5 -161 Q131 -206 60 -206 Q45 -206 35 -202.5 Q25 -199 21 -197 L21 -127 Q26 -129 34 -131.5 Q42 -134 55 -134 Q98 -134 120.5 -107 Q143 -80 159 -24 L166 1 L11 480 L98 480 L173 214 Q184 173 193 137.5 Q202 102 204 74 L206 74 Q208 102 215.5 137 Q223 172 234 213 L302 480 L382 480 Z M177 618 Q177 595 163 581 Q149 567 129 567 Q109 567 95 581 Q81 595 81 618 Q81 641 95 655 Q109 669 129 669 Q149 669 163 655 Q177 641 177 618 Z M331 618 Q331 595 317 581 Q303 567 283 567 Q263 567 249 581 Q235 595 235 618 Q235 641 249 655 Q263 669 283 669 Q303 669 317 655 Q331 641 331 618 Z " />
<glyph glyph-name="ygrave" unicode="&#x1ef3;" horiz-adv-x="395" d="M382 480 L232 -28 Q206 -116 168.5 -161 Q131 -206 60 -206 Q45 -206 35 -202.5 Q25 -199 21 -197 L21 -127 Q26 -129 34 -131.5 Q42 -134 55 -134 Q98 -134 120.5 -107 Q143 -80 159 -24 L166 1 L11 480 L98 480 L173 214 Q184 173 193 137.5 Q202 102 204 74 L206 74 Q208 102 215.5 137 Q223 172 234 213 L302 480 L382 480 Z M180 558 L79 688 L79 690 L177 690 L256 558 L180 558 Z " />
<glyph glyph-name="z" unicode="z" horiz-adv-x="370" d="M330 428 L136 71 L136 69 L343 69 L336 0 L31 0 L31 52 L231 412 L231 414 L42 414 L42 480 L330 480 L330 428 Z " />
<glyph glyph-name="zacute" unicode="&#x17a;" horiz-adv-x="370" d="M330 428 L136 71 L136 69 L343 69 L336 0 L31 0 L31 52 L231 412 L231 414 L42 414 L42 480 L330 480 L330 428 Z M316 688 L214 558 L139 558 L218 690 L316 690 L316 688 Z " />
<glyph glyph-name="zcaron" unicode="&#x17e;" horiz-adv-x="370" d="M330 428 L136 71 L136 69 L343 69 L336 0 L31 0 L31 52 L231 412 L231 414 L42 414 L42 480 L330 480 L330 428 Z M234 560 L142 560 L69 700 L130 700 L188 613 L189 613 L247 700 L308 700 L234 560 Z " />
<glyph glyph-name="zdotaccent" unicode="&#x17c;" horiz-adv-x="370" d="M330 428 L136 71 L136 69 L343 69 L336 0 L31 0 L31 52 L231 412 L231 414 L42 414 L42 480 L330 480 L330 428 Z M240 619 Q240 594 225 580 Q210 566 189 566 Q168 566 153.5 580 Q139 594 139 619 Q139 645 153.5 659 Q168 673 189 673 Q210 673 225 659 Q240 645 240 619 Z " />
<glyph glyph-name="uni01B6" unicode="&#x1b6;" horiz-adv-x="376" d="M333 428 L247 271 L319 271 L319 223 L221 223 L139 71 L139 69 L346 69 L339 0 L34 0 L34 52 L129 223 L59 223 L59 271 L155 271 L234 412 L234 414 L45 414 L45 480 L333 480 L333 428 Z " />
<glyph glyph-name="acute" unicode="&#xb4;" horiz-adv-x="181" d="M185 688 L83 558 L8 558 L87 690 L185 690 L185 688 Z " />
<glyph glyph-name="breve" unicode="&#x2d8;" horiz-adv-x="266" d="M243 681 Q241 626 215.5 591.5 Q190 557 133 557 Q77 557 51 591.5 Q25 626 23 681 L78 681 Q79 649 93 633.5 Q107 618 133 618 Q159 618 173 633.5 Q187 649 188 681 L243 681 L243 681 Z " />
<glyph glyph-name="caron" unicode="&#x2c7;" horiz-adv-x="259" d="M175 560 L83 560 L10 700 L71 700 L129 613 L130 613 L188 700 L249 700 L175 560 Z " />
<glyph glyph-name="cedilla" unicode="&#xb8;" horiz-adv-x="220" d="M195 -127 Q195 -165 169.5 -186.5 Q144 -208 97 -208 Q74 -208 60 -203.5 Q46 -199 36 -194 L36 -150 Q44 -155 56 -158 Q68 -161 84 -161 Q130 -161 130 -126 Q130 -83 59 -83 L56 -80 L98 9 L147 9 L120 -55 Q158 -57 176.5 -77 Q195 -97 195 -127 Z " />
<glyph glyph-name="circumflex" unicode="&#x2c6;" horiz-adv-x="259" d="M188 557 L130 645 L129 645 L71 557 L10 557 L83 699 L175 699 L249 557 L188 557 Z " />
<glyph glyph-name="commaaccent" unicode="&#xf6c3;" horiz-adv-x="148" d="M144 -115 Q144 -141 136 -159.5 Q128 -178 115 -191 Q102 -204 85.5 -212 Q69 -220 53 -225 L39 -195 Q56 -187 72.5 -173 Q89 -159 93 -131 Q74 -131 61.5 -119.5 Q49 -108 49 -85 Q49 -64 61.5 -53 Q74 -42 91 -42 Q114 -42 129 -59.5 Q144 -77 144 -115 Z " />
<glyph glyph-name="dieresis" unicode="&#xa8;" horiz-adv-x="350" d="M146 618 Q146 595 132 581 Q118 567 98 567 Q78 567 64 581 Q50 595 50 618 Q50 641 64 655 Q78 669 98 669 Q118 669 132 655 Q146 641 146 618 Z M300 618 Q300 595 286 581 Q272 567 252 567 Q232 567 218 581 Q204 595 204 618 Q204 641 218 655 Q232 669 252 669 Q272 669 286 655 Q300 641 300 618 Z " />
<glyph glyph-name="dotaccent" unicode="&#x2d9;" horiz-adv-x="111" d="M107 619 Q107 594 92 580 Q77 566 56 566 Q35 566 20.5 580 Q6 594 6 619 Q6 645 20.5 659 Q35 673 56 673 Q77 673 92 659 Q107 645 107 619 Z " />
<glyph glyph-name="grave" unicode="&#x60;" horiz-adv-x="182" d="M98 558 L-3 688 L-3 690 L95 690 L174 558 L98 558 Z " />
<glyph glyph-name="hungarumlaut" unicode="&#x2dd;" horiz-adv-x="239" d="M138 688 L58 558 L0 558 L66 690 L138 690 L138 688 Z M258 688 L178 558 L119 558 L185 690 L258 690 L258 688 Z " />
<glyph glyph-name="macron" unicode="&#xaf;" horiz-adv-x="258" d="M229 582 L29 582 L29 646 L229 646 L229 582 Z " />
<glyph glyph-name="ogonek" unicode="&#x2db;" horiz-adv-x="198" d="M183 -193 Q178 -197 161.5 -204.5 Q145 -212 117 -212 Q72 -212 49 -187.5 Q26 -163 26 -119 Q26 -90 37 -65.5 Q48 -41 63 -21.5 Q78 -2 93.5 11 Q109 24 117 31 L156 9 Q150 3 140.5 -6.5 Q131 -16 122.5 -29.5 Q114 -43 107.5 -60 Q101 -77 101 -98 Q101 -122 110.5 -131 Q120 -140 136 -140 Q148 -140 156 -137 Q164 -134 168 -132 L183 -193 Z " />
<glyph glyph-name="ring" unicode="&#x2da;" horiz-adv-x="207" d="M183 637 Q183 599 160.5 576.5 Q138 554 103 554 Q68 554 45.5 576.5 Q23 599 23 637 Q23 675 45.5 698 Q68 721 103 721 Q138 721 160.5 698 Q183 675 183 637 Z M137 637 Q137 678 103 678 Q69 678 69 637 Q69 597 103 597 Q137 597 137 637 Z " />
<glyph glyph-name="tilde" unicode="&#x2dc;" horiz-adv-x="308" d="M282 667 Q281 618 263.5 589.5 Q246 561 210 561 Q190 561 175 569 Q160 577 147.5 587 Q135 597 123 605 Q111 613 99 613 Q85 613 79 600 Q73 587 72 568 L26 568 Q26 617 43 645.5 Q60 674 97 674 Q116 674 131 666 Q146 658 159 648.5 Q172 639 184 631 Q196 623 209 623 Q223 623 229 635 Q235 647 236 667 L282 667 L282 667 Z " />
<glyph glyph-name="bar" unicode="&#x7c;" horiz-adv-x="213" d="M72 -140 L72 750 L141 750 L141 -140 L72 -140 Z " />
<glyph glyph-name="brokenbar" unicode="&#xa6;" horiz-adv-x="213" d="M72 -139 L72 245 L141 245 L141 -139 L72 -139 Z M72 366 L72 750 L141 750 L141 366 L72 366 Z " />
<glyph glyph-name="slash" unicode="&#x2f;" horiz-adv-x="381" d="M94 -140 L22 -140 L289 750 L360 750 L94 -140 Z " />
<glyph glyph-name="backslash" unicode="&#x5c;" horiz-adv-x="381" d="M21 750 L92 750 L359 -140 L287 -140 L21 750 Z " />
<glyph glyph-name="comma" unicode="&#x2c;" horiz-adv-x="214" d="M49 57 Q49 84 64.5 97.5 Q80 111 101 111 Q130 111 148.5 87 Q167 63 167 13 Q167 -21 156.5 -46.5 Q146 -72 129 -90.5 Q112 -109 91.5 -121 Q71 -133 51 -140 L34 -105 Q65 -89 85 -66.5 Q105 -44 107 0 L104 0 Q81 0 65 14.5 Q49 29 49 57 Z " />
<glyph glyph-name="period" unicode="&#x2e;" horiz-adv-x="206" d="M103 103 Q127 103 143 87.5 Q159 72 159 46 Q159 20 143 4 Q127 -12 103 -12 Q79 -12 63 4 Q47 20 47 46 Q47 72 63 87.5 Q79 103 103 103 Z " />
<glyph glyph-name="uni2008" unicode="&#x2008;" horiz-adv-x="206" d="" />
<glyph glyph-name="semicolon" unicode="&#x3b;" horiz-adv-x="247" d="M68 57 Q68 84 83.5 97.5 Q99 111 120 111 Q149 111 167.5 87 Q186 63 186 13 Q186 -21 175.5 -46.5 Q165 -72 148 -90.5 Q131 -109 110.5 -121 Q90 -133 70 -140 L53 -105 Q84 -89 104 -66.5 Q124 -44 126 0 L123 0 Q100 0 84 14.5 Q68 29 68 57 Z M120 492 Q144 492 160 476.5 Q176 461 176 435 Q176 409 160 393 Q144 377 120 377 Q96 377 80 393 Q64 409 64 435 Q64 461 80 476.5 Q96 492 120 492 Z " />
<glyph glyph-name="colon" unicode="&#x3a;" horiz-adv-x="228" d="M114 103 Q138 103 154 87.5 Q170 72 170 46 Q170 20 154 4 Q138 -12 114 -12 Q90 -12 74 4 Q58 20 58 46 Q58 72 74 87.5 Q90 103 114 103 Z M114 492 Q138 492 154 476.5 Q170 461 170 435 Q170 409 154 393 Q138 377 114 377 Q90 377 74 393 Q58 409 58 435 Q58 461 74 476.5 Q90 492 114 492 Z " />
<glyph glyph-name="periodcentered" unicode="&#xb7;" horiz-adv-x="224" d="M112 363 Q136 363 152 347.5 Q168 332 168 306 Q168 280 152 264 Q136 248 112 248 Q88 248 72 264 Q56 280 56 306 Q56 332 72 347.5 Q88 363 112 363 Z " />
<glyph glyph-name="dotmath" unicode="&#x22c5;" horiz-adv-x="318" d="M159 363 Q183 363 199 347.5 Q215 332 215 306 Q215 280 199 264 Q183 248 159 248 Q135 248 119 264 Q103 280 103 306 Q103 332 119 347.5 Q135 363 159 363 Z " />
<glyph glyph-name="ellipsis" unicode="&#x2026;" horiz-adv-x="665" d="M152 43 Q152 17 137 2.5 Q122 -12 99 -12 Q76 -12 61.5 2.5 Q47 17 47 43 Q47 69 61.5 84.5 Q76 100 99 100 Q122 100 137 84.5 Q152 69 152 43 Z M385 43 Q385 17 370 2.5 Q355 -12 332 -12 Q309 -12 294.5 2.5 Q280 17 280 43 Q280 69 294.5 84.5 Q309 100 332 100 Q355 100 370 84.5 Q385 69 385 43 Z M618 43 Q618 17 603 2.5 Q588 -12 565 -12 Q542 -12 527.5 2.5 Q513 17 513 43 Q513 69 527.5 84.5 Q542 100 565 100 Q588 100 603 84.5 Q618 69 618 43 Z " />
<glyph glyph-name="exclam" unicode="&#x21;" horiz-adv-x="232" d="M153 192 L79 192 L67 690 L165 690 L153 192 Z M116 103 Q140 103 156 87.5 Q172 72 172 46 Q172 20 156 4 Q140 -12 116 -12 Q92 -12 76 4 Q60 20 60 46 Q60 72 76 87.5 Q92 103 116 103 Z " />
<glyph glyph-name="exclamdown" unicode="&#xa1;" horiz-adv-x="222" d="M74 298 L148 298 L160 -200 L62 -200 L74 298 Z M111 387 Q87 387 71 402.5 Q55 418 55 444 Q55 470 71 486 Q87 502 111 502 Q135 502 151 486 Q167 470 167 444 Q167 418 151 402.5 Q135 387 111 387 Z " />
<glyph glyph-name="question" unicode="&#x3f;" horiz-adv-x="350" d="M165 103 Q189 103 205 87.5 Q221 72 221 46 Q221 20 205 4 Q189 -12 165 -12 Q141 -12 125 4 Q109 20 109 46 Q109 72 125 87.5 Q141 103 165 103 Z M314 551 Q314 515 304.5 487 Q295 459 280 436.5 Q265 414 248.5 395.5 Q232 377 217 357.5 Q202 338 192.5 317 Q183 296 183 270 Q183 240 188.5 220 Q194 200 199 192 L123 192 Q116 205 108 226 Q100 247 100 279 Q100 309 109 332 Q118 355 131.5 375 Q145 395 161 413 Q177 431 190.5 451 Q204 471 213 493.5 Q222 516 222 545 Q222 584 205 605.5 Q188 627 156 627 Q139 627 125 622 Q111 617 100.5 610 Q90 603 82.5 595.5 Q75 588 71 583 L26 630 Q33 640 44.5 652.5 Q56 665 73 676 Q90 687 112.5 694.5 Q135 702 165 702 Q237 702 275.5 662.5 Q314 623 314 551 Z " />
<glyph glyph-name="questiondown" unicode="&#xbf;" horiz-adv-x="346" d="M182 387 Q158 387 142 402.5 Q126 418 126 444 Q126 470 142 486 Q158 502 182 502 Q206 502 222 486 Q238 470 238 444 Q238 418 222 402.5 Q206 387 182 387 Z M33 -61 Q33 -25 42.5 3 Q52 31 67 53.5 Q82 76 98.5 94.5 Q115 113 130 132.5 Q145 152 154.5 173 Q164 194 164 220 Q164 250 158.5 270 Q153 290 148 298 L224 298 Q231 285 239 264 Q247 243 247 211 Q247 181 238 158 Q229 135 215.5 115 Q202 95 186 77 Q170 59 156.5 39 Q143 19 134 -3.5 Q125 -26 125 -55 Q125 -94 142 -115.5 Q159 -137 191 -137 Q208 -137 222 -132 Q236 -127 246.5 -120 Q257 -113 264.5 -105.5 Q272 -98 276 -93 L321 -140 Q314 -150 302.5 -162.5 Q291 -175 274 -186 Q257 -197 234.5 -204.5 Q212 -212 182 -212 Q110 -212 71.5 -172.5 Q33 -133 33 -61 Z " />
<glyph glyph-name="ampersand" unicode="&#x26;" horiz-adv-x="542" d="M481 395 Q478 319 465 253.5 Q452 188 427 136 L537 2 L537 0 L433 0 L381 64 Q349 28 305.5 8 Q262 -12 205 -12 Q130 -12 85.5 33.5 Q41 79 41 161 Q41 197 50 225 Q59 253 74.5 276 Q90 299 110 317.5 Q130 336 152 353 Q126 391 109.5 433 Q93 475 93 532 Q93 574 105.5 606 Q118 638 139.5 659 Q161 680 190.5 691 Q220 702 254 702 Q286 702 311 690.5 Q336 679 353.5 659.5 Q371 640 380.5 613.5 Q390 587 390 557 Q390 515 378 484 Q366 453 347 428.5 Q328 404 303.5 384.5 Q279 365 254 347 L291 304 L379 196 Q394 238 402 288.5 Q410 339 412 399 L481 395 Z M212 60 Q253 60 283.5 75 Q314 90 337 119 L236 246 Q225 260 213.5 273.5 Q202 287 191 301 Q161 275 141 244 Q121 213 121 167 Q121 116 146 88 Q171 60 212 60 Z M170 532 Q170 490 182.5 458 Q195 426 215 397 Q236 412 254.5 427.5 Q273 443 287 461 Q301 479 309 500.5 Q317 522 317 549 Q317 589 299.5 612.5 Q282 636 250 636 Q218 636 194 611.5 Q170 587 170 532 Z " />
<glyph glyph-name="at" unicode="&#x40;" horiz-adv-x="744" d="M508 21 Q480 21 457 37 Q434 53 428 95 L426 95 Q421 86 412 73.5 Q403 61 389.5 49.5 Q376 38 358 29.5 Q340 21 317 21 Q293 21 272.5 30 Q252 39 237 58.5 Q222 78 213 109 Q204 140 204 183 Q204 250 220.5 301.5 Q237 353 264.5 388 Q292 423 328.5 441.5 Q365 460 404 460 Q440 460 460 446.5 Q480 433 488 425 L509 450 L545 450 L513 255 Q505 208 501.5 174.5 Q498 141 498 130 Q498 82 525 82 Q540 82 558 97.5 Q576 113 591.5 146 Q607 179 617.5 229.5 Q628 280 628 351 Q628 463 575.5 519 Q523 575 432 575 Q364 575 306 548 Q248 521 205.5 468.5 Q163 416 139 338.5 Q115 261 115 159 Q115 85 130 35.5 Q145 -14 172 -44 Q199 -74 237.5 -86.5 Q276 -99 324 -99 Q390 -99 432 -82.5 Q474 -66 494 -53 L507 -110 Q499 -116 484 -124.5 Q469 -133 446.5 -141.5 Q424 -150 393 -156 Q362 -162 321 -162 Q264 -162 213.5 -146.5 Q163 -131 125.5 -94 Q88 -57 66.5 4.5 Q45 66 45 158 Q45 263 71.5 351 Q98 439 149 503 Q200 567 273.5 602.5 Q347 638 441 638 Q499 638 546 619.5 Q593 601 626 566 Q659 531 677 478.5 Q695 426 695 359 Q695 270 678.5 206.5 Q662 143 636 101.5 Q610 60 576 40.5 Q542 21 508 21 Z M333 87 Q350 87 364.5 93.5 Q379 100 391 110 Q403 120 412 131.5 Q421 143 427 152 Q429 170 431.5 193.5 Q434 217 438 244 L458 372 Q451 378 439 386 Q427 394 404 394 Q380 394 357 382 Q334 370 317 344.5 Q300 319 289.5 279 Q279 239 279 184 Q279 133 292.5 110 Q306 87 333 87 Z " />
<glyph glyph-name="asterisk" unicode="&#x2a;" horiz-adv-x="436" d="M262 487 L262 485 L357 366 L304 329 L219 456 L217 456 L132 329 L79 366 L174 485 L174 487 L33 530 L54 592 L191 539 L192 540 L186 690 L250 690 L245 539 L246 538 L382 592 L403 530 L262 487 Z " />
<glyph glyph-name="section" unicode="&#xa7;" horiz-adv-x="419" d="M31 330 Q31 376 55 403.5 Q79 431 109 447 Q96 466 89.5 486.5 Q83 507 83 533 Q83 560 93 583.5 Q103 607 121 624.5 Q139 642 165 652 Q191 662 224 662 Q268 662 294 646 Q320 630 334 616 L302 561 Q291 572 272 584 Q253 596 225 596 Q193 596 176 580.5 Q159 565 159 541 Q159 508 177.5 486.5 Q196 465 222 443 L289 390 Q313 371 332 354 Q351 337 364 318.5 Q377 300 384 279 Q391 258 391 233 Q391 185 367.5 158 Q344 131 310 114 Q324 93 332 70.5 Q340 48 340 22 Q340 -2 331 -26 Q322 -50 303.5 -69 Q285 -88 257.5 -100 Q230 -112 193 -112 Q167 -112 147 -106.5 Q127 -101 111.5 -92.5 Q96 -84 84.5 -74 Q73 -64 64 -55 L100 5 Q106 -1 114 -9 Q122 -17 133 -23.5 Q144 -30 158 -35 Q172 -40 189 -40 Q227 -40 244.5 -22.5 Q262 -5 262 15 Q262 45 246.5 67 Q231 89 197 118 L132 171 Q109 189 90.5 206 Q72 223 59 242 Q46 261 38.5 282.5 Q31 304 31 330 Z M147 403 Q129 392 117.5 378 Q106 364 106 341 Q106 309 125 286 Q144 263 179 237 L241 187 Q257 173 272 159 Q290 170 302 184 Q314 198 314 219 Q314 250 297 272.5 Q280 295 243 324 L180 375 L147 403 Z " />
<glyph glyph-name="dagger" unicode="&#x2020;" horiz-adv-x="391" d="M344 480 L230 480 L230 222 L161 222 L161 480 L47 480 L47 546 L161 546 L161 690 L230 690 L230 546 L344 546 L344 480 Z " />
<glyph glyph-name="daggerdbl" unicode="&#x2021;" horiz-adv-x="391" d="M344 480 L230 480 L230 222 L344 222 L344 156 L230 156 L230 0 L161 0 L161 156 L47 156 L47 222 L161 222 L161 480 L47 480 L47 546 L161 546 L161 690 L230 690 L230 546 L344 546 L344 480 Z " />
<glyph glyph-name="paragraph" unicode="&#xb6;" horiz-adv-x="494" d="M293 0 L224 0 L224 286 L218 286 Q171 286 135.5 301 Q100 316 76 344 Q52 372 39.5 410.5 Q27 449 27 497 Q27 543 42 579 Q57 615 84.5 640 Q112 665 150 677.5 Q188 690 235 690 L293 690 L293 0 Z M219 -73 Q256 -72 281 -67 Q306 -62 321 -49.5 Q336 -37 342 -14.5 Q348 8 348 44 L348 690 L417 690 L417 37 Q417 -53 369 -92.5 Q321 -132 222 -132 L219 -73 Z " />
<glyph glyph-name="copyright" unicode="&#xa9;" horiz-adv-x="686" d="M640 345 Q640 260 618.5 193.5 Q597 127 557.5 81.5 Q518 36 463.5 12 Q409 -12 343 -12 Q277 -12 222.5 12 Q168 36 128.5 81.5 Q89 127 67.5 193.5 Q46 260 46 345 Q46 429 67.5 495.5 Q89 562 128.5 608 Q168 654 222.5 678 Q277 702 343 702 Q409 702 463.5 678 Q518 654 557.5 608 Q597 562 618.5 495.5 Q640 429 640 345 Z M579 345 Q579 414 562.5 469.5 Q546 525 515.5 564 Q485 603 441 623.5 Q397 644 343 644 Q289 644 245 623.5 Q201 603 170.5 564 Q140 525 123.5 469.5 Q107 414 107 345 Q107 275 123.5 219.5 Q140 164 170.5 125.5 Q201 87 245 66.5 Q289 46 343 46 Q397 46 441 66.5 Q485 87 515.5 125.5 Q546 164 562.5 219.5 Q579 275 579 345 Z M428 460 Q423 465 408 475.5 Q393 486 365 486 Q324 486 295.5 455 Q267 424 267 353 Q267 273 292.5 241.5 Q318 210 360 210 Q389 210 404.5 220 Q420 230 425 236 L452 184 Q444 175 419 159.5 Q394 144 348 144 Q315 144 286.5 154.5 Q258 165 237 189.5 Q216 214 203.5 253 Q191 292 191 349 Q191 405 206 443.5 Q221 482 244.5 506 Q268 530 297.5 541 Q327 552 356 552 Q401 552 424 538 Q447 524 457 513 L428 460 Z " />
<glyph glyph-name="registered" unicode="&#xae;" horiz-adv-x="466" d="M422 480 Q422 426 408 384.5 Q394 343 369 315 Q344 287 309 272.5 Q274 258 233 258 Q192 258 157.5 272.5 Q123 287 97.5 315 Q72 343 58 384.5 Q44 426 44 480 Q44 534 58 575.5 Q72 617 97.5 645 Q123 673 157.5 687.5 Q192 702 233 702 Q274 702 309 687.5 Q344 673 369 645 Q394 617 408 575.5 Q422 534 422 480 Z M377 480 Q377 572 337 616 Q297 660 233 660 Q170 660 129.5 616 Q89 572 89 480 Q89 388 129.5 344 Q170 300 233 300 Q297 300 337 344 Q377 388 377 480 Z M268 374 L227 453 L211 453 L211 374 L167 374 L167 598 L218 598 Q260 598 280.5 579.5 Q301 561 301 526 Q301 484 267 465 L321 374 L268 374 Z M254 526 Q254 558 219 558 L211 558 L211 491 L218 491 Q254 491 254 526 Z " />
<glyph glyph-name="trademark" unicode="&#x2122;" horiz-adv-x="791" d="M306 636 L198 636 L198 276 L134 276 L134 636 L26 636 L26 690 L310 690 L306 636 Z M720 690 L720 276 L661 276 L661 386 Q661 451 661.5 504.5 Q662 558 666 587 L664 587 Q659 558 643.5 507.5 Q628 457 608 396 L569 276 L514 276 L476 396 Q456 457 440.5 507.5 Q425 558 420 587 L418 587 Q421 558 421.5 504.5 Q422 451 422 387 L422 276 L363 276 L363 690 L438 690 L512 461 Q523 426 531.5 397 Q540 368 542 338 L544 338 Q547 367 555 396.5 Q563 426 574 461 L648 690 L720 690 Z " />
<glyph glyph-name="ordfeminine" unicode="&#xaa;" horiz-adv-x="334" d="M62 461 Q62 488 72.5 506.5 Q83 525 101 536.5 Q119 548 143 553 Q167 558 194 558 L206 558 L206 583 Q206 618 193 632.5 Q180 647 156 647 Q133 647 118.5 638 Q104 629 96 621 L67 661 Q77 672 101 687 Q125 702 165 702 Q216 702 241 673 Q266 644 266 582 L266 453 Q266 430 267 410.5 Q268 391 270 381 L212 381 Q211 387 210.5 395 Q210 403 210 414 L208 414 Q203 400 188.5 386.5 Q174 373 145 373 Q107 373 84.5 397.5 Q62 422 62 461 Z M61 315 L271 315 L271 259 L61 259 L61 315 Z M158 424 Q178 424 189 433.5 Q200 443 206 451 L206 515 L187 514 Q154 512 138.5 502 Q123 492 123 466 Q123 446 133 435 Q143 424 158 424 Z " />
<glyph glyph-name="ordmasculine" unicode="&#xba;" horiz-adv-x="377" d="M313 538 Q313 494 302.5 462.5 Q292 431 275 411 Q258 391 235 381.5 Q212 372 187 372 Q161 372 138.5 381.5 Q116 391 99 411 Q82 431 72.5 462.5 Q63 494 63 538 Q63 581 73.5 612.5 Q84 644 101.5 663.5 Q119 683 142 692.5 Q165 702 191 702 Q243 702 278 663.5 Q313 625 313 538 Z M250 538 Q250 598 232.5 623 Q215 648 188 648 Q162 648 144.5 623 Q127 598 127 538 Q127 478 144.5 453 Q162 428 188 428 Q216 428 233 453 Q250 478 250 538 Z M61 315 L316 315 L316 259 L61 259 L61 315 Z " />
<glyph glyph-name="bullet" unicode="&#x2022;" horiz-adv-x="346" d="M274 329 Q274 281 245 254.5 Q216 228 172 228 Q128 228 100 254.5 Q72 281 72 329 Q72 377 100 404.5 Q128 432 172 432 Q216 432 245 404.5 Q274 377 274 329 Z " />
<glyph glyph-name="uni2219" unicode="&#x2219;" horiz-adv-x="386" d="M294 329 Q294 281 265 254.5 Q236 228 192 228 Q148 228 120 254.5 Q92 281 92 329 Q92 377 120 404.5 Q148 432 192 432 Q236 432 265 404.5 Q294 377 294 329 Z " />
<glyph glyph-name="quotesinglbase" unicode="&#x201a;" horiz-adv-x="206" d="M48 54 Q48 80 62.5 92.5 Q77 105 97 105 Q124 105 142 84 Q160 63 160 17 Q160 -18 151 -43.5 Q142 -69 127 -87 Q112 -105 93.5 -117 Q75 -129 56 -136 L37 -105 Q66 -89 84 -66.5 Q102 -44 103 0 L100 0 Q78 0 63 14 Q48 28 48 54 Z " />
<glyph glyph-name="quoteleft" unicode="&#x2018;" horiz-adv-x="207" d="M155 512 Q155 486 140.5 473.5 Q126 461 106 461 Q79 461 61 482 Q43 503 43 549 Q43 584 52 609.5 Q61 635 76 653 Q91 671 109.5 683 Q128 695 147 702 L166 671 Q137 655 119 632.5 Q101 610 100 566 L103 566 Q125 566 140 552 Q155 538 155 512 Z " />
<glyph glyph-name="uni02BB" unicode="&#x2bb;" horiz-adv-x="207" d="M155.003 512.003 Q155.003 486.005 140.504 473.506 Q126.005 461.006 106.006 461.006 Q79.0076 461.006 61.0087 482.005 Q43.0098 503.004 43.0098 549.001 Q43.0098 583.999 52.0092 609.497 Q61.0087 634.996 76.0078 652.995 Q91.0068 670.994 109.506 682.993 Q128.005 694.992 147.003 701.992 L166.002 670.994 Q137.004 654.995 119.005 632.496 Q101.006 609.997 100.006 566 L103.006 566 Q125.005 566 140.004 552.001 Q155.003 538.002 155.003 512.003 Z " />
<glyph glyph-name="quoteright" unicode="&#x2019;" horiz-adv-x="207" d="M56 651 Q56 677 70.5 689.5 Q85 702 105 702 Q132 702 150 681 Q168 660 168 614 Q168 579 159 553.5 Q150 528 135 510 Q120 492 101.5 480 Q83 468 64 461 L45 492 Q74 508 92 530.5 Q110 553 111 597 L108 597 Q86 597 71 611 Q56 625 56 651 Z " />
<glyph glyph-name="afii57929" unicode="&#x2bc;" horiz-adv-x="207" d="M56 651 Q56 677 70.5 689.5 Q85 702 105 702 Q132 702 150 681 Q168 660 168 614 Q168 579 159 553.5 Q150 528 135 510 Q120 492 101.5 480 Q83 468 64 461 L45 492 Q74 508 92 530.5 Q110 553 111 597 L108 597 Q86 597 71 611 Q56 625 56 651 Z " />
<glyph glyph-name="quotedblbase" unicode="&#x201e;" horiz-adv-x="368" d="M48 54 Q48 80 62.5 92.5 Q77 105 97 105 Q124 105 142 84 Q160 63 160 17 Q160 -18 151 -43.5 Q142 -69 127 -87 Q112 -105 93.5 -117 Q75 -129 56 -136 L37 -105 Q66 -89 84 -66.5 Q102 -44 103 0 L100 0 Q78 0 63 14 Q48 28 48 54 Z M210 54 Q210 80 224.5 92.5 Q239 105 259 105 Q286 105 304 84 Q322 63 322 17 Q322 -18 313 -43.5 Q304 -69 289 -87 Q274 -105 255.5 -117 Q237 -129 218 -136 L199 -105 Q228 -89 246 -66.5 Q264 -44 265 0 L262 0 Q240 0 225 14 Q210 28 210 54 Z " />
<glyph glyph-name="quotedblleft" unicode="&#x201c;" horiz-adv-x="369" d="M155 512 Q155 486 140.5 473.5 Q126 461 106 461 Q79 461 61 482 Q43 503 43 549 Q43 584 52 609.5 Q61 635 76 653 Q91 671 109.5 683 Q128 695 147 702 L166 671 Q137 655 119 632.5 Q101 610 100 566 L103 566 Q125 566 140 552 Q155 538 155 512 Z M317 512 Q317 486 302.5 473.5 Q288 461 268 461 Q241 461 223 482 Q205 503 205 549 Q205 584 214 609.5 Q223 635 238 653 Q253 671 271.5 683 Q290 695 309 702 L328 671 Q299 655 281 632.5 Q263 610 262 566 L265 566 Q287 566 302 552 Q317 538 317 512 Z " />
<glyph glyph-name="quotedblright" unicode="&#x201d;" horiz-adv-x="369" d="M56 651 Q56 677 70.5 689.5 Q85 702 105 702 Q132 702 150 681 Q168 660 168 614 Q168 579 159 553.5 Q150 528 135 510 Q120 492 101.5 480 Q83 468 64 461 L45 492 Q74 508 92 530.5 Q110 553 111 597 L108 597 Q86 597 71 611 Q56 625 56 651 Z M218 651 Q218 677 232.5 689.5 Q247 702 267 702 Q294 702 312 681 Q330 660 330 614 Q330 579 321 553.5 Q312 528 297 510 Q282 492 263.5 480 Q245 468 226 461 L207 492 Q236 508 254 530.5 Q272 553 273 597 L270 597 Q248 597 233 611 Q218 625 218 651 Z " />
<glyph glyph-name="quotesingle" unicode="&#x27;" horiz-adv-x="181" d="M118 466 L57 466 L57 690 L132 690 L118 466 Z " />
<glyph glyph-name="quotedbl" unicode="&#x22;" horiz-adv-x="307" d="M118 466 L57 466 L57 690 L132 690 L118 466 Z M244 466 L183 466 L183 690 L258 690 L244 466 Z " />
<glyph glyph-name="asciicircum" unicode="&#x5e;" horiz-adv-x="404" d="M292 355 L200 587 L198 587 L105 355 L33 355 L179 690 L224 690 L371 355 L292 355 Z " />
<glyph glyph-name="degree" unicode="&#xb0;" horiz-adv-x="378" d="M340 506 Q340 473 328.5 444.5 Q317 416 296.5 395 Q276 374 248.5 362 Q221 350 189 350 Q157 350 129 362 Q101 374 81 395 Q61 416 49.5 444.5 Q38 473 38 506 Q38 539 49.5 567.5 Q61 596 81 617 Q101 638 129 650 Q157 662 189 662 Q221 662 248.5 650 Q276 638 296.5 617 Q317 596 328.5 567.5 Q340 539 340 506 Z M272 506 Q272 545 248.5 570 Q225 595 189 595 Q152 595 128.5 570 Q105 545 105 506 Q105 467 128.5 442 Q152 417 189 417 Q225 417 248.5 442 Q272 467 272 506 Z " />
<glyph glyph-name="numbersign" unicode="&#x23;" horiz-adv-x="517" d="M215 419 L185 236 L301 236 L331 419 L215 419 Z M480 431 L404 419 L374 236 L449 236 L441 187 L365 175 L332 0 L264 0 L292 175 L176 175 L143 0 L75 0 L103 175 L28 175 L36 224 L112 236 L142 419 L67 419 L75 468 L151 480 L184 650 L251 650 L224 480 L340 480 L372 650 L440 650 L413 480 L488 480 L480 431 Z " />
<glyph glyph-name="percent" unicode="&#x25;" horiz-adv-x="632" d="M284 499 Q284 457 273.5 426 Q263 395 245.5 375 Q228 355 205 345.5 Q182 336 158 336 Q134 336 111 345.5 Q88 355 70.5 375 Q53 395 42.5 426 Q32 457 32 499 Q32 541 42.5 571.5 Q53 602 70.5 622 Q88 642 111 651.5 Q134 661 158 661 Q182 661 205 651.5 Q228 642 245.5 622 Q263 602 273.5 571.5 Q284 541 284 499 Z M216 499 Q216 553 200.5 577.5 Q185 602 158 602 Q131 602 115.5 577.5 Q100 553 100 499 Q100 446 115.5 421 Q131 396 158 396 Q185 396 200.5 421 Q216 446 216 499 Z M162 0 L82 0 L470 650 L549 650 L162 0 Z M600 151 Q600 109 589.5 78 Q579 47 561.5 27 Q544 7 521 -2.5 Q498 -12 474 -12 Q450 -12 427 -2.5 Q404 7 386.5 27 Q369 47 358.5 78 Q348 109 348 151 Q348 193 358.5 223.5 Q369 254 386.5 274 Q404 294 427 303.5 Q450 313 474 313 Q498 313 521 303.5 Q544 294 561.5 274 Q579 254 589.5 223.5 Q600 193 600 151 Z M532 151 Q532 205 516.5 229.5 Q501 254 474 254 Q447 254 431.5 229.5 Q416 205 416 151 Q416 98 431.5 73 Q447 48 474 48 Q501 48 516.5 73 Q532 98 532 151 Z " />
<glyph glyph-name="perthousand" unicode="&#x2030;" horiz-adv-x="881" d="M272 499 Q272 458 262.5 427 Q253 396 237 376 Q221 356 199.5 346 Q178 336 154 336 Q129 336 107.5 346 Q86 356 70 376 Q54 396 44.5 427 Q35 458 35 499 Q35 581 69.5 621.5 Q104 662 154 662 Q203 662 237.5 621.5 Q272 581 272 499 Z M206 499 Q206 555 192.5 581 Q179 607 154 607 Q128 607 114.5 581 Q101 555 101 499 Q101 393 154 393 Q206 393 206 499 Z M151 0 L72 0 L460 650 L540 650 L151 0 Z M577 151 Q577 110 567.5 79 Q558 48 542 28 Q526 8 504.5 -2 Q483 -12 459 -12 Q434 -12 412.5 -2 Q391 8 375 28 Q359 48 349.5 79 Q340 110 340 151 Q340 233 374.5 273.5 Q409 314 459 314 Q508 314 542.5 273.5 Q577 233 577 151 Z M511 151 Q511 207 497.5 233 Q484 259 459 259 Q433 259 419.5 233 Q406 207 406 151 Q406 45 459 45 Q511 45 511 151 Z M854 151 Q854 110 844.5 79 Q835 48 819 28 Q803 8 781.5 -2 Q760 -12 736 -12 Q711 -12 689.5 -2 Q668 8 652 28 Q636 48 626.5 79 Q617 110 617 151 Q617 233 651.5 273.5 Q686 314 736 314 Q785 314 819.5 273.5 Q854 233 854 151 Z M788 151 Q788 207 774.5 233 Q761 259 736 259 Q710 259 696.5 233 Q683 207 683 151 Q683 45 736 45 Q788 45 788 151 Z " />
<glyph glyph-name="cent" unicode="&#xa2;" horiz-adv-x="395" d="M203 -10 Q168 -6 139 10 Q110 26 88 56 Q66 86 54 131.5 Q42 177 42 241 Q42 300 55.5 343.5 Q69 387 91.5 417 Q114 447 143 464.5 Q172 482 203 488 L203 609 L271 609 L271 490 Q312 485 333.5 470 Q355 455 365 444 L331 387 Q328 390 321.5 396 Q315 402 305 408 Q295 414 281 418.5 Q267 423 249 423 Q223 423 200.5 413.5 Q178 404 161.5 383 Q145 362 135.5 328.5 Q126 295 126 247 Q126 194 134.5 158 Q143 122 158 100.5 Q173 79 194.5 69.5 Q216 60 242 60 Q279 60 298.5 73 Q318 86 326 94 L359 38 Q351 28 330 13 Q309 -2 271 -9 L271 -129 L203 -129 L203 -10 Z " />
<glyph glyph-name="currency" unicode="&#xa4;" horiz-adv-x="519" d="M404 398 Q418 374 426 345 Q434 316 434 284 Q434 252 426 222.5 Q418 193 404 169 L475 92 L432 51 L366 124 Q321 84 259 84 Q196 84 151 124 L86 51 L44 92 L114 169 Q100 193 92 222 Q84 251 84 284 Q84 316 92 345.5 Q100 375 114 399 L44 476 L86 517 L152 443 Q174 462 201 472.5 Q228 483 259 483 Q290 483 317 472.5 Q344 462 366 443 L432 517 L475 476 L404 398 Z M365 284 Q365 341 336 378.5 Q307 416 259 416 Q211 416 182 378.5 Q153 341 153 284 Q153 227 182 189 Q211 151 259 151 Q307 151 336 189 Q365 227 365 284 Z " />
<glyph glyph-name="dollar" unicode="&#x24;" horiz-adv-x="402" d="M175 -11 Q143 -10 119 -3 Q95 4 77 13 Q59 22 47.5 31.5 Q36 41 29 47 L62 118 Q68 112 79 102.5 Q90 93 106 84 Q122 75 143 68.5 Q164 62 189 62 Q237 62 263 85.5 Q289 109 289 143 Q289 164 284 181 Q279 198 269 213.5 Q259 229 243.5 244 Q228 259 208 276 L155 320 Q128 343 107 363.5 Q86 384 71 406 Q56 428 48.5 454 Q41 480 41 514 Q41 570 76.5 610 Q112 650 175 659 L175 762 L242 762 L242 660 Q266 657 284.5 650.5 Q303 644 316 637 Q329 630 337.5 623 Q346 616 351 613 L317 550 Q313 554 304 561 Q295 568 281.5 574.5 Q268 581 249.5 586 Q231 591 209 591 Q166 591 144.5 568.5 Q123 546 123 515 Q123 477 144 448.5 Q165 420 210 384 L262 341 Q285 322 305.5 302.5 Q326 283 341 260.5 Q356 238 364.5 212 Q373 186 373 154 Q373 91 339 48.5 Q305 6 242 -7 L242 -129 L175 -129 L175 -11 Z " />
<glyph glyph-name="Euro" unicode="&#x20ac;" horiz-adv-x="468" d="M378 235 L180 235 Q185 184 196.5 150 Q208 116 225.5 95.5 Q243 75 265.5 66 Q288 57 315 57 Q352 57 372 66 Q392 75 403 84 L429 28 Q417 17 389 2.5 Q361 -12 308 -12 Q266 -12 230 1 Q194 14 166.5 43 Q139 72 121 119 Q103 166 96 235 L33 235 L33 291 L92 291 L92 325 Q92 333 92 342 Q92 351 93 359 L33 359 L33 415 L97 415 Q106 482 128.5 529 Q151 576 181.5 605.5 Q212 635 249 648.5 Q286 662 325 662 Q347 662 363.5 658.5 Q380 655 392 650 Q404 645 413 639 Q422 633 428 628 L396 569 Q385 578 368 587 Q351 596 322 596 Q269 596 231.5 553.5 Q194 511 181 415 L378 415 L378 359 L176 359 L176 291 L378 291 L378 235 Z " />
<glyph glyph-name="florin" unicode="&#x192;" horiz-adv-x="297" d="M324 578 Q319 582 308.5 586 Q298 590 282 590 Q253 590 235 571.5 Q217 553 209 502 L185 350 L280 350 L272 281 L175 281 L140 65 Q130 3 113 -39.5 Q96 -82 71.5 -108.5 Q47 -135 13 -147.5 Q-21 -160 -65 -162 L-65 -93 Q-36 -90 -16 -82 Q4 -74 18 -55.5 Q32 -37 41.5 -5.5 Q51 26 59 74 L92 281 L33 281 L42 337 L103 350 L128 505 Q142 590 184 626 Q226 662 283 662 Q306 662 321 656 Q336 650 341 647 L324 578 Z " />
<glyph glyph-name="sterling" unicode="&#xa3;" horiz-adv-x="405" d="M314 266 L205 266 Q206 257 206.5 247.5 Q207 238 207 228 Q207 198 200.5 173.5 Q194 149 184 130 Q174 111 162.5 96 Q151 81 142 71 L142 69 L367 69 L367 0 L48 0 L42 55 Q56 68 71.5 84.5 Q87 101 99.5 122.5 Q112 144 120.5 170 Q129 196 129 227 Q129 238 128.5 247.5 Q128 257 127 266 L61 266 L61 332 L113 332 Q107 350 101 368 Q95 386 90 405.5 Q85 425 82 447 Q79 469 79 497 Q79 539 92.5 570.5 Q106 602 129 622 Q152 642 182 652 Q212 662 244 662 Q294 662 320.5 647 Q347 632 358 622 L322 563 Q313 571 294.5 582 Q276 593 244 593 Q206 593 183 568 Q160 543 160 488 Q160 438 170.5 403 Q181 368 192 332 L314 332 L314 266 Z " />
<glyph glyph-name="yen" unicode="&#xa5;" horiz-adv-x="473" d="M356 650 L443 650 L301 334 L410 334 L410 278 L278 278 L278 210 L410 210 L410 154 L278 154 L278 0 L197 0 L197 154 L63 154 L63 210 L197 210 L197 278 L63 278 L63 334 L172 334 L30 650 L121 650 L208 440 Q220 411 228 387 Q236 363 239 340 L241 340 Q244 363 252.5 388 Q261 413 272 442 L356 650 Z " />
<glyph glyph-name="Delta" unicode="&#x2206;" horiz-adv-x="503" d="M477 0 L26 0 L26 68 L212 690 L292 690 L477 68 L477 0 Z M111 75 L387 75 L278 478 Q267 516 258.5 549.5 Q250 583 249 606 L247 606 Q246 583 238 549.5 Q230 516 219 478 L111 75 Z " />
<glyph glyph-name="uni0394" unicode="&#x394;" horiz-adv-x="495" d="M473 0 L22 0 L22 68 L208 690 L288 690 L473 68 L473 0 Z M107 75 L383 75 L274 478 Q263 516 254.5 549.5 Q246 583 245 606 L243 606 Q242 583 234 549.5 Q226 516 215 478 L107 75 Z " />
<glyph glyph-name="Omega" unicode="&#x2126;" horiz-adv-x="637" d="M124 139 Q97 176 76 234 Q55 292 55 379 Q55 455 74.5 515 Q94 575 129 616.5 Q164 658 212.5 680 Q261 702 318 702 Q377 702 425.5 680 Q474 658 509 616.5 Q544 575 563 515 Q582 455 582 379 Q582 298 562.5 239.5 Q543 181 511 139 Q494 116 473 96.5 Q452 77 433 71 L433 69 Q452 71 473 71.5 Q494 72 523 72 L588 72 L588 0 L353 0 L353 75 Q376 94 401.5 118.5 Q427 143 448 177.5 Q469 212 482.5 259 Q496 306 496 371 Q496 436 482.5 484.5 Q469 533 445.5 565.5 Q422 598 389.5 614 Q357 630 318 630 Q279 630 246.5 614 Q214 598 190.5 565.5 Q167 533 154 484.5 Q141 436 141 371 Q141 306 154.5 259 Q168 212 189 177.5 Q210 143 235 118.5 Q260 94 283 75 L283 0 L49 0 L49 72 L112 72 Q141 72 162 71.5 Q183 71 202 69 L202 71 Q183 77 162 96.5 Q141 116 124 139 Z " />
<glyph glyph-name="uni03A9" unicode="&#x3a9;" horiz-adv-x="637" d="M124 139 Q97 176 76 234 Q55 292 55 379 Q55 455 74.5 515 Q94 575 129 616.5 Q164 658 212.5 680 Q261 702 318 702 Q377 702 425.5 680 Q474 658 509 616.5 Q544 575 563 515 Q582 455 582 379 Q582 298 562.5 239.5 Q543 181 511 139 Q494 116 473 96.5 Q452 77 433 71 L433 69 Q452 71 473 71.5 Q494 72 523 72 L588 72 L588 0 L353 0 L353 75 Q376 94 401.5 118.5 Q427 143 448 177.5 Q469 212 482.5 259 Q496 306 496 371 Q496 436 482.5 484.5 Q469 533 445.5 565.5 Q422 598 389.5 614 Q357 630 318 630 Q279 630 246.5 614 Q214 598 190.5 565.5 Q167 533 154 484.5 Q141 436 141 371 Q141 306 154.5 259 Q168 212 189 177.5 Q210 143 235 118.5 Q260 94 283 75 L283 0 L49 0 L49 72 L112 72 Q141 72 162 71.5 Q183 71 202 69 L202 71 Q183 77 162 96.5 Q141 116 124 139 Z " />
<glyph glyph-name="mu" unicode="&#xb5;" horiz-adv-x="496" d="M200 -12 Q169 -12 145 -1 Q147 -59 156 -106.5 Q165 -154 180 -200 L96 -200 Q82 -152 75.5 -82.5 Q69 -13 69 64 L69 480 L150 480 L150 168 Q150 113 169 86.5 Q188 60 231 60 Q266 60 288.5 76 Q311 92 322 107 L322 480 L403 480 L403 106 Q403 78 410.5 68 Q418 58 434 58 Q449 58 459 62 L459 2 Q455 0 443.5 -4.5 Q432 -9 412 -9 Q380 -9 359 4.5 Q338 18 328 50 Q322 41 311.5 30 Q301 19 285.5 9.5 Q270 0 249 -6 Q228 -12 200 -12 Z " />
<glyph glyph-name="uni03BC" unicode="&#x3bc;" horiz-adv-x="482" d="M193 -12 Q162 -12 138 -1 Q140 -59 149 -106.5 Q158 -154 173 -200 L89 -200 Q75 -152 68.5 -82.5 Q62 -13 62 64 L62 480 L143 480 L143 168 Q143 113 162 86.5 Q181 60 224 60 Q259 60 281.5 76 Q304 92 315 107 L315 480 L396 480 L396 106 Q396 78 403.5 68 Q411 58 427 58 Q442 58 452 62 L452 2 Q448 0 436.5 -4.5 Q425 -9 405 -9 Q373 -9 352 4.5 Q331 18 321 50 Q315 41 304.5 30 Q294 19 278.5 9.5 Q263 0 242 -6 Q221 -12 193 -12 Z " />
<glyph glyph-name="pi" unicode="&#x3c0;" horiz-adv-x="535" d="M500 414 L407 414 L407 140 Q407 92 421.5 76 Q436 60 460 60 Q474 60 481.5 61 Q489 62 494 64 L494 -4 Q489 -6 477.5 -9 Q466 -12 444 -12 Q418 -12 396.5 -4.5 Q375 3 359 20 Q343 37 334.5 64 Q326 91 326 131 L326 414 L202 414 Q200 349 196 292.5 Q192 236 185.5 185.5 Q179 135 170.5 89 Q162 43 152 0 L68 0 Q78 44 87.5 89.5 Q97 135 104.5 184.5 Q112 234 117 289.5 Q122 345 124 410 Q86 405 64 397 Q42 389 29 384 L18 451 Q27 455 39.5 460 Q52 465 72.5 469.5 Q93 474 122 477 Q151 480 192 480 L507 480 L500 414 Z " />
<glyph glyph-name="partialdiff" unicode="&#x2202;" horiz-adv-x="476" d="M434 367 Q434 277 417 207 Q400 137 369.5 88 Q339 39 295.5 13.5 Q252 -12 199 -12 Q159 -12 129.5 2.5 Q100 17 80 43.5 Q60 70 50 106.5 Q40 143 40 188 Q40 246 56 290.5 Q72 335 99.5 364.5 Q127 394 162.5 409 Q198 424 237 424 Q279 424 306.5 408.5 Q334 393 351 372 Q350 508 313.5 576.5 Q277 645 200 645 Q167 645 144 638 Q121 631 107 622 L79 689 Q98 703 127.5 712.5 Q157 722 200 722 Q434 722 434 367 Z M205 63 Q265 63 301.5 120.5 Q338 178 348 289 Q334 314 309.5 333 Q285 352 245 352 Q189 352 155 313.5 Q121 275 121 196 Q121 136 140.5 99.5 Q160 63 205 63 Z " />
<glyph glyph-name="product" unicode="&#x220f;" horiz-adv-x="558" d="M533 635 L443 635 L443 -150 L362 -150 L362 635 L198 635 L198 -150 L115 -150 L115 635 L27 635 L27 710 L533 710 L533 635 Z " />
<glyph glyph-name="summation" unicode="&#x2211;" horiz-adv-x="435" d="M387 635 L133 635 L345 288 L128 -75 L407 -75 L407 -150 L30 -150 L30 -89 L252 283 L28 649 L28 710 L387 710 L387 635 Z " />
<glyph glyph-name="plus" unicode="&#x2b;" horiz-adv-x="438" d="M403 278 L255 278 L255 112 L183 112 L183 278 L35 278 L35 347 L183 347 L183 512 L255 512 L255 347 L403 347 L403 278 Z " />
<glyph glyph-name="plusminus" unicode="&#xb1;" horiz-adv-x="438" d="M403 86 L35 86 L35 155 L403 155 L403 86 Z M403 365 L255 365 L255 199 L183 199 L183 365 L35 365 L35 434 L183 434 L183 599 L255 599 L255 434 L403 434 L403 365 Z " />
<glyph glyph-name="minus" unicode="&#x2212;" horiz-adv-x="438" d="M403 278 L35 278 L35 347 L403 347 L403 278 Z " />
<glyph glyph-name="divide" unicode="&#xf7;" horiz-adv-x="438" d="M263 140 Q263 121 251.5 110.5 Q240 100 221 100 Q201 100 189.5 110.5 Q178 121 178 140 Q178 160 189.5 171 Q201 182 221 182 Q240 182 251.5 171 Q263 160 263 140 Z M263 484 Q263 464 251.5 453 Q240 442 221 442 Q201 442 189.5 453 Q178 464 178 484 Q178 503 189.5 513.5 Q201 524 221 524 Q240 524 251.5 513.5 Q263 503 263 484 Z M403 278 L35 278 L35 347 L403 347 L403 278 Z " />
<glyph glyph-name="equal" unicode="&#x3d;" horiz-adv-x="438" d="M403 203 L35 203 L35 269 L403 269 L403 203 Z M403 356 L35 356 L35 421 L403 421 L403 356 Z " />
<glyph glyph-name="notequal" unicode="&#x2260;" horiz-adv-x="438" d="M403 203 L179 203 L117 88 L76 88 L138 203 L35 203 L35 269 L174 269 L221 356 L35 356 L35 421 L256 421 L319 536 L361 536 L298 421 L403 421 L403 356 L263 356 L215 269 L403 269 L403 203 Z " />
<glyph glyph-name="multiply" unicode="&#xd7;" horiz-adv-x="438" d="M269 312 L393 188 L342 139 L219 263 L96 139 L45 188 L168 312 L45 436 L96 485 L219 361 L342 485 L393 436 L269 312 Z " />
<glyph glyph-name="asciitilde" unicode="&#x7e;" horiz-adv-x="438" d="M404 375 Q403 346 397 321.5 Q391 297 378 278 Q365 259 346 248.5 Q327 238 300 238 Q277 238 255.5 250 Q234 262 214 276.5 Q194 291 175.5 303 Q157 315 140 315 Q126 315 117.5 309 Q109 303 103.5 293.5 Q98 284 95.5 271.5 Q93 259 92 247 L40 247 Q41 275 47 300 Q53 325 65.5 343.5 Q78 362 97 372.5 Q116 383 143 383 Q166 383 187.5 371 Q209 359 229.5 345 Q250 331 268.5 319 Q287 307 304 307 Q330 307 340 328.5 Q350 350 352 375 L404 375 L404 375 Z " />
<glyph glyph-name="approxequal" unicode="&#x2248;" horiz-adv-x="438" d="M412 422 Q403 401 393 383.5 Q383 366 369.5 353.5 Q356 341 338.5 334 Q321 327 296 327 Q271 327 250 338.5 Q229 350 210 364 Q191 378 173 389.5 Q155 401 136 401 Q110 401 97 384.5 Q84 368 73 347 L30 372 Q39 393 49 410.5 Q59 428 72.5 440.5 Q86 453 103.5 460 Q121 467 146 467 Q170 467 191 455.5 Q212 444 231.5 430 Q251 416 269 404.5 Q287 393 306 393 Q332 393 345 409.5 Q358 426 369 447 L412 422 Z M412 249 Q403 228 393 210.5 Q383 193 369.5 180.5 Q356 168 338.5 161 Q321 154 296 154 Q271 154 250 165.5 Q229 177 210 191 Q191 205 173 216.5 Q155 228 136 228 Q110 228 97 211.5 Q84 195 73 174 L30 199 Q39 220 49 237.5 Q59 255 72.5 267.5 Q86 280 103.5 287 Q121 294 146 294 Q170 294 191 282.5 Q212 271 231.5 257 Q251 243 269 231.5 Q287 220 306 220 Q332 220 345 236.5 Q358 253 369 274 L412 249 Z " />
<glyph glyph-name="congruent" unicode="&#x2245;" horiz-adv-x="438" d="M410 478 Q401 457 391 439.5 Q381 422 367.5 409.5 Q354 397 336.5 390 Q319 383 294 383 Q269 383 248 394.5 Q227 406 208 420 Q189 434 171 445.5 Q153 457 134 457 Q108 457 95 440.5 Q82 424 71 403 L28 428 Q37 449 47 466.5 Q57 484 70.5 496.5 Q84 509 101.5 516 Q119 523 144 523 Q168 523 189 511.5 Q210 500 229.5 486 Q249 472 267 460.5 Q285 449 304 449 Q330 449 343 465.5 Q356 482 367 503 L410 478 Z M403 103 L35 103 L35 169 L403 169 L403 103 Z M403 256 L35 256 L35 321 L403 321 L403 256 Z " />
<glyph glyph-name="logicalnot" unicode="&#xac;" horiz-adv-x="438" d="M400 158 L329 158 L329 278 L35 278 L35 347 L400 347 L400 158 Z " />
<glyph glyph-name="less" unicode="&#x3c;" horiz-adv-x="438" d="M388 429 L111 277 L111 275 L388 122 L388 49 L25 252 L25 299 L388 501 L388 429 Z " />
<glyph glyph-name="greater" unicode="&#x3e;" horiz-adv-x="438" d="M50 122 L327 274 L327 276 L50 429 L50 502 L413 299 L413 252 L50 50 L50 122 Z " />
<glyph glyph-name="lessequal" unicode="&#x2264;" horiz-adv-x="438" d="M400 457 L123 337 L123 335 L400 215 L400 149 L32 311 L32 359 L400 521 L400 457 Z M400 40 L32 40 L32 106 L400 106 L400 40 Z " />
<glyph glyph-name="greaterequal" unicode="&#x2265;" horiz-adv-x="438" d="M406 359 L406 311 L38 149 L38 215 L315 335 L315 337 L38 457 L38 521 L406 359 Z M406 106 L406 40 L38 40 L38 106 L406 106 Z " />
<glyph glyph-name="infinity" unicode="&#x221e;" horiz-adv-x="649" d="M534 310 Q534 350 513.5 371 Q493 392 461 392 Q444 392 429 384 Q414 376 402 363.5 Q390 351 379.5 336.5 Q369 322 361 310 Q369 298 379.5 283.5 Q390 269 402 256.5 Q414 244 429 235.5 Q444 227 461 227 Q493 227 513.5 248.5 Q534 270 534 310 Z M602 310 Q602 275 591.5 248 Q581 221 562.5 202 Q544 183 519 173 Q494 163 466 163 Q441 163 420 171.5 Q399 180 381.5 193.5 Q364 207 350 223 Q336 239 325 255 Q314 239 300 223 Q286 207 268.5 193.5 Q251 180 230 171.5 Q209 163 184 163 Q155 163 130.5 173 Q106 183 87 202 Q68 221 57.5 248 Q47 275 47 310 Q47 344 57.5 371 Q68 398 87 417 Q106 436 130.5 446 Q155 456 184 456 Q208 456 229 447.5 Q250 439 267.5 426 Q285 413 298.5 397 Q312 381 323 365 Q334 381 348 397 Q362 413 380 426 Q398 439 419.5 447.5 Q441 456 466 456 Q494 456 519 446 Q544 436 562.5 417 Q581 398 591.5 371 Q602 344 602 310 Z M115 310 Q115 270 135.5 248.5 Q156 227 188 227 Q205 227 220 235.5 Q235 244 247 256.5 Q259 269 269.5 283.5 Q280 298 288 310 Q280 322 269.5 336.5 Q259 351 247 363.5 Q235 376 220 384 Q205 392 188 392 Q156 392 135.5 371 Q115 350 115 310 Z " />
<glyph glyph-name="lozenge" unicode="&#x25ca;" horiz-adv-x="520" d="M260 628 L258 628 L117 280 L260 -68 L262 -68 L403 280 L260 628 Z M305 -150 L213 -150 L26 280 L215 710 L307 710 L494 280 L305 -150 Z " />
<glyph glyph-name="radical" unicode="&#x221a;" horiz-adv-x="526" d="M318 -150 L236 -150 L95 260 L5 224 L5 292 L150 347 L272 -32 L274 -32 L439 710 L524 710 L318 -150 Z " />
<glyph glyph-name="integral" unicode="&#x222b;" horiz-adv-x="274" d="M235 645 Q231 647 225.5 648 Q220 649 211 649 Q200 649 189 645 Q178 641 169.5 630.5 Q161 620 156 603 Q151 586 151 560 Q151 479 159 411.5 Q167 344 177 278.5 Q187 213 195 145.5 Q203 78 203 -3 Q203 -45 192.5 -75.5 Q182 -106 164.5 -125 Q147 -144 123.5 -153 Q100 -162 73 -162 Q57 -162 46.5 -159.5 Q36 -157 32 -155 L40 -85 Q45 -87 50.5 -88 Q56 -89 65 -89 Q76 -89 86.5 -85 Q97 -81 105.5 -70.5 Q114 -60 119 -43 Q124 -26 124 0 Q124 81 116 148.5 Q108 216 98 281 Q88 346 80 414 Q72 482 72 563 Q72 605 82.5 635.5 Q93 666 111 685 Q129 704 152.5 713 Q176 722 203 722 Q219 722 229 719.5 Q239 717 243 715 L235 645 Z " />
<glyph glyph-name="parenleft" unicode="&#x28;" horiz-adv-x="248" d="M44 305 Q44 399 57.5 472 Q71 545 91 599 Q111 653 134 690 Q157 727 177 750 L244 750 Q222 725 199 689 Q176 653 157.5 600 Q139 547 127.5 474.5 Q116 402 116 305 Q116 207 127.5 135 Q139 63 157.5 10 Q176 -43 199 -79 Q222 -115 244 -140 L177 -140 Q157 -117 134 -80 Q111 -43 91 11 Q71 65 57.5 138 Q44 211 44 305 Z " />
<glyph glyph-name="parenright" unicode="&#x29;" horiz-adv-x="248" d="M204 305 Q204 211 190.5 138 Q177 65 157 11 Q137 -43 114 -80 Q91 -117 71 -140 L4 -140 Q26 -115 49 -79 Q72 -43 90.5 10 Q109 63 120.5 135.5 Q132 208 132 305 Q132 403 120.5 475 Q109 547 90.5 600 Q72 653 49 689 Q26 725 4 750 L71 750 Q91 727 114 690 Q137 653 157 599 Q177 545 190.5 472 Q204 399 204 305 Z " />
<glyph glyph-name="bracketleft" unicode="&#x5b;" horiz-adv-x="241" d="M210 689 L140 689 L140 -79 L210 -79 L210 -140 L72 -140 L72 750 L210 750 L210 689 Z " />
<glyph glyph-name="bracketright" unicode="&#x5d;" horiz-adv-x="241" d="M31 -79 L101 -79 L101 689 L31 689 L31 750 L169 750 L169 -140 L31 -140 L31 -79 Z " />
<glyph glyph-name="braceleft" unicode="&#x7b;" horiz-adv-x="265" d="M237 695 Q202 694 183.5 675 Q165 656 165 598 L165 401 Q165 352 140 330 Q115 308 80 306 L80 304 Q115 302 140 280 Q165 258 165 209 L165 10 Q165 -47 184 -66 Q203 -85 237 -85 L237 -146 Q206 -145 180 -138 Q154 -131 135.5 -115 Q117 -99 106.5 -72 Q96 -45 96 -4 L96 203 Q96 243 77 258 Q58 273 24 274 L24 336 Q58 336 77 352 Q96 368 96 407 L96 614 Q96 655 106.5 682 Q117 709 135.5 725 Q154 741 180 748 Q206 755 237 756 L237 695 Z " />
<glyph glyph-name="braceright" unicode="&#x7d;" horiz-adv-x="265" d="M28 -85 Q63 -84 81.5 -65 Q100 -46 100 12 L100 209 Q100 258 125 280 Q150 302 185 304 L185 306 Q150 308 125 330 Q100 352 100 401 L100 600 Q100 657 81 676 Q62 695 28 695 L28 756 Q59 755 85 748 Q111 741 129.5 725 Q148 709 158.5 682 Q169 655 169 614 L169 407 Q169 367 188 352 Q207 337 241 336 L241 274 Q207 274 188 258 Q169 242 169 203 L169 -4 Q169 -45 158.5 -72 Q148 -99 129.5 -115 Q111 -131 85 -138 Q59 -145 28 -146 L28 -85 Z " />
<glyph glyph-name="guilsinglleft" unicode="&#x2039;" horiz-adv-x="265" d="M158 81 L35 280 L158 480 L226 480 L122 280 L226 81 L158 81 Z " />
<glyph glyph-name="guilsinglright" unicode="&#x203a;" horiz-adv-x="265" d="M107 480 L230 281 L107 81 L39 81 L143 281 L39 480 L107 480 Z " />
<glyph glyph-name="guillemotleft" unicode="&#xab;" horiz-adv-x="408" d="M161 81 L35 280 L161 480 L225 480 L119 280 L225 81 L161 81 Z M306 81 L185 280 L306 480 L369 480 L269 280 L369 81 L306 81 Z " />
<glyph glyph-name="guillemotright" unicode="&#xbb;" horiz-adv-x="408" d="M247 480 L373 281 L247 81 L183 81 L289 281 L183 480 L247 480 Z M102 480 L223 281 L102 81 L39 81 L139 281 L39 480 L102 480 Z " />
<glyph glyph-name="hyphen" unicode="&#x2d;" horiz-adv-x="356" d="M297 272 L59 272 L59 338 L297 338 L297 272 Z " />
<glyph glyph-name="uni00AD" unicode="&#xad;" horiz-adv-x="356" d="M297 272 L59 272 L59 338 L297 338 L297 272 Z " />
<glyph glyph-name="endash" unicode="&#x2013;" horiz-adv-x="487" d="M428 272 L59 272 L59 338 L428 338 L428 272 Z " />
<glyph glyph-name="emdash" unicode="&#x2014;" horiz-adv-x="677" d="M618 272 L59 272 L59 338 L618 338 L618 272 Z " />
<glyph glyph-name="underscore" unicode="&#x5f;" horiz-adv-x="369" d="M369 -160 L0 -160 L0 -94 L369 -94 L369 -160 Z " />
<glyph glyph-name="zero" unicode="0" horiz-adv-x="438" d="M401 327 Q401 236 387 171.5 Q373 107 348 66.5 Q323 26 288.5 7 Q254 -12 214 -12 Q174 -12 141.5 7 Q109 26 85.5 67.5 Q62 109 49.5 173 Q37 237 37 327 Q37 417 51 481 Q65 545 90 585 Q115 625 149 643.5 Q183 662 223 662 Q263 662 296 643 Q329 624 352 583.5 Q375 543 388 479.5 Q401 416 401 327 Z M317 327 Q317 400 310 451 Q303 502 290 533.5 Q277 565 259 579 Q241 593 219 593 Q197 593 179 579 Q161 565 148 533.5 Q135 502 128 451 Q121 400 121 327 Q121 254 128 203 Q135 152 148 120.5 Q161 89 179 74.5 Q197 60 219 60 Q241 60 259 74.5 Q277 89 290 120.5 Q303 152 310 203 Q317 254 317 327 Z " />
<glyph glyph-name="one" unicode="1" horiz-adv-x="438" d="M278 69 L403 69 L403 0 L72 0 L72 69 L197 69 L197 568 L80 517 L56 580 L217 650 L278 650 L278 69 Z " />
<glyph glyph-name="two" unicode="2" horiz-adv-x="438" d="M373 481 Q373 422 355 369.5 Q337 317 306.5 267.5 Q276 218 235 170 Q194 122 148 71 L148 69 L383 69 L383 0 L57 0 L50 59 Q111 130 156 185 Q201 240 230.5 287 Q260 334 274.5 377.5 Q289 421 289 469 Q289 529 266 561 Q243 593 197 593 Q174 593 155 586 Q136 579 121 569 Q106 559 96 548 Q86 537 80 530 L40 581 Q47 590 60.5 604 Q74 618 94.5 631 Q115 644 142 653 Q169 662 205 662 Q290 662 331.5 616 Q373 570 373 481 Z " />
<glyph glyph-name="three" unicode="3" horiz-adv-x="438" d="M359 498 Q359 463 350 435 Q341 407 325.5 386 Q310 365 290 350.5 Q270 336 249 329 L249 327 Q272 321 294 309 Q316 297 333.5 277 Q351 257 361.5 229 Q372 201 372 164 Q372 80 322.5 34 Q273 -12 188 -12 Q157 -12 133 -4.5 Q109 3 91.5 13.5 Q74 24 62 36 Q50 48 43 57 L87 118 Q92 112 99.5 102 Q107 92 119 82.5 Q131 73 148 66.5 Q165 60 188 60 Q236 60 262.5 83.5 Q289 107 289 158 Q289 223 251.5 256 Q214 289 143 289 L129 289 L125 357 L146 357 Q215 357 247 396 Q279 435 279 492 Q279 534 259 563.5 Q239 593 194 593 Q159 593 134.5 576 Q110 559 97 542 L61 593 Q69 603 82 615 Q95 627 113 637.5 Q131 648 154.5 655 Q178 662 208 662 Q274 662 316.5 620.5 Q359 579 359 498 Z " />
<glyph glyph-name="four" unicode="4" horiz-adv-x="438" d="M398 172 L337 172 L337 0 L259 0 L259 172 L25 172 L17 238 L269 650 L337 650 L337 241 L398 241 L398 172 Z M96 241 L259 241 L259 405 Q259 447 259.5 484 Q260 521 265 544 L263 544 Q256 519 239.5 488 Q223 457 202 422 L96 241 Z " />
<glyph glyph-name="five" unicode="5" horiz-adv-x="438" d="M360 578 L173 578 L161 404 Q278 398 332 341.5 Q386 285 386 186 Q386 87 331.5 37.5 Q277 -12 189 -12 Q151 -12 124 -2.5 Q97 7 79 19.5 Q61 32 50 45 Q39 58 35 64 L79 124 Q83 118 92 107 Q101 96 114.5 85.5 Q128 75 147 67.5 Q166 60 190 60 Q241 60 272 89 Q303 118 303 180 Q303 266 250 302 Q197 338 80 338 L103 650 L360 650 L360 578 Z " />
<glyph glyph-name="six" unicode="6" horiz-adv-x="438" d="M404 199 Q404 97 360 42.5 Q316 -12 234 -12 Q194 -12 159 3.5 Q124 19 97.5 57.5 Q71 96 56 160 Q41 224 41 321 Q41 416 63.5 481.5 Q86 547 121 587 Q156 627 200 644.5 Q244 662 288 662 Q331 662 352 655 Q373 648 382 643 L364 573 Q355 578 336 584 Q317 590 285 590 Q253 590 224.5 577.5 Q196 565 174.5 537.5 Q153 510 140 466.5 Q127 423 124 361 Q144 376 171 387 Q198 398 233 398 Q311 398 357.5 347.5 Q404 297 404 199 Z M219 326 Q187 326 164 316 Q141 306 124 292 Q125 226 134.5 181.5 Q144 137 159 110 Q174 83 194 71.5 Q214 60 237 60 Q283 60 303.5 91.5 Q324 123 324 188 Q324 259 298.5 292.5 Q273 326 219 326 Z " />
<glyph glyph-name="seven" unicode="7" horiz-adv-x="438" d="M399 596 L173 0 L83 0 L309 576 L309 578 L52 578 L52 650 L394 650 L399 596 Z " />
<glyph glyph-name="eight" unicode="8" horiz-adv-x="438" d="M378 508 Q378 476 370.5 449.5 Q363 423 351 402 Q339 381 323.5 365.5 Q308 350 293 339 L293 337 Q313 324 331 308 Q349 292 362.5 271 Q376 250 384 223 Q392 196 392 161 Q392 125 380 93 Q368 61 345 38 Q322 15 289 1.5 Q256 -12 213 -12 Q172 -12 141 0.5 Q110 13 88 35 Q66 57 55 87 Q44 117 44 152 Q44 189 53.5 217.5 Q63 246 78 268 Q93 290 111 305 Q129 320 147 330 L147 332 Q107 361 84 401.5 Q61 442 61 499 Q61 536 73 566 Q85 596 106.5 617.5 Q128 639 158 650.5 Q188 662 224 662 Q292 662 335 623 Q378 584 378 508 Z M310 163 Q310 212 279.5 243.5 Q249 275 203 298 Q189 290 174.5 278 Q160 266 148.5 250 Q137 234 130 214 Q123 194 123 169 Q123 115 148.5 87 Q174 59 216 59 Q256 59 283 84 Q310 109 310 163 Z M140 505 Q140 455 168 422.5 Q196 390 238 367 Q262 385 282 418 Q302 451 302 502 Q302 548 279.5 571 Q257 594 222 594 Q187 594 163.5 572.5 Q140 551 140 505 Z " />
<glyph glyph-name="nine" unicode="9" horiz-adv-x="438" d="M397 329 Q397 231 377 166 Q357 101 322.5 61 Q288 21 243 4.5 Q198 -12 147 -12 Q103 -12 81 -4 Q59 4 51 9 L72 79 Q79 75 96 69 Q113 63 145 63 Q183 63 213 74 Q243 85 264 111 Q285 137 297.5 180 Q310 223 312 287 Q292 271 263.5 260 Q235 249 197 249 Q122 249 77.5 303.5 Q33 358 33 456 Q33 510 47.5 549 Q62 588 86 613 Q110 638 141.5 650 Q173 662 206 662 Q247 662 282 646 Q317 630 342.5 591.5 Q368 553 382.5 489 Q397 425 397 329 Z M210 318 Q248 318 272 330 Q296 342 313 358 Q312 426 303 471 Q294 516 279 543 Q264 570 244.5 581.5 Q225 593 203 593 Q185 593 169 586 Q153 579 140.5 563.5 Q128 548 120.5 522 Q113 496 113 459 Q113 395 135 356.5 Q157 318 210 318 Z " />
<glyph glyph-name="uni2007" unicode="&#x2007;" horiz-adv-x="438" d="" />
<glyph glyph-name="fraction" unicode="&#x2044;" horiz-adv-x="424" d="M66 0 L-12 0 L350 650 L429 650 L66 0 Z " />
<glyph glyph-name="onequarter" unicode="&#xbc;" horiz-adv-x="760" d="M256 0 L178 0 L540 650 L619 650 L256 0 Z M186 316 L260 316 L260 260 L46 260 L46 316 L119 316 L119 584 L52 557 L33 607 L138 650 L186 650 L186 316 Z M729 93 L695 93 L695 0 L631 0 L631 93 L497 93 L493 144 L640 390 L695 390 L695 154 L729 154 L729 93 Z M631 154 L631 202 Q631 231 631.5 255 Q632 279 636 305 L634 305 Q628 283 616.5 260.5 Q605 238 591 212 L560 154 L631 154 Z " />
<glyph glyph-name="onehalf" unicode="&#xbd;" horiz-adv-x="754" d="M245 0 L167 0 L529 650 L608 650 L245 0 Z M186 316 L260 316 L260 260 L46 260 L46 316 L119 316 L119 584 L52 557 L33 607 L138 650 L186 650 L186 316 Z M714 284 Q714 253 705.5 227 Q697 201 680.5 174.5 Q664 148 641 120 Q618 92 590 58 L590 56 L716 56 L716 0 L514 0 L509 44 Q550 96 576.5 130.5 Q603 165 618.5 189.5 Q634 214 640 233.5 Q646 253 646 274 Q646 304 632.5 321 Q619 338 593 338 Q567 338 552.5 326.5 Q538 315 530 307 L500 350 Q505 356 514 363.5 Q523 371 536 378.5 Q549 386 566.5 391 Q584 396 606 396 Q658 396 686 366 Q714 336 714 284 Z " />
<glyph glyph-name="threequarters" unicode="&#xbe;" horiz-adv-x="759" d="M245 0 L167 0 L529 650 L608 650 L245 0 Z M235 559 Q235 517 216 493.5 Q197 470 168 459 L168 457 Q198 449 220.5 428 Q243 407 243 361 Q243 312 212.5 283 Q182 254 129 254 Q108 254 92 259 Q76 264 64 271.5 Q52 279 44.5 286.5 Q37 294 33 300 L66 348 Q74 337 88 325.5 Q102 314 126 314 Q154 314 165.5 327.5 Q177 341 177 363 Q177 394 158 411 Q139 428 98 428 L88 428 L84 479 L89 479 Q134 479 153 499 Q172 519 172 547 Q172 568 160 583.5 Q148 599 126 599 Q103 599 90 589.5 Q77 580 70 572 L40 613 Q44 619 52.5 626 Q61 633 73 640 Q85 647 100.5 651.5 Q116 656 134 656 Q185 656 210 629.5 Q235 603 235 559 Z M728 93 L694 93 L694 0 L630 0 L630 93 L496 93 L492 144 L639 390 L694 390 L694 154 L728 154 L728 93 Z M630 154 L630 202 Q630 231 630.5 255 Q631 279 635 305 L633 305 Q627 283 615.5 260.5 Q604 238 590 212 L559 154 L630 154 Z " />
<glyph glyph-name="onesuperior" unicode="&#xb9;" horiz-adv-x="284" d="M186 446 L260 446 L260 390 L46 390 L46 446 L119 446 L119 714 L52 687 L33 737 L138 780 L186 780 L186 446 Z " />
<glyph glyph-name="twosuperior" unicode="&#xb2;" horiz-adv-x="284" d="M242 674 Q242 643 233.5 617 Q225 591 208.5 564.5 Q192 538 169 510 Q146 482 118 448 L118 446 L244 446 L244 390 L42 390 L37 434 Q78 486 104.5 520.5 Q131 555 146.5 579.5 Q162 604 168 623.5 Q174 643 174 664 Q174 694 160.5 711 Q147 728 121 728 Q95 728 80.5 716.5 Q66 705 58 697 L28 740 Q33 746 42 753.5 Q51 761 64 768.5 Q77 776 94.5 781 Q112 786 134 786 Q186 786 214 756 Q242 726 242 674 Z " />
<glyph glyph-name="threesuperior" unicode="&#xb3;" horiz-adv-x="284" d="M235 689 Q235 647 216 623.5 Q197 600 168 589 L168 587 Q198 579 220.5 558 Q243 537 243 491 Q243 442 212.5 413 Q182 384 129 384 Q108 384 92 389 Q76 394 64 401.5 Q52 409 44.5 416.5 Q37 424 33 430 L66 478 Q74 467 88 455.5 Q102 444 126 444 Q154 444 165.5 457.5 Q177 471 177 493 Q177 524 158 541 Q139 558 98 558 L88 558 L84 609 L89 609 Q134 609 153 629 Q172 649 172 677 Q172 698 160 713.5 Q148 729 126 729 Q103 729 90 719.5 Q77 710 70 702 L40 743 Q44 749 52.5 756 Q61 763 73 770 Q85 777 100.5 781.5 Q116 786 134 786 Q185 786 210 759.5 Q235 733 235 689 Z " />
<glyph glyph-name="four.superior" unicode="&#x2074;" horiz-adv-x="284" d="M252 483 L218 483 L218 390 L154 390 L154 483 L20 483 L16 534 L163 780 L218 780 L218 544 L252 544 L252 483 Z M154 544 L154 592 Q154 621 154.5 645 Q155 669 159 695 L157 695 Q151 673 139.5 650.5 Q128 628 114 602 L83 544 L154 544 Z " />
<glyph glyph-name="arrowleft" unicode="&#x2190;" horiz-adv-x="807" d="M467 623 L191 352 L191 350 L762 350 L762 281 L191 281 L191 279 L467 7 L417 -42 L60 315 L417 672 L467 623 Z " />
<glyph glyph-name="arrowup" unicode="&#x2191;" horiz-adv-x="804" d="M710 265 L439 541 L437 541 L437 -30 L368 -30 L368 541 L366 541 L94 265 L45 315 L402 672 L759 315 L710 265 Z " />
<glyph glyph-name="arrowright" unicode="&#x2192;" horiz-adv-x="807" d="M340 7 L616 278 L616 280 L45 280 L45 349 L616 349 L616 351 L340 623 L390 672 L747 315 L390 -42 L340 7 Z " />
<glyph glyph-name="arrowdown" unicode="&#x2193;" horiz-adv-x="804" d="M94 365 L365 89 L367 89 L367 660 L436 660 L436 89 L438 89 L710 365 L759 315 L402 -42 L45 315 L94 365 Z " />
<glyph glyph-name="uni2196" unicode="&#x2196;" horiz-adv-x="655" d="M595 512 L209 516 L208 514 L611 111 L562 61 L158 465 L157 463 L160 77 L90 77 L90 582 L595 582 L595 512 Z " />
<glyph glyph-name="uni2197" unicode="&#x2197;" horiz-adv-x="655" d="M60 582 L565 582 L565 77 L495 77 L498 463 L497 465 L93 61 L44 111 L447 514 L446 516 L60 512 L60 582 Z " />
<glyph glyph-name="uni2198" unicode="&#x2198;" horiz-adv-x="655" d="M60 147 L446 143 L447 145 L44 548 L93 598 L497 194 L498 196 L495 582 L565 582 L565 77 L60 77 L60 147 Z " />
<glyph glyph-name="uni2199" unicode="&#x2199;" horiz-adv-x="655" d="M595 77 L90 77 L90 582 L160 582 L157 196 L158 194 L562 598 L611 548 L208 145 L209 143 L595 147 L595 77 Z " />
</font>
</svg>
